<?xml version="1.0" encoding="utf-8"?>
<!-- Generator: Adobe Illustrator 26.0.2, SVG Export Plug-In . SVG Version: 6.00 Build 0)  -->
<svg version="1.1" id="圖層_1" xmlns="http://www.w3.org/2000/svg" xmlns:xlink="http://www.w3.org/1999/xlink" x="0px" y="0px"
	 viewBox="0 0 300 400" style="enable-background:new 0 0 300 400;" xml:space="preserve">
<style type="text/css">
	.st0{fill:#D3D3D3;}
	.st1{fill:#FFFFFF;}
</style>
<rect class="st0" width="300" height="400"/>
<path class="st1" d="M250,246.4V96.5c0-5.9-4.8-10.7-10.7-10.7H92.9c-23.7,0-42.8,19.2-42.8,42.8v142.8c0,23.7,19.2,42.8,42.8,42.8
	h146.4c5.9,0,10.7-4.8,10.7-10.7v-7.1c0-3.3-1.6-6.4-3.9-8.4c-1.9-6.9-1.9-26.5,0-33.3C248.4,252.8,250,249.8,250,246.4L250,246.4z
	 M107.2,145.5c0-1.5,1.2-2.7,2.7-2.7h94.6c1.5,0,2.7,1.2,2.7,2.7v8.9c0,1.5-1.2,2.7-2.7,2.7h-94.6c-1.5,0-2.7-1.2-2.7-2.7V145.5z
	 M107.2,174.1c0-1.5,1.2-2.7,2.7-2.7h94.6c1.5,0,2.7,1.2,2.7,2.7v8.9c0,1.5-1.2,2.7-2.7,2.7h-94.6c-1.5,0-2.7-1.2-2.7-2.7V174.1z
	 M220.3,285.7H92.9c-7.9,0-14.3-6.4-14.3-14.3c0-7.9,6.4-14.3,14.3-14.3h127.4C219.4,264.7,219.4,278.1,220.3,285.7z"/>
</svg>
