<?xml version="1.0" encoding="utf-8"?>
<!-- Generator: Adobe Illustrator 26.0.2, SVG Export Plug-In . SVG Version: 6.00 Build 0)  -->
<svg version="1.1" id="Capa_1" xmlns="http://www.w3.org/2000/svg" xmlns:xlink="http://www.w3.org/1999/xlink" x="0px" y="0px"
	 viewBox="0 0 300 400" style="enable-background:new 0 0 300 400;" xml:space="preserve">
<style type="text/css">
	.st0{fill:#A9C6CC;}
	.st1{fill:#FFFFFF;}
</style>
<rect class="st0" width="300" height="400"/>
<path class="st1" d="M250,246.4v-150c0-5.9-4.7-10.7-10.6-10.7c0,0-0.1,0-0.1,0H92.9c-23.7,0-42.9,19.2-42.9,42.9c0,0,0,0,0,0v142.9
	c0,23.7,19.2,42.9,42.9,42.9h146.4c5.9,0,10.7-4.7,10.7-10.6c0,0,0-0.1,0-0.1v-7.1c0-3.2-1.5-6.3-4-8.3c-1.9-6.9-1.9-26.4,0-33.3
	C248.5,252.7,250,249.7,250,246.4z M107.1,145.5c0-1.5,1.2-2.7,2.7-2.7h94.6c1.5,0,2.7,1.2,2.7,2.7v8.9c0,1.5-1.2,2.7-2.7,2.7h-94.6
	c-1.5,0-2.7-1.2-2.7-2.7V145.5z M107.1,174.1c0-1.5,1.2-2.7,2.7-2.7h94.6c1.5,0,2.7,1.2,2.7,2.7v8.9c0,1.5-1.2,2.7-2.7,2.7h-94.6
	c-1.5,0-2.7-1.2-2.7-2.7V174.1z M220.2,285.7H92.9c-7.9,0.2-14.4-6.1-14.6-13.9c-0.2-7.9,6.1-14.4,13.9-14.6c0.2,0,0.5,0,0.7,0
	h127.4C219.4,266.7,219.4,276.2,220.2,285.7z"/>
</svg>
