<svg xmlns="http://www.w3.org/2000/svg" width="60" height="60" viewBox="0 0 60 60"><g transform="translate(-30 -10)"><rect width="60" height="13.94" transform="translate(30 33.03)" fill="#008430"/><rect width="13.94" height="60" transform="translate(53.03 10)" fill="#008430"/><rect width="57.093" height="11.033" transform="translate(31.453 34.484)" fill="#fff"/><rect width="11.033" height="57.093" transform="translate(54.484 11.453)" fill="#fff"/><path d="M57.372,15.06,60,40.046V16.257Z" fill="#021da5"/><path d="M56.351,13.642,60.867,15.7V40.046l-1.73.091Zm2.782,3.173-.739-.337.739,7.03Z" fill="#e1cc85"/><path d="M54.774,15.471,60,40.045,57.513,16.387l-2.739-.916Z" fill="#fff"/><path d="M53.61,14.167l4.707,1.574,2.544,24.213-1.711.271Zm3.1,2.865-.771-.258,1.47,6.915Z" fill="#e1cc85"/><path d="M52.233,16.151,60,40.045,55.053,16.776l-2.82-.625Z" fill="#ff2600"/><path d="M50.939,14.976l4.846,1.074,5.062,23.815-1.673.448ZM54.321,17.5l-.794-.176,2.186,6.725Z" fill="#e1cc85"/><path d="M62.628,15.06,60,40.046V16.257Z" fill="#021da5"/><path d="M63.649,13.642,60.863,40.137l-1.73-.091V15.7Zm-2.782,9.866.739-7.03-.739.337Z" fill="#e1cc85"/><path d="M65.226,15.471,60,40.045l2.486-23.658,2.739-.916Z" fill="#fff"/><path d="M66.39,14.167,60.849,40.225l-1.711-.271,2.544-24.213Zm-3.8,9.523,1.47-6.915-.771.258Z" fill="#e1cc85"/><path d="M67.767,16.151,60,40.045l4.946-23.269,2.82-.625Z" fill="#ff2600"/><path d="M69.061,14.976,60.826,40.313l-1.673-.448L64.215,16.05Zm-4.774,9.075,2.186-6.725-.794.176Z" fill="#e1cc85"/><path d="M35.42,34.827l24.575,5.222L37.371,32.7Z" fill="#021da5"/><path d="M37.108,31.7l23.155,7.523L59.815,40.9,33.755,35.36ZM44,35.763,37.634,33.7l-.549.6Z" fill="#e1cc85"/><path d="M35.008,37.425l24.987,2.624L36.726,35.1l-1.718,2.322Z" fill="#fff"/><path d="M36.361,34.139,60.175,39.2,59.9,40.912l-26.5-2.783Zm7.28,3.321-6.549-1.392-.484.654Z" fill="#e1cc85"/><path d="M34.87,40.052l25.124,0L36.335,37.563,34.87,40.052Z" fill="#ff2600"/><path d="M33.353,40.919l2.518-4.277,24.214,2.545-.091,1.73ZM36.8,38.484l-.412.7h7.072Z" fill="#e1cc85"/><path d="M37.044,29.829l22.951,10.22L37.371,32.7Z" fill="#021da5"/><path d="M36.01,28.419,60.348,39.257l-.621,1.617L36.572,33.35Zm8.521,5.693-6.454-2.874.092.807Z" fill="#e1cc85"/><path d="M38.238,27.485,59.995,40.048,38.263,30.373l-.025-2.888Z" fill="#fff"/><path d="M37.358,25.975,60.429,39.3l-.786,1.543L37.4,30.938Zm7.883,6.555-6.122-3.535.007.813Z" fill="#e1cc85"/><path d="M39.67,25.279,59.995,40.047l-20.6-11.894.277-2.874Z" fill="#ff2600"/><path d="M38.952,23.685,60.5,39.345,59.561,40.8,38.476,28.625Zm7.151,7.34-5.716-4.153-.078.808Z" fill="#e1cc85"/><path d="M47.437,61.813,60,40.055,46.014,59.3Z" fill="#021da5"/><path d="M47.43,63.56l-2.445-4.319L59.3,39.545l1.453.943Zm-.386-4.2.4.707,3.535-6.124Z" fill="#e1cc85"/><path d="M49.78,63.008,60,40.055,48.1,60.657l1.677,2.351Z" fill="#fff"/><path d="M49.955,64.747l-2.882-4.041L59.246,39.621l1.544.786Zm-.822-4.14.472.661,2.874-6.456Z" fill="#e1cc85"/><path d="M52.236,63.951,60,40.056,50.322,61.788Z" fill="#ff2600"/><path d="M52.592,65.662,49.3,61.945l9.9-22.242,1.617.621Zm-1.251-4.031.539.609,2.184-6.725Z" fill="#e1cc85"/><path d="M43.185,58.724,60,40.055,46.014,59.3Z" fill="#021da5"/><path d="M46.388,60.261l-4.863-.99,17.827-19.8,1.346,1.09Zm-1.543-2.084.8.162,3.931-5.411Z" fill="#e1cc85"/><path d="M41.325,56.864,60,40.055,44.078,57.733l-2.753-.869Z" fill="#fff"/><path d="M44.349,58.728l-4.732-1.494,19.8-17.824,1.225,1.225Zm-1.316-2.235.774.244,4.476-4.971Z" fill="#e1cc85"/><path d="M39.669,54.82,59.995,40.055,42.317,55.973Z" fill="#ff2600"/><path d="M42.483,56.991l-4.55-1.981L59.485,39.353l1.09,1.346ZM41.406,54.63l.746.325,4.977-4.482Z" fill="#e1cc85"/><path d="M76.815,58.724,60,40.055,73.986,59.3Z" fill="#021da5"/><path d="M73.612,60.261,59.3,40.565l1.346-1.09,17.827,19.8Zm-3.184-7.333,3.931,5.411.8-.162Z" fill="#e1cc85"/><path d="M78.675,56.864,60,40.055,75.922,57.733l2.753-.869Z" fill="#fff"/><path d="M75.651,58.728,59.359,40.635l1.225-1.225,19.8,17.824Zm-3.934-6.961,4.476,4.971.774-.244Z" fill="#e1cc85"/><path d="M80.331,54.82,60.005,40.055,77.683,55.973Z" fill="#ff2600"/><path d="M77.517,56.991,59.425,40.7l1.09-1.346L82.068,55.01Zm-4.646-6.518,4.977,4.482.746-.325Z" fill="#e1cc85"/><path d="M72.563,61.813,60,40.055,73.986,59.3Z" fill="#021da5"/><path d="M72.57,63.56,59.252,40.489l1.453-.943,14.311,19.7Zm-3.549-9.619,3.535,6.124.4-.707Z" fill="#e1cc85"/><path d="M70.22,63.008,60,40.055,71.9,60.657,70.22,63.008Z" fill="#fff"/><path d="M70.045,64.747,59.211,40.408l1.544-.786L72.927,60.707Zm-2.523-9.935L70.4,61.269l.472-.661Z" fill="#e1cc85"/><path d="M67.764,63.951,60,40.056l9.676,21.732Z" fill="#ff2600"/><path d="M67.408,65.662,59.177,40.324l1.617-.621,9.9,22.242ZM65.936,55.515,68.12,62.24l.539-.609Z" fill="#e1cc85"/><path d="M82.956,29.829,60.005,40.049,82.629,32.7Z" fill="#021da5"/><path d="M83.99,28.419l-.562,4.931L60.273,40.874l-.621-1.617ZM81.83,32.046l.092-.807-6.454,2.874Z" fill="#e1cc85"/><path d="M81.762,27.485,60.005,40.048l21.732-9.675.025-2.888Z" fill="#fff"/><path d="M82.642,25.975,82.6,30.938l-22.242,9.9L59.571,39.3Zm-1.768,3.832.007-.813L74.759,32.53Z" fill="#e1cc85"/><path d="M80.33,25.279,60.005,40.047l20.6-11.894-.277-2.874Z" fill="#ff2600"/><path d="M81.048,23.685l.476,4.94L60.439,40.8,59.5,39.345Zm-1.358,4-.078-.808L73.9,31.026Z" fill="#e1cc85"/><path d="M84.58,34.827,60.005,40.049,82.629,32.7Z" fill="#021da5"/><path d="M82.892,31.7l3.353,3.659L60.185,40.9l-.448-1.673Zm.024,2.593-.549-.6L76,35.763Z" fill="#e1cc85"/><path d="M84.992,37.425,60.005,40.049,83.274,35.1l1.718,2.322Z" fill="#fff"/><path d="M83.639,34.139l2.952,3.99L60.1,40.912,59.825,39.2Zm-.247,2.582-.484-.654L76.36,37.459Z" fill="#e1cc85"/><path d="M85.13,40.052l-25.124,0,23.659-2.487,1.465,2.489Z" fill="#ff2600"/><path d="M86.647,40.919l-26.641,0-.091-1.73,24.214-2.545ZM76.541,39.184h7.072l-.412-.7Z" fill="#e1cc85"/><path d="M60,40.028l2.918,23.1-1.488-.385L60,40.028" fill="#e1cc85"/><path d="M62.914,63.479a.347.347,0,0,1-.087-.011l-1.488-.385a.347.347,0,0,1-.259-.314l-1.428-22.7a.347.347,0,1,1,.691-.065v0l2.915,23.077a.347.347,0,0,1-.344.39Zm-1.158-1,.749.194L61.037,51.042Z" fill="#fff"/><path d="M59.995,40.028l5.489,21.38-1.4.048L59.995,40.028" fill="#e1cc85"/><path d="M64.083,61.8a.347.347,0,0,1-.341-.282L59.654,40.093a.347.347,0,0,1,.677-.151l5.489,21.38a.347.347,0,0,1-.324.433l-1.4.048ZM62.406,50.814,64.368,61.1l.672-.023Z" fill="#fff"/><path d="M59.994,40.026l5.49,21.382,1.2-.807Z" fill="#e1cc85"/><path d="M59.994,39.679a.347.347,0,0,1,.33.24l6.687,20.575a.347.347,0,0,1-.136.395l-1.2.807a.347.347,0,0,1-.53-.2l-5.49-21.382a.347.347,0,0,1,.336-.433ZM66.27,60.46l-3.2-9.84L65.7,60.845Z" fill="#fff"/><path d="M59.994,40.026l.006.1v-.1Zm.006.1V65.1l1.509-1.015Z" fill="#e1cc85"/><path d="M59.994,39.679H60a.347.347,0,0,1,.347.347v.093l1.508,23.94a.347.347,0,0,1-.153.31l-1.509,1.015a.347.347,0,0,1-.541-.288V40.14l-.005-.094a.347.347,0,0,1,.346-.367ZM61.15,63.9l-.8-12.75V64.445Z" fill="#fff"/><path d="M59.994,40.026l2.92,23.106,1.321-.885Z" fill="#e1cc85"/><path d="M59.994,39.679a.347.347,0,0,1,.34.282l4.241,22.221a.347.347,0,0,1-.148.353l-1.321.885a.347.347,0,0,1-.537-.245L59.65,40.07a.347.347,0,0,1,.345-.39Zm3.857,22.408-2.13-11.16,1.466,11.6Z" fill="#fff"/><path d="M60,40.028l-2.918,23.1,1.488-.385L60,40.028" fill="#e1cc85"/><path d="M57.086,63.479a.347.347,0,0,1-.344-.39l2.915-23.082a.347.347,0,1,1,.691.065v0L58.92,62.769a.347.347,0,0,1-.259.314l-1.488.385A.347.347,0,0,1,57.086,63.479Zm1.877-12.437L57.494,62.668l.749-.194Z" fill="#fff"/><path d="M60.005,40.028l-5.489,21.38,1.4.048,4.088-21.428" fill="#e1cc85"/><path d="M55.917,61.8h-.012l-1.4-.048a.347.347,0,0,1-.324-.433l5.489-21.38a.347.347,0,0,1,.677.151L56.258,61.521A.347.347,0,0,1,55.917,61.8Zm-.958-.727.672.023,1.962-10.286Z" fill="#fff"/><path d="M60.006,40.026l-5.49,21.382-1.2-.807Z" fill="#e1cc85"/><path d="M60.006,39.679a.347.347,0,0,1,.336.433l-5.49,21.382a.347.347,0,0,1-.53.2l-1.2-.807a.347.347,0,0,1-.136-.395l6.687-20.575A.347.347,0,0,1,60.006,39.679ZM54.3,60.845l2.626-10.226-3.2,9.84Z" fill="#fff"/><path d="M60.006,40.026l-.006.1v-.1Zm-.006.1V65.1l-1.509-1.015Z" fill="#e1cc85"/><path d="M60,39.679h.006a.347.347,0,0,1,.346.367l-.005.094V65.1a.347.347,0,0,1-.541.288L58.3,64.369a.347.347,0,0,1-.153-.31l1.508-23.94v-.093A.347.347,0,0,1,60,39.679Zm-.347,24.765V51.154l-.8,12.75Z" fill="#fff"/><path d="M60.006,40.026l-2.92,23.106-1.321-.885Z" fill="#e1cc85"/><path d="M60.006,39.679a.347.347,0,0,1,.345.39L57.43,63.176a.347.347,0,0,1-.537.245l-1.321-.885a.347.347,0,0,1-.148-.353l4.241-22.221A.347.347,0,0,1,60.006,39.679ZM56.812,62.531l1.466-11.6-2.13,11.16Z" fill="#fff"/><path d="M60,40.033,82.872,44.4l-.826,1.3L60,40.032" fill="#e1cc85"/><path d="M82.046,46.041a.347.347,0,0,1-.086-.011L59.932,40.374a.347.347,0,1,1,.151-.678h0l22.849,4.359a.347.347,0,0,1,.228.527l-.826,1.3A.347.347,0,0,1,82.046,46.041Zm-11.258-3.6,11.1,2.851.416-.653Z" fill="#fff"/><path d="M60,40.034l22.029,1.387-.387,1.347L60,40.034" fill="#e1cc85"/><path d="M81.639,43.115l-.044,0L59.954,40.378a.347.347,0,0,1,.065-.69l22.029,1.387a.347.347,0,0,1,.312.442l-.387,1.347A.347.347,0,0,1,81.639,43.115ZM71,41.074l10.386,1.312.186-.646Z" fill="#fff"/><path d="M59.995,40.035l22.031,1.386-.4-1.388Z" fill="#e1cc85"/><path d="M81.629,39.686a.347.347,0,0,1,.334.252l.4,1.388a.347.347,0,0,1-.355.442L59.973,40.381a.347.347,0,0,1,.022-.693Zm-.072,1.358-.19-.664H71.019Z" fill="#fff"/><path d="M59.995,40.035l.1.026-.1-.032Zm.1.026L83.84,47.776l-.5-1.749Z" fill="#e1cc85"/><path d="M60,39.682a.347.347,0,0,1,.107.017l.089.029,23.235,5.963a.347.347,0,0,1,.247.241l.5,1.749a.347.347,0,0,1-.441.425L60,40.394l-.091-.023a.347.347,0,0,1-.242-.446l0-.006A.347.347,0,0,1,60,39.682Zm23.065,6.632L70.686,43.137l12.641,4.108Z" fill="#fff"/><path d="M59.995,40.035,82.872,44.4l-.433-1.529Z" fill="#e1cc85"/><path d="M59.995,39.688l.044,0,22.444,2.833a.347.347,0,0,1,.29.25l.433,1.529a.347.347,0,0,1-.4.435L59.93,40.376a.347.347,0,0,1,.065-.688Zm22.173,3.5L70.9,41.761l11.484,2.19Z" fill="#fff"/><path d="M60,40.025,81.071,49.94l.094-1.534L60,40.026" fill="#e1cc85"/><path d="M81.071,50.287a.347.347,0,0,1-.148-.033L59.871,40.349a.348.348,0,1,1,.276-.637l.009,0,21.136,8.368a.347.347,0,0,1,.219.344l-.094,1.534a.347.347,0,0,1-.346.326ZM70.156,44.42l10.6,4.988.047-.772Z" fill="#fff"/><path d="M60,40.024,78.637,51.851l.479-1.317L60,40.025" fill="#e1cc85"/><path d="M78.637,52.2a.347.347,0,0,1-.186-.054L59.833,40.329a.347.347,0,1,1,.353-.6l0,0,19.095,10.5a.347.347,0,0,1,.159.423l-.479,1.317a.347.347,0,0,1-.326.228ZM69.52,45.655l8.938,5.672.23-.632Z" fill="#fff"/><path d="M60,40.022,78.637,51.851,77.5,52.74Z" fill="#e1cc85"/><path d="M60,39.675a.345.345,0,0,1,.186.054L78.823,51.558a.347.347,0,0,1,.028.566l-1.137.889a.347.347,0,0,1-.418.007L59.8,40.3a.347.347,0,0,1,.2-.628ZM78.036,51.88l-8.912-5.656,8.368,6.081Z" fill="#fff"/><path d="M60,40.022l.1.039-.1-.032Zm.1.039L83.84,47.776,82.408,48.9Z" fill="#e1cc85"/><path d="M60,39.675a.347.347,0,0,1,.129.025l.086.035,23.733,7.711a.347.347,0,0,1,.107.6L82.622,49.17a.347.347,0,0,1-.342.049l-22.3-8.832-.088-.029a.347.347,0,0,1-.227-.425l0-.007A.347.347,0,0,1,60,39.675ZM83.113,47.9,70.475,43.8l11.875,4.7Z" fill="#fff"/><path d="M60,40.022,81.071,49.94l-1.25.983Z" fill="#e1cc85"/><path d="M60,39.675a.346.346,0,0,1,.148.033l21.072,9.918a.347.347,0,0,1,.067.587l-1.25.983a.347.347,0,0,1-.382.031l-19.822-10.9A.347.347,0,0,1,60,39.675Zm20.416,10.34L69.831,45.033l9.956,5.475Z" fill="#fff"/><path d="M60,40.033,71.221,19.627l.978,1.186L60,40.033" fill="#e1cc85"/><path d="M60,40.38a.347.347,0,0,1-.3-.514L70.917,19.46a.347.347,0,0,1,.572-.054l.978,1.186a.347.347,0,0,1,.025.407l-12.2,19.22A.347.347,0,0,1,60,40.38ZM71.279,20.242,65.628,30.52l6.143-9.68Z" fill="#fff"/><path d="M60,40.034l8.126-20.523,1.162.785L60,40.034" fill="#e1cc85"/><path d="M60,40.381a.347.347,0,0,1-.322-.475l8.126-20.523a.347.347,0,0,1,.517-.16l1.162.785a.347.347,0,0,1,.12.435L60.317,40.182A.347.347,0,0,1,60,40.381Zm8.29-20.341-3.9,9.855,4.46-9.478Z" fill="#fff"/><path d="M60,40.036l8.126-20.525-1.442-.051Z" fill="#e1cc85"/><path d="M60,40.383a.347.347,0,0,1-.33-.454l6.684-20.576a.347.347,0,0,1,.342-.24l1.442.051a.347.347,0,0,1,.31.474L60.326,40.164A.347.347,0,0,1,60,40.383Zm6.933-20.567-3.2,9.836,3.885-9.812Z" fill="#fff"/><path d="M60,40.036l.056-.088L60,40.033Zm.056-.088,14.675-20.2-1.818-.066Z" fill="#e1cc85"/><path d="M60,40.383a.345.345,0,0,1-.178-.049l-.005,0a.347.347,0,0,1-.1-.5l.055-.077L72.623,19.5a.347.347,0,0,1,.306-.161l1.818.066a.347.347,0,0,1,.268.551L60.346,40.143l-.05.079A.347.347,0,0,1,60,40.383ZM73.1,20.038,66.256,30.829,74.07,20.073Z" fill="#fff"/><path d="M60,40.036,71.221,19.627l-1.588-.061Z" fill="#e1cc85"/><path d="M60,40.383a.347.347,0,0,1-.314-.495l9.63-20.47a.347.347,0,0,1,.327-.2l1.588.061a.347.347,0,0,1,.291.514L60.307,40.2A.347.347,0,0,1,60,40.383Zm9.846-20.462L65.015,30.2l5.632-10.246Z" fill="#fff"/><path d="M60,40.029,75.937,23.053l-1.43-.564L60,40.029" fill="#e1cc85"/><path d="M60,40.376a.347.347,0,0,1-.267-.568L74.24,22.268a.347.347,0,0,1,.395-.1l1.43.564a.347.347,0,0,1,.126.56L60.249,40.266A.346.346,0,0,1,60,40.376ZM74.614,22.9,67.3,31.739l8.029-8.551Z" fill="#fff"/><path d="M59.995,40.028,77,25.958,75.9,25.1l-15.9,14.932" fill="#e1cc85"/><path d="M60,40.375a.347.347,0,0,1-.238-.6l15.9-14.932a.347.347,0,0,1,.451-.021l1.1.862a.347.347,0,0,1,.008.541L60.216,40.3A.346.346,0,0,1,60,40.375ZM75.918,25.552l-7.631,7.165,8.161-6.752Z" fill="#fff"/><path d="M59.993,40.029,77,25.958l.5,1.356Z" fill="#e1cc85"/><path d="M59.993,40.376a.347.347,0,0,1-.221-.614L76.781,25.691a.347.347,0,0,1,.547.148l.5,1.356a.347.347,0,0,1-.122.4L60.2,40.31A.346.346,0,0,1,59.993,40.376ZM76.845,26.538l-8.136,6.731,8.373-6.082Z" fill="#fff"/><path d="M59.993,40.029l.066-.081L60,40.033Zm.066-.081,14.675-20.2.624,1.708Z" fill="#e1cc85"/><path d="M60,40.38a.347.347,0,0,1-.217-.076l-.005,0a.347.347,0,0,1-.052-.49l.06-.074,14.669-20.19a.347.347,0,0,1,.607.085l.624,1.708a.347.347,0,0,1-.059.34L60.334,40.16l-.054.075A.347.347,0,0,1,60,40.38Zm14.634-19.9L66.821,31.232l8.143-9.842Z" fill="#fff"/><path d="M59.993,40.029,75.937,23.053l.548,1.492Z" fill="#e1cc85"/><path d="M59.993,40.376a.347.347,0,0,1-.253-.584L75.684,22.815a.347.347,0,0,1,.579.118l.548,1.492a.347.347,0,0,1-.088.373L60.23,40.282A.346.346,0,0,1,59.993,40.376ZM75.805,23.7l-8,8.522,8.279-7.773Z" fill="#fff"/><path d="M60,40.029,44.063,23.053l1.43-.564L60,40.029" fill="#e1cc85"/><path d="M60,40.376a.346.346,0,0,1-.253-.109L43.81,23.29a.347.347,0,0,1,.126-.56l1.43-.564a.347.347,0,0,1,.395.1l14.511,17.54a.347.347,0,0,1-.267.568ZM44.666,23.188,52.7,31.739,45.386,22.9Z" fill="#fff"/><path d="M60.005,40.028,43,25.958l1.1-.862,15.9,14.932" fill="#e1cc85"/><path d="M60,40.375a.346.346,0,0,1-.221-.08L42.777,26.225a.347.347,0,0,1,.008-.541l1.1-.862a.347.347,0,0,1,.451.021l15.9,14.932a.347.347,0,0,1-.238.6ZM43.552,25.966l8.161,6.752-7.631-7.165Z" fill="#fff"/><path d="M60.007,40.029,43,25.958,42.5,27.314Z" fill="#e1cc85"/><path d="M60.007,40.376a.345.345,0,0,1-.2-.066L42.3,27.595a.347.347,0,0,1-.122-.4l.494-1.356a.347.347,0,0,1,.547-.149L60.228,39.762a.347.347,0,0,1-.221.614ZM42.92,27.187l8.368,6.079-8.132-6.727Z" fill="#fff"/><path d="M60.007,40.029l-.066-.081.061.085Zm-.066-.081L45.266,19.75l-.624,1.708Z" fill="#e1cc85"/><path d="M60,40.38a.347.347,0,0,1-.282-.145l-.054-.075L44.375,21.679a.347.347,0,0,1-.059-.34l.624-1.708a.347.347,0,0,1,.607-.085l14.669,20.19.06.074a.347.347,0,0,1-.052.49l-.005,0A.347.347,0,0,1,60,40.38ZM45.036,21.39l8.143,9.842L45.368,20.481Z" fill="#fff"/><path d="M60.007,40.029,44.063,23.053l-.548,1.492Z" fill="#e1cc85"/><path d="M60.007,40.376a.346.346,0,0,1-.237-.094L43.278,24.8a.347.347,0,0,1-.088-.373l.548-1.492a.347.347,0,0,1,.579-.118L60.26,39.791a.347.347,0,0,1-.253.584ZM43.92,24.449,52.2,32.222l-8-8.522Z" fill="#fff"/><path d="M60,40.033,48.779,19.627,47.8,20.813,60,40.033" fill="#e1cc85"/><path d="M60,40.38a.347.347,0,0,1-.293-.161L47.508,21a.347.347,0,0,1,.025-.407l.978-1.186a.347.347,0,0,1,.572.054L60.3,39.866a.347.347,0,0,1-.3.514ZM48.229,20.84l6.143,9.68L48.721,20.242Z" fill="#fff"/><path d="M60,40.034,51.871,19.511l-1.162.785L60,40.034" fill="#e1cc85"/><path d="M60,40.381a.347.347,0,0,1-.314-.2L50.4,20.444a.347.347,0,0,1,.12-.435l1.162-.785a.347.347,0,0,1,.517.16L60.32,39.906a.347.347,0,0,1-.322.475ZM51.149,20.417l4.46,9.478-3.9-9.855Z" fill="#fff"/><path d="M60,40.036,51.871,19.511l1.442-.051Z" fill="#e1cc85"/><path d="M60,40.383a.347.347,0,0,1-.323-.219L51.548,19.639a.347.347,0,0,1,.31-.474l1.442-.051a.347.347,0,0,1,.342.24l6.684,20.576a.347.347,0,0,1-.33.454ZM52.375,19.84l3.885,9.812-3.2-9.836Z" fill="#fff"/><path d="M60,40.036l-.056-.088.061.085Zm-.056-.088L45.266,19.75l1.818-.066Z" fill="#e1cc85"/><path d="M60,40.383a.347.347,0,0,1-.293-.161l-.05-.079L44.985,19.954a.347.347,0,0,1,.268-.551l1.818-.066a.347.347,0,0,1,.306.161L60.229,39.754l.055.077a.347.347,0,0,1-.1.5l-.005,0A.346.346,0,0,1,60,40.383ZM45.93,20.073l7.815,10.756L46.9,20.038Z" fill="#fff"/><path d="M60,40.036,48.779,19.627l1.588-.061Z" fill="#e1cc85"/><path d="M60,40.383a.347.347,0,0,1-.3-.18L48.475,19.794a.347.347,0,0,1,.291-.514l1.588-.061a.347.347,0,0,1,.327.2l9.63,20.47a.347.347,0,0,1-.314.495ZM49.354,19.952,54.985,30.2,50.151,19.921Z" fill="#fff"/><path d="M60,40.025,38.929,49.94l-.094-1.534L60,40.026" fill="#e1cc85"/><path d="M38.929,50.287a.347.347,0,0,1-.346-.326l-.094-1.534a.347.347,0,0,1,.219-.344l21.145-8.372a.348.348,0,1,1,.276.637l-.009,0-21.043,9.9A.347.347,0,0,1,38.929,50.287Zm.268-1.651.047.772,10.6-4.988Z" fill="#fff"/><path d="M60,40.024,41.363,51.851l-.479-1.317L60,40.025" fill="#e1cc85"/><path d="M41.363,52.2a.347.347,0,0,1-.326-.228l-.479-1.317a.347.347,0,0,1,.159-.423l19.1-10.5a.347.347,0,1,1,.353.6h0L41.549,52.144A.347.347,0,0,1,41.363,52.2Zm-.051-1.5.23.632,8.938-5.672Z" fill="#fff"/><path d="M60,40.022,41.363,51.851l1.137.889Z" fill="#e1cc85"/><path d="M60,39.675a.347.347,0,0,1,.2.628L42.7,53.021a.347.347,0,0,1-.418-.007l-1.137-.889a.347.347,0,0,1,.028-.566L59.816,39.729A.345.345,0,0,1,60,39.675ZM42.508,52.306l8.369-6.081-8.913,5.656Z" fill="#fff"/><path d="M60,40.022l-.1.039.1-.032Zm-.1.039L36.16,47.776,37.592,48.9Z" fill="#e1cc85"/><path d="M60,39.675a.347.347,0,0,1,.334.252l0,.007a.347.347,0,0,1-.227.425l-.088.029L37.72,49.22a.347.347,0,0,1-.342-.049l-1.432-1.121a.347.347,0,0,1,.107-.6l23.734-7.711.086-.035A.347.347,0,0,1,60,39.675ZM37.649,48.5l11.876-4.7L36.887,47.9Z" fill="#fff"/><path d="M60,40.022,38.929,49.94l1.25.983Z" fill="#e1cc85"/><path d="M60,39.675a.347.347,0,0,1,.167.651l-19.823,10.9a.347.347,0,0,1-.382-.031l-1.25-.983a.347.347,0,0,1,.067-.587l21.073-9.918A.346.346,0,0,1,60,39.675ZM40.213,50.508l9.957-5.475L39.585,50.015Z" fill="#fff"/><path d="M60,40.033,37.128,44.4l.826,1.3L60,40.032" fill="#e1cc85"/><path d="M37.954,46.041a.347.347,0,0,1-.293-.161l-.826-1.3a.347.347,0,0,1,.228-.527L59.917,39.7a.347.347,0,1,1,.151.678h0L38.04,46.03A.347.347,0,0,1,37.954,46.041Zm-.259-1.4.416.653,11.1-2.851Z" fill="#fff"/><path d="M60,40.034,37.974,41.421l.387,1.347L60,40.034" fill="#e1cc85"/><path d="M38.361,43.115a.347.347,0,0,1-.333-.251l-.387-1.347a.347.347,0,0,1,.312-.442l22.029-1.387a.347.347,0,0,1,.065.69L38.4,43.112Zm.066-1.375.186.646L49,41.074Z" fill="#fff"/><path d="M60.006,40.035,37.974,41.421l.4-1.388Z" fill="#e1cc85"/><path d="M38.371,39.686h0l21.635,0a.347.347,0,0,1,.022.693L38,41.767a.347.347,0,0,1-.355-.442l.4-1.388A.347.347,0,0,1,38.371,39.686Zm10.611.695H38.633l-.19.664Z" fill="#fff"/><path d="M60.006,40.035l-.1.026.1-.032Zm-.1.026L36.16,47.776l.5-1.749Z" fill="#e1cc85"/><path d="M60,39.682a.347.347,0,0,1,.329.237l0,.006a.347.347,0,0,1-.243.446L60,40.394,36.267,48.106a.347.347,0,0,1-.441-.425l.5-1.749a.347.347,0,0,1,.247-.241l23.236-5.963L59.9,39.7A.347.347,0,0,1,60,39.682ZM36.672,47.245l12.642-4.108L36.938,46.314Z" fill="#fff"/><path d="M60.006,40.035,37.128,44.4l.433-1.529Z" fill="#e1cc85"/><path d="M60.006,39.688a.347.347,0,0,1,.065.688L37.193,44.738a.347.347,0,0,1-.4-.435l.433-1.529a.347.347,0,0,1,.29-.25l22.445-2.833ZM37.615,43.951,49.1,41.761,37.832,43.183Z" fill="#fff"/><path d="M60,25.685a14.461,14.461,0,0,0-1.873.131l.136,1.027a13.237,13.237,0,0,0-3.369.9l-.4-.963a14.391,14.391,0,0,0-3.246,1.88l.631.826a13.439,13.439,0,0,0-2.459,2.459l-.826-.631a14.349,14.349,0,0,0-1.873,3.246l.962.4a13.232,13.232,0,0,0-.9,3.356l-1.028-.136a14.357,14.357,0,0,0-.124,1.866,14.562,14.562,0,0,0,.124,1.88l1.028-.136a13.242,13.242,0,0,0,.9,3.363l-.963.4A14.343,14.343,0,0,0,48.6,48.791l.826-.631a13.376,13.376,0,0,0,2.459,2.459l-.631.826a14.294,14.294,0,0,0,3.246,1.88l.4-.956a13.276,13.276,0,0,0,3.363.891l-.136,1.028a14.33,14.33,0,0,0,3.747,0l-.137-1.028a13.272,13.272,0,0,0,3.357-.891l.4.956a14.337,14.337,0,0,0,3.246-1.88l-.631-.826a13.4,13.4,0,0,0,2.458-2.459l.827.631a14.324,14.324,0,0,0,1.879-3.239l-.962-.4a13.232,13.232,0,0,0,.9-3.363l1.028.136a14.559,14.559,0,0,0,.13-1.88,14.355,14.355,0,0,0-.13-1.866l-1.028.136a13.234,13.234,0,0,0-.891-3.363l.956-.4a14.349,14.349,0,0,0-1.873-3.246l-.826.631A13.44,13.44,0,0,0,68.1,29.484l.637-.826a14.391,14.391,0,0,0-3.246-1.88l-.4.963a13.275,13.275,0,0,0-3.363-.9l.137-1.027A14.3,14.3,0,0,0,60,25.685Z" fill="#d69e00" fill-rule="evenodd"/><path d="M72.279,40.048A12.281,12.281,0,1,1,60,27.767,12.282,12.282,0,0,1,72.279,40.048Z" fill="#00a4e3" fill-rule="evenodd"/><path d="M67.8,40.048A7.806,7.806,0,1,1,60,32.242,7.806,7.806,0,0,1,67.8,40.048Z" fill="#021da5" fill-rule="evenodd"/><path d="M60,32.658a3.7,3.7,0,0,0-3.52,2.557A3.692,3.692,0,0,0,54.313,41.9,3.7,3.7,0,0,0,60,46.026,3.689,3.689,0,0,0,65.678,41.9l.006-.006a3.695,3.695,0,0,0-2.173-6.681A3.692,3.692,0,0,0,60,32.658Z" fill="rgba(255,250,0,0.94)" fill-rule="evenodd"/><path d="M59.9,34.328a5.689,5.689,0,0,0-1.353.182v3.46h-.208v-3.4a5.726,5.726,0,0,0-1.353.612l-.007,2.79h-.618l.417-.52V35.323a5.714,5.714,0,0,0-2.453,4h1.308l-.332.527H54.282c0,.066-.006.13-.006.195a5.706,5.706,0,0,0,.865,3.032h3.122l-1.9,1.392a5.751,5.751,0,0,0,1.229.774l1.789-1.295v1.789a5.8,5.8,0,0,0,1.236,0V43.948L62.4,45.243a5.733,5.733,0,0,0,1.23-.774l-1.893-1.392h3.116a5.71,5.71,0,0,0,.871-3.032c0-.065,0-.129-.006-.195H64.7l-.332-.527h1.3a5.7,5.7,0,0,0-2.446-4V37.45l.417.52h-.618l-.007-2.784a5.723,5.723,0,0,0-1.353-.611v3.4h-.208V34.51a5.638,5.638,0,0,0-1.353-.182v5h.976l-.332.527h-1.5l-.332-.527H59.9Zm-2.914,5h.585l.332.527H56.65Zm5.451,0h.585l.332.527H62.1ZM55.726,41.2h3.656v.521H56.695v1.145Zm4.892,0h3.656l-.969,1.666V41.724H60.618Z" fill="rgba(255,38,0,0.94)" fill-rule="evenodd"/><path d="M56.325,28.811c-.766.122-1.689.565-1.47,2.55-.15.089-.3.184-.443.28a1.57,1.57,0,0,0-.345-1.815c-.724.279-1.54.9-.91,2.8-.126.116-.245.236-.365.358a1.579,1.579,0,0,0-.722-1.7c-.65.423-1.318,1.2-.305,2.934q-.148.207-.287.422c-.051-.63-.4-1.412-1.053-1.515-.548.549-1.04,1.448.305,2.927-.068.158-.134.32-.195.481-.181-.606-.683-1.3-1.346-1.268-.422.651-.715,1.636.91,2.8-.033.166-.066.331-.091.5-.3-.554-.934-1.122-1.574-.949-.277.724-.363,1.746,1.47,2.55,0,.176.009.352.02.527-.411-.484-1.148-.923-1.744-.618-.12.766.007,1.78,1.965,2.185q.055.25.124.495a1.572,1.572,0,0,0-1.828-.228c.041.775.38,1.748,2.38,1.737.073.157.148.309.228.462a1.575,1.575,0,0,0-1.841.149c.2.75.733,1.624,2.687,1.2.1.139.209.277.319.41a1.568,1.568,0,0,0-1.763.533c.353.692,1.056,1.438,2.881.612.131.115.261.23.4.338-.633-.016-1.454.241-1.626.885.488.6,1.33,1.182,2.94,0,.151.085.306.163.462.241-.622.117-1.365.547-1.4,1.209.6.488,1.546.882,2.876-.611a10.051,10.051,0,0,0,1.886.39l-1.333.761c-.016.328.125.4.318.4l1.841-1.1c.1,0,.2.006.306.006s.2,0,.3-.006l1.841,1.1c.194.008.335-.069.319-.4l-1.334-.761a10.045,10.045,0,0,0,1.887-.39c1.33,1.493,2.272,1.1,2.875.611-.034-.665-.775-1.094-1.4-1.209.156-.078.311-.156.462-.241,1.61,1.182,2.452.6,2.941,0-.172-.645-.993-.9-1.627-.885.138-.109.272-.222.4-.338,1.823.824,2.529.08,2.881-.612a1.577,1.577,0,0,0-1.769-.533c.11-.133.216-.271.319-.41,1.954.427,2.485-.447,2.686-1.2a1.571,1.571,0,0,0-1.841-.149c.08-.153.162-.305.235-.462,2,.009,2.333-.963,2.374-1.737a1.567,1.567,0,0,0-1.828.234c.046-.165.086-.332.124-.5,1.957-.4,2.085-1.419,1.964-2.185a1.563,1.563,0,0,0-1.737.6c.011-.17.018-.342.02-.514,1.83-.8,1.741-1.826,1.463-2.55-.639-.173-1.269.4-1.574.949-.025-.169-.058-.334-.091-.5,1.626-1.168,1.333-2.153.911-2.8-.664-.036-1.166.661-1.347,1.268-.06-.161-.12-.323-.188-.481,1.344-1.478.847-2.378.3-2.927-.656.1-1,.885-1.047,1.515-.092-.144-.194-.283-.293-.422,1.013-1.731.345-2.511-.306-2.934-.62.237-.8,1.076-.722,1.7-.12-.122-.239-.242-.364-.358.629-1.9-.187-2.518-.911-2.8a1.573,1.573,0,0,0-.345,1.815c-.144-.1-.292-.191-.442-.28.218-1.985-.7-2.428-1.47-2.55a1.573,1.573,0,0,0,.039,1.848c-.154-.061-.311-.116-.469-.169-.5-.881-2.392-1.552-3.076-.534-.055,0-.108-.006-.163-.006s-.113,0-.169.006c-.685-1.018-2.579-.347-3.077.534-.157.053-.315.108-.468.169a1.573,1.573,0,0,0,.039-1.848Zm3.656,1.555h.032c.279.89,2.312.783,3.044.5.255.085.51.175.755.28-.526.312-1.233.679-1.334,1.288.513.7,2.086-.021,2.537-.664.191.116.378.243.56.371-.579.2-1.344.4-1.568.976.355.8,2.039.41,2.615-.124q.246.232.475.482c-.607.07-1.4.117-1.737.631.181.85,1.9.823,2.583.422.128.184.255.373.37.566-.609-.056-1.4-.18-1.834.254,0,.872,1.7,1.205,2.446.95.086.205.162.418.234.631-.584-.182-1.328-.463-1.847-.13-.181.851,1.411,1.529,2.192,1.437.041.22.077.439.1.664-.533-.3-1.206-.725-1.782-.508-.354.8,1.064,1.788,1.847,1.861,0,.226-.019.454-.039.676-.459-.4-1.023-.971-1.633-.878-.512.706.668,1.982,1.418,2.212-.051.219-.109.437-.175.65-.366-.49-.8-1.16-1.418-1.2-.649.585.243,2.079.93,2.459-.095.2-.2.4-.306.592-.255-.555-.552-1.294-1.145-1.457-.754.436-.194,2.078.4,2.6-.136.178-.275.352-.423.52-.134-.6-.259-1.382-.807-1.665-.827.269-.626,1.984-.156,2.615-.17.147-.339.294-.52.429-.007-.612.029-1.41-.449-1.8-.869.092-1.022,1.821-.689,2.531-.2.107-.395.211-.6.305.12-.6.321-1.371-.065-1.854-.87-.091-1.383,1.573-1.2,2.336-.169.051-.342.1-.514.136.262-.348.307-.755-.02-.91a1.141,1.141,0,0,0-.364-.052,2.224,2.224,0,0,0-1.9,1.19A2.221,2.221,0,0,0,58.1,48.5a1.143,1.143,0,0,0-.365.052c-.327.155-.276.561-.013.91-.174-.042-.35-.085-.52-.136.18-.763-.334-2.427-1.2-2.336-.386.483-.185,1.254-.065,1.854-.2-.094-.4-.2-.6-.305.333-.71.179-2.439-.69-2.531-.478.392-.441,1.19-.448,1.8-.181-.135-.35-.282-.521-.429.47-.631.679-2.346-.149-2.615-.548.283-.68,1.069-.814,1.665-.147-.168-.287-.342-.422-.52.591-.518,1.151-2.16.4-2.6-.594.163-.883.908-1.138,1.464-.11-.2-.216-.394-.312-.6.686-.38,1.579-1.874.93-2.459-.616.037-1.053.707-1.418,1.2-.066-.213-.124-.431-.176-.65.751-.23,1.931-1.506,1.418-2.212-.609-.093-1.173.474-1.632.878-.02-.222-.028-.45-.033-.676.784-.078,2.194-1.067,1.841-1.861-.576-.217-1.25.208-1.782.508.026-.225.062-.444.1-.664.781.092,2.373-.586,2.192-1.437-.519-.333-1.264-.052-1.848.13.073-.213.155-.425.241-.631.744.253,2.439-.079,2.44-.95-.44-.434-1.226-.31-1.835-.254.115-.193.243-.382.371-.566.678.4,2.4.428,2.582-.422-.338-.514-1.13-.561-1.736-.631.153-.166.31-.327.474-.482.577.534,2.261.92,2.615.124-.224-.573-.988-.781-1.567-.976.182-.129.368-.254.559-.371.452.643,2.024,1.369,2.537.664-.1-.61-.807-.976-1.333-1.288.245-.1.5-.195.754-.28.732.282,2.764.388,3.045-.5Zm-1.9,18.448a.676.676,0,0,1,.078,0c.5.033,1.475.525,1.347.82-.013.053-.114.071-.254.065-.043,0-.087-.009-.13-.013-.551-.069-1.473-.415-1.217-.813A.262.262,0,0,1,58.081,48.814Zm3.753,0a.324.324,0,0,1,.254.059c.257.4-.665.744-1.216.813-.043,0-.087.01-.13.013-.141.006-.242-.012-.254-.065C60.359,49.339,61.333,48.847,61.834,48.814Z" fill="#d69e00"/></g></svg>