<svg xmlns="http://www.w3.org/2000/svg" width="84.908" height="66.421" viewBox="0 0 84.908 66.421"><g transform="translate(-515.987 -591.64)"><ellipse cx="10.931" cy="5.892" rx="10.931" ry="5.892" transform="matrix(0.153, -0.988, 0.988, 0.153, 518.177, 649.556)" fill="#fff"/><path d="M10.931-1.5A18.13,18.13,0,0,1,19.372.405c2.573,1.387,3.99,3.335,3.99,5.487s-1.417,4.1-3.99,5.487a18.13,18.13,0,0,1-8.441,1.905A18.13,18.13,0,0,1,2.49,11.379C-.083,9.992-1.5,8.043-1.5,5.892S-.083,1.792,2.49.405A18.13,18.13,0,0,1,10.931-1.5Zm0,11.784a15.326,15.326,0,0,0,7.017-1.546c1.534-.827,2.413-1.864,2.413-2.846s-.88-2.019-2.413-2.846A15.326,15.326,0,0,0,10.931,1.5,15.326,15.326,0,0,0,3.913,3.046C2.38,3.873,1.5,4.91,1.5,5.892s.88,2.019,2.413,2.846A15.326,15.326,0,0,0,10.931,10.284Z" transform="matrix(0.153, -0.988, 0.988, 0.153, 518.177, 649.556)" fill="#a8a8a8"/><path d="M524.494,649.475c-.052,0-.105,0-.157-.006s-.1-.01-.127-.013h0l-.056-.008c-1.256-.195-2.337-1.506-2.968-3.6a17.419,17.419,0,0,1,2.031-13.375c1.181-1.749,2.571-2.718,3.786-2.633.065,0,.131.011.195.022,1.252.2,2.33,1.51,2.959,3.6a17.42,17.42,0,0,1-2.031,13.375C526.995,648.513,525.671,649.475,524.494,649.475Zm2.21-16.47c-.746.6-2.3,2.606-2.88,6.365a13.37,13.37,0,0,0,.109,5.141,5.68,5.68,0,0,0,.709,1.8c.746-.6,2.3-2.607,2.88-6.365a13.369,13.369,0,0,0-.109-5.14A5.679,5.679,0,0,0,526.7,633.005Z" fill="#a8a8a8"/><path d="M517.487,643.663l.074-8.464a13.42,13.42,0,0,1,1.884-6.978c2.106-3.591,19.779-29.373,19.779-29.373a7.131,7.131,0,0,1,5.484-3.716c3.879-.375,30.376-1.992,30.376-1.992l20.63,2.069s1.94,4.807,2.268,14.294.342,20.557-2.6,22.544-42.462,21.466-42.462,21.466S517.433,649.816,517.487,643.663Z" fill="#fff"/><path d="M552.918,655.013a1.508,1.508,0,0,1-.155-.008c-.089-.009-9.037-.95-17.862-2.636a83.686,83.686,0,0,1-12.415-3.162c-2.8-1.023-6.524-2.712-6.5-5.557l.074-8.421a15.029,15.029,0,0,1,2.09-7.767c2.072-3.534,18.53-27.557,19.784-29.387a8.619,8.619,0,0,1,6.629-4.437c3.861-.373,29.346-1.93,30.429-2a1.492,1.492,0,0,1,.241,0l20.63,2.069a1.5,1.5,0,0,1,1.241.931c.083.206,2.043,5.163,2.376,14.8A136.985,136.985,0,0,1,599.4,623.7c-.418,5.426-1.4,8.383-3.184,9.588-2.994,2.021-41.021,20.771-42.638,21.568A1.5,1.5,0,0,1,552.918,655.013Zm22.137-60.368c-1.95.119-26.527,1.625-30.2,1.98a5.275,5.275,0,0,0-3.283,1.569,5.636,5.636,0,0,0-.994,1.3,1.5,1.5,0,0,1-.115.2c-.176.257-17.667,25.779-19.722,29.284a12.125,12.125,0,0,0-1.681,6.121q0,.055,0,.111l-.074,8.464c0,.091.155.439.878.955a15.885,15.885,0,0,0,3.644,1.755,80.747,80.747,0,0,0,11.939,3.032c7.611,1.455,15.326,2.349,17.2,2.556,11.247-5.546,39.576-19.606,41.895-21.171.139-.094.628-.528,1.089-2.185a28.08,28.08,0,0,0,.783-5.146,134.375,134.375,0,0,0,.07-13.918,51.064,51.064,0,0,0-1.879-12.95Z" fill="#a8a8a8"/><path d="M569.835,600.3a1.5,1.5,0,0,1-.193-.012l-25.628-3.321.385-2.975,25.428,3.295,25.679-3.562.412,2.972-25.879,3.59A1.5,1.5,0,0,1,569.835,600.3Z" fill="#a8a8a8"/><path d="M554.4,653.728l-2.969-.43,2.108-14.564a1.5,1.5,0,0,1,.077-.3l14.81-40.151,2.815,1.038-14.755,40Z" fill="#a8a8a8"/><path d="M553.05,647.536a55.8,55.8,0,0,1-7.047-.658,5.284,5.284,0,0,1-4.3-2.954c-.439-1.088-.592-2.871,1.178-5.189,1.4-1.837,4.022-2.574,7.785-2.191a26.567,26.567,0,0,1,4.816.976l-.908,2.859a23.865,23.865,0,0,0-4.256-.855c-2.556-.254-4.35.112-5.052,1.032s-.989,1.729-.78,2.244a2.49,2.49,0,0,0,1.97,1.111,41.266,41.266,0,0,0,7.385.591l.334,2.981A10.377,10.377,0,0,1,553.05,647.536Z" fill="#a8a8a8"/><path d="M522.337,641.036a7.617,7.617,0,0,1-2.619-.569,10.8,10.8,0,0,1-3.239-1.652l2.119-2.124a.97.97,0,0,0-.083-.075,10.269,10.269,0,0,0,2.262,1.044,3.268,3.268,0,0,0,1.788.357,2.039,2.039,0,0,0,.1-.975,3.935,3.935,0,0,0-2.445-3.135c-.722-.163-2.477-.727-2.676-.792l.921-2.855c.708.228,1.992.626,2.424.722a6.56,6.56,0,0,1,2.688,1.594,6.321,6.321,0,0,1,2.084,4.3,3.854,3.854,0,0,1-1.313,3.561A3.334,3.334,0,0,1,522.337,641.036Z" fill="#a8a8a8"/><rect width="9.117" height="4.99" transform="matrix(0.077, -0.997, 0.997, 0.077, 565.638, 629.564)" fill="#a8a8a8"/><path d="M0-1.5H9.117a1.5,1.5,0,0,1,1.5,1.5V4.99a1.5,1.5,0,0,1-1.5,1.5H0a1.5,1.5,0,0,1-1.5-1.5V0A1.5,1.5,0,0,1,0-1.5Zm7.617,3H1.5V3.49H7.617Z" transform="matrix(0.077, -0.997, 0.997, 0.077, 565.638, 629.564)" fill="#a8a8a8"/><path d="M521.78,612.905l3.79.773-.656,8.516-3.776-.961Z" fill="#a8a8a8"/><path d="M521.78,611.405a1.5,1.5,0,0,1,.3.03l3.79.773a1.5,1.5,0,0,1,1.2,1.585l-.656,8.516a1.5,1.5,0,0,1-1.865,1.339l-3.776-.961a1.5,1.5,0,0,1-1.126-1.569l.641-8.328a1.5,1.5,0,0,1,1.5-1.385Zm2.193,3.478-.828-.169-.414,5.376.825.21Z" fill="#a8a8a8"/><path d="M558.928,629.869a1.5,1.5,0,0,1-.262-.023l-35.48-6.288.524-2.954,35.138,6.227,10.174-2.929.128-12.6-3.339.575a1.5,1.5,0,0,1-.466.007l-31.188-4.446.423-2.97,30.955,4.413,4.879-.84a1.5,1.5,0,0,1,1.754,1.494l-.158,15.515a1.5,1.5,0,0,1-1.085,1.426l-11.582,3.334A1.5,1.5,0,0,1,558.928,629.869Z" fill="#a8a8a8"/><path d="M594.206,614.8l-.166-7.357-5.651,1.329-.412-7.793-7,1.209.526,8.2-6.235,1.466.141,8.735,6.618-2.039.556,8.668,6.661-2.3-.446-8.452Z" fill="#ff8e6c"/><path d="M582.581,628.72a1.5,1.5,0,0,1-1.5-1.4l-.434-6.771-4.8,1.479a1.5,1.5,0,0,1-1.942-1.409l-.141-8.735a1.5,1.5,0,0,1,1.156-1.484l5-1.176-.445-6.938a1.5,1.5,0,0,1,1.242-1.574l7-1.209a1.5,1.5,0,0,1,1.753,1.4l.317,6,3.9-.918a1.5,1.5,0,0,1,1.843,1.426l.166,7.357a1.5,1.5,0,0,1-1.058,1.467l-4.292,1.323.385,7.284a1.5,1.5,0,0,1-1.008,1.5l-6.661,2.3A1.5,1.5,0,0,1,582.581,628.72Zm-.556-11.668a1.5,1.5,0,0,1,1.5,1.4l.43,6.7,3.732-1.29-.387-7.325a1.5,1.5,0,0,1,1.056-1.513l4.327-1.333-.1-4.374-3.849.905a1.5,1.5,0,0,1-1.841-1.381l-.323-6.107-4.01.692.44,6.859a1.5,1.5,0,0,1-1.154,1.556l-5.059,1.19.089,5.529,4.708-1.451A1.5,1.5,0,0,1,582.025,617.052Z" fill="#ff8e6c"/><ellipse cx="10.931" cy="5.892" rx="10.931" ry="5.892" transform="matrix(0.153, -0.988, 0.988, 0.153, 556.143, 654.545)" fill="#fff"/><path d="M10.931-1.5A18.13,18.13,0,0,1,19.372.405c2.573,1.387,3.99,3.335,3.99,5.487s-1.417,4.1-3.99,5.487a18.13,18.13,0,0,1-8.441,1.905A18.13,18.13,0,0,1,2.49,11.379C-.083,9.992-1.5,8.043-1.5,5.892S-.083,1.792,2.49.405A18.13,18.13,0,0,1,10.931-1.5Zm0,11.784a15.326,15.326,0,0,0,7.017-1.546c1.534-.827,2.413-1.864,2.413-2.846s-.88-2.019-2.413-2.846A15.326,15.326,0,0,0,10.931,1.5,15.326,15.326,0,0,0,3.913,3.046C2.38,3.873,1.5,4.91,1.5,5.892s.88,2.019,2.413,2.846A15.326,15.326,0,0,0,10.931,10.284Z" transform="matrix(0.153, -0.988, 0.988, 0.153, 556.143, 654.545)" fill="#a8a8a8"/><ellipse cx="8.316" cy="4.482" rx="8.316" ry="4.482" transform="matrix(0.153, -0.988, 0.988, 0.153, 587.778, 639.24)" fill="#fff"/><path d="M8.316-1.5A14.155,14.155,0,0,1,14.908-.007c2.079,1.121,3.224,2.715,3.224,4.49s-1.145,3.369-3.224,4.49a14.155,14.155,0,0,1-6.592,1.493A14.155,14.155,0,0,1,1.724,8.972C-.355,7.852-1.5,6.257-1.5,4.482S-.355,1.113,1.724-.007A14.155,14.155,0,0,1,8.316-1.5Zm0,8.965a11.3,11.3,0,0,0,5.168-1.133c1.032-.556,1.647-1.247,1.647-1.849s-.616-1.293-1.647-1.849A11.3,11.3,0,0,0,8.316,1.5,11.3,11.3,0,0,0,3.147,2.633C2.116,3.189,1.5,3.881,1.5,4.482s.616,1.293,1.647,1.849A11.3,11.3,0,0,0,8.316,7.465Z" transform="matrix(0.153, -0.988, 0.988, 0.153, 587.778, 639.24)" fill="#a8a8a8"/></g></svg>