<svg xmlns="http://www.w3.org/2000/svg" width="83.002" height="59.933" viewBox="0 0 83.002 59.933"><g transform="translate(-761.5 -595.051)"><path d="M763,634.178a1.5,1.5,0,0,1-1.5-1.5V608.385c0-.1,0-.2,0-.311a20.131,20.131,0,0,1,.991-7.163,7.961,7.961,0,0,1,7.789-5.448l3.076-.055c5.091-.089,14.568-.255,16.208-.33h.023a6.788,6.788,0,0,1,5.343,1.526c1.5,1.435,2.231,3.753,2.231,7.086v23.718a1.5,1.5,0,0,1-3,0V603.689c0-2.4-.451-4.1-1.3-4.917a4.122,4.122,0,0,0-3.134-.7H789.7c-1.683.077-10.828.237-16.293.333l-3.071.055a4.981,4.981,0,0,0-5.043,3.517,17.545,17.545,0,0,0-.794,6.082c0,.115,0,.223,0,.323v24.293A1.5,1.5,0,0,1,763,634.178Z" fill="#a8a8a8"/><path d="M763.625,624.179a1.5,1.5,0,0,1-1.489-1.338c-.007-.064-.172-1.587-.256-3.236-.164-3.21.095-4.185.6-4.786a3.7,3.7,0,0,1,2.483-.994c.749-.113,1.727-.209,2.909-.283,1.975-.124,3.834-.15,3.913-.151h.02a1.5,1.5,0,0,1,.019,3c-.016,0-1.615.022-3.363.121a25.829,25.829,0,0,0-3.587.373,20.407,20.407,0,0,0,.024,2.906c.084,1.432.222,2.711.224,2.724a1.5,1.5,0,0,1-1.493,1.663Z" fill="#a8a8a8"/><path d="M38.184,17.024a1.5,1.5,0,0,1-.564-.111L-.565,1.39A1.5,1.5,0,0,1-1.39-.565,1.5,1.5,0,0,1,.565-1.39L38.749,14.134a1.5,1.5,0,0,1-.565,2.89Z" transform="translate(763.002 622.425)" fill="#a8a8a8"/><path d="M0,7.637A1.5,1.5,0,0,1-1.483,6.362,1.5,1.5,0,0,1-.225,4.654L40.3-1.483A1.5,1.5,0,0,1,42.012-.225a1.5,1.5,0,0,1-1.259,1.708L.225,7.62A1.512,1.512,0,0,1,0,7.637Z" transform="translate(801.187 631.812)" fill="#ff8e6c"/><path d="M783.549,603.545c1.991,0,4.082.092,6.213.274a1.5,1.5,0,0,1,.61.188c.21.119,5.016,2.88,6.384,7.664l1.353,1.294a1.5,1.5,0,0,1-.756,2.557,17.6,17.6,0,0,1-2.848.286,7.074,7.074,0,0,1-1.021-.066l-.659.068c-2.837.292-9.41.968-12.594,1.11l-5.828,1.608a1.5,1.5,0,0,1-.578.043,6.18,6.18,0,0,1-1.146-.268,3.067,3.067,0,0,1-2-1.661,5.089,5.089,0,0,1-.356-1.257l-.38-.559a7.172,7.172,0,0,1-2.647-3.517c-.44-1.637-.915-3.937-.935-4.034a1.5,1.5,0,0,1,1.283-1.791l3.891-.486C772.41,604.713,776.415,603.545,783.549,603.545Zm5.6,3.234c-1.924-.155-3.808-.234-5.6-.234-7.359,0-11.128,1.321-11.165,1.334a1.458,1.458,0,0,1-.325.078l-2.416.3c.163.724.362,1.574.55,2.273a4.569,4.569,0,0,0,1.668,1.98,1.446,1.446,0,0,1,.41.405l.77,1.131a1.5,1.5,0,0,1,.256.952,1.928,1.928,0,0,0,.1.363,2.426,2.426,0,0,0,.533.184l5.665-1.562a1.5,1.5,0,0,1,.339-.053c3.019-.121,9.72-.81,12.581-1.1l.864-.089a1.5,1.5,0,0,1,.445.021c.032.006.071.013.118.019C793.184,609.582,790.077,607.374,789.153,606.779Z" fill="#ff8e6c"/><path d="M841.715,632.037l1.276.208s.12-6.065-.505-7.99-.774-1.756-2.672-2.84-35.234-7-40.505-8.231c-9.675-.867-24.909,2.094-28.952,2.743s-4.477,1.083-4.621,2.239,0,6.57,0,6.57l32.37,14.681s.048-7.966.193-9.844,1.411-3.538,10.633-4.4,26.983-3.466,29.077-3.177c1.439.2,3.706,1.778,3.706,3.583Z" fill="#fff"/><path d="M798.106,640.917a1.5,1.5,0,0,1-.619-.134L765.116,626.1a1.5,1.5,0,0,1-.88-1.326c-.025-.923-.139-5.589.011-6.8a2.939,2.939,0,0,1,1.636-2.45,14.476,14.476,0,0,1,4.235-1.085c.473-.076,1.122-.188,1.874-.317,4.914-.845,15.138-2.6,23.428-2.6,1.456,0,2.809.055,4.021.164a1.5,1.5,0,0,1,.206.033c1.861.433,7.349,1.474,13.7,2.68,5.662,1.074,12.08,2.292,17.2,3.321,8.3,1.669,9.494,2.095,10.008,2.389.249.142.471.264.667.372a5.412,5.412,0,0,1,1.683,1.209,5.881,5.881,0,0,1,1,2.1c.683,2.1.591,7.837.578,8.483a1.5,1.5,0,0,1-1.741,1.451l-1.276-.208a1.5,1.5,0,0,1-1.259-1.48v-6.462c0-.818-1.459-1.966-2.411-2.1a2.4,2.4,0,0,0-.247-.008c-1.854,0-8.139.781-14.217,1.537-5.114.636-10.4,1.293-14.267,1.656-3.995.375-6.747.936-8.18,1.666-1.034.527-1.066.95-1.1,1.359-.139,1.8-.188,9.659-.189,9.738a1.5,1.5,0,0,1-1.5,1.491Zm-30.893-17.158,29.412,13.34c.026-2.524.08-6.37.178-7.641a4.421,4.421,0,0,1,2.727-3.8c1.822-.928,4.765-1.558,9.262-1.98,3.82-.359,9.085-1.013,14.177-1.646,3.163-.393,6.123-.761,8.584-1.041q-.872-.178-1.88-.381c-5.053-1.014-11.337-2.206-16.88-3.257-6.275-1.19-11.709-2.221-13.72-2.681-1.1-.095-2.326-.143-3.652-.143-8.034,0-18.088,1.729-22.92,2.559-.761.131-1.418.244-1.907.322a24.75,24.75,0,0,0-2.625.526,3.249,3.249,0,0,0-.723.27c-.006.032-.014.079-.023.147C767.143,619,767.169,621.71,767.213,623.759Z" fill="#ff8e6c"/><path d="M801.187,654.984a1.5,1.5,0,0,1-1.5-1.5V631.426c0-.215-.008-.5-.017-.827a24.173,24.173,0,0,1,.789-7.948c1.218-3.8,3.856-5.979,7.63-6.293,3.411-.284,8.5-.74,13.413-1.18,6.743-.6,13.112-1.174,14.369-1.231a6.585,6.585,0,0,1,5.049,1.534c1.545,1.476,2.3,3.889,2.3,7.378V645a1.5,1.5,0,0,1-3,0V622.859c0-2.553-.473-4.354-1.368-5.209a3.644,3.644,0,0,0-2.84-.705c-1.191.054-7.823.648-14.237,1.222-4.922.441-10.011.9-13.431,1.181-2.573.214-4.169,1.555-5.022,4.219a21.645,21.645,0,0,0-.648,6.95c.01.351.018.653.018.91v22.058A1.5,1.5,0,0,1,801.187,654.984Z" fill="#a8a8a8"/><path d="M815.825,611.9l.289,19.652,12.449-1.772V611.064Z" fill="#ff8e6c"/></g></svg>