<svg xmlns="http://www.w3.org/2000/svg" width="83" height="78.612" viewBox="0 0 83 78.612"><g transform="translate(-1001.501 -579.218)"><path d="M3.489-1.5A4.989,4.989,0,1,1-1.5,3.489,4.995,4.995,0,0,1,3.489-1.5Zm0,6.978A1.989,1.989,0,1,0,1.5,3.489,1.991,1.991,0,0,0,3.489,5.478Z" transform="translate(1036.324 580.718)" fill="#ff8e6c"/><path d="M4.187-1.5A5.687,5.687,0,1,1-1.5,4.187,5.693,5.693,0,0,1,4.187-1.5Zm0,8.373A2.687,2.687,0,1,0,1.5,4.187,2.69,2.69,0,0,0,4.187,6.873Z" transform="translate(1027.168 619.578)" fill="#ff8e6c"/><path d="M4.652-1.5A6.152,6.152,0,1,1-1.5,4.652,6.159,6.159,0,0,1,4.652-1.5Zm0,9.3A3.152,3.152,0,1,0,1.5,4.652,3.155,3.155,0,0,0,4.652,7.8Z" transform="translate(1047.966 626.008)" fill="#ff8e6c"/><path d="M3.489-1.5A4.989,4.989,0,1,1-1.5,3.489,4.995,4.995,0,0,1,3.489-1.5Zm0,6.978A1.989,1.989,0,1,0,1.5,3.489,1.991,1.991,0,0,0,3.489,5.478Z" transform="translate(1003.001 613.481)" fill="#ff8e6c"/><path d="M3.489-1.5A4.989,4.989,0,1,1-1.5,3.489,4.995,4.995,0,0,1,3.489-1.5Zm0,6.978A1.989,1.989,0,1,0,1.5,3.489,1.991,1.991,0,0,0,3.489,5.478Z" transform="translate(1046.744 648.59)" fill="#ff8e6c"/><path d="M3.489-1.5A4.989,4.989,0,1,1-1.5,3.489,4.995,4.995,0,0,1,3.489-1.5Zm0,6.978A1.989,1.989,0,1,0,1.5,3.489,1.991,1.991,0,0,0,3.489,5.478Z" transform="translate(1022.229 649.352)" fill="#ff8e6c"/><path d="M3.489-1.5A4.989,4.989,0,1,1-1.5,3.489,4.995,4.995,0,0,1,3.489-1.5Zm0,6.978A1.989,1.989,0,1,0,1.5,3.489,1.991,1.991,0,0,0,3.489,5.478Z" transform="translate(1076.023 609.072)" fill="#ff8e6c"/><path d="M10.183,2.908a1.513,1.513,0,0,1-.207-.014L-.205,1.486A1.5,1.5,0,0,1-1.486-.205,1.5,1.5,0,0,1,.205-1.486L10.387-.078a1.5,1.5,0,0,1-.2,2.986Z" transform="translate(1009.916 617.443)" fill="#ff8e6c"/><path d="M1.192,11.828A1.5,1.5,0,0,1-.3,10.5L-1.49.172A1.5,1.5,0,0,1-.172-1.49,1.5,1.5,0,0,1,1.49-.172L2.684,10.156a1.5,1.5,0,0,1-1.318,1.662A1.517,1.517,0,0,1,1.192,11.828Z" transform="translate(1040.216 587.696)" fill="#ff8e6c"/><path d="M0,3.774A1.5,1.5,0,0,1-1.447,2.668,1.5,1.5,0,0,1-.394.826L7.947-1.447A1.5,1.5,0,0,1,9.789-.394,1.5,1.5,0,0,1,8.736,1.447L.394,3.721A1.5,1.5,0,0,1,0,3.774Z" transform="translate(1067.681 613.511)" fill="#ff8e6c"/><path d="M.523,4.1A1.5,1.5,0,0,1-.945,2.9L-1.47.3A1.5,1.5,0,0,1-.3-1.47,1.5,1.5,0,0,1,1.47-.3L2,2.306A1.5,1.5,0,0,1,.523,4.1Z" transform="translate(1049.018 646.056)" fill="#ff8e6c"/><path d="M0,8.316A1.493,1.493,0,0,1-.775,8.1a1.5,1.5,0,0,1-.51-2.059L2.825-.775a1.5,1.5,0,0,1,2.059-.51A1.5,1.5,0,0,1,5.395.775L1.285,7.591A1.5,1.5,0,0,1,0,8.316Z" transform="translate(1027.52 643.036)" fill="#ff8e6c"/><path d="M24.334-1.5A25.827,25.827,0,0,1,42.6,42.6,25.834,25.834,0,1,1,14.278.531,25.674,25.674,0,0,1,24.334-1.5Zm0,48.669A22.834,22.834,0,1,0,1.5,24.334,22.86,22.86,0,0,0,24.334,47.169Z" transform="translate(1019.869 597.864)" fill="#a8a8a8"/><path d="M4.187-1.5A5.687,5.687,0,1,1-1.5,4.187,5.693,5.693,0,0,1,4.187-1.5Zm0,8.373A2.687,2.687,0,1,0,1.5,4.187,2.69,2.69,0,0,0,4.187,6.873Z" transform="translate(1019.476 594.653)" fill="#ff8e6c"/><path d="M4.058-1.5A5.558,5.558,0,1,1-1.5,4.058,5.564,5.564,0,0,1,4.058-1.5Zm0,8.116A2.558,2.558,0,1,0,1.5,4.058,2.561,2.561,0,0,0,4.058,6.616Z" transform="translate(1012.414 629.902)" fill="#ff8e6c"/><path d="M4.187-1.5A5.687,5.687,0,1,1-1.5,4.187,5.693,5.693,0,0,1,4.187-1.5Zm0,8.373A2.687,2.687,0,1,0,1.5,4.187,2.69,2.69,0,0,0,4.187,6.873Z" transform="translate(1061.008 590.95)" fill="#ff8e6c"/><path d="M4.187-1.5A5.687,5.687,0,1,1-1.5,4.187,5.693,5.693,0,0,1,4.187-1.5Zm0,8.373A2.687,2.687,0,1,0,1.5,4.187,2.69,2.69,0,0,0,4.187,6.873Z" transform="translate(1067.926 634.565)" fill="#ff8e6c"/><path d="M0,3.214A1.5,1.5,0,0,1-1.381,2.3,1.5,1.5,0,0,1-.586.333L3.449-1.381a1.5,1.5,0,0,1,1.967.794,1.5,1.5,0,0,1-.794,1.967L.586,3.094A1.5,1.5,0,0,1,0,3.214Z" transform="translate(1020.207 630.66)" fill="#ff8e6c"/><path d="M5.374,7.607A1.5,1.5,0,0,1,4.247,7.1L-1.126.991A1.5,1.5,0,0,1-.991-1.126a1.5,1.5,0,0,1,2.117.135L6.5,5.116A1.5,1.5,0,0,1,5.374,7.607Z" transform="translate(1026.427 601.982)" fill="#ff8e6c"/><path d="M0,11.264a1.493,1.493,0,0,1-.919-.315,1.5,1.5,0,0,1-.265-2.1L6.393-.92a1.5,1.5,0,0,1,2.1-.265A1.5,1.5,0,0,1,8.763.92L1.185,10.683A1.5,1.5,0,0,1,0,11.264Z" transform="translate(1055.051 598.443)" fill="#ff8e6c"/><path d="M8.953,6.815a1.493,1.493,0,0,1-.764-.21L-.766,1.29A1.5,1.5,0,0,1-1.29-.766,1.5,1.5,0,0,1,.766-1.29L9.72,4.025a1.5,1.5,0,0,1-.767,2.79Z" transform="translate(1059.558 631.299)" fill="#ff8e6c"/></g></svg>