<svg xmlns="http://www.w3.org/2000/svg" width="83" height="52.286" viewBox="0 0 83 52.286"><g transform="translate(-281.5 -593.866)"><path d="M74.154,1.5H0A1.5,1.5,0,0,1-1.5,0,1.5,1.5,0,0,1,0-1.5H74.154a1.5,1.5,0,0,1,1.5,1.5A1.5,1.5,0,0,1,74.154,1.5Z" transform="translate(283 602.926)" fill="#ff8e6c"/><path d="M74.154,1.5H0A1.5,1.5,0,0,1-1.5,0,1.5,1.5,0,0,1,0-1.5H74.154a1.5,1.5,0,0,1,1.5,1.5A1.5,1.5,0,0,1,74.154,1.5Z" transform="translate(283 630.776)" fill="#ff8e6c"/><path d="M4-1.5H70.154a5.506,5.506,0,0,1,5.5,5.5V39.345a5.506,5.506,0,0,1-5.5,5.5H4a5.506,5.506,0,0,1-5.5-5.5V4A5.506,5.506,0,0,1,4-1.5ZM70.154,41.845a2.5,2.5,0,0,0,2.5-2.5V4a2.5,2.5,0,0,0-2.5-2.5H4A2.5,2.5,0,0,0,1.5,4V39.345a2.5,2.5,0,0,0,2.5,2.5Z" transform="translate(283 595.366)" fill="#a8a8a8"/><path d="M0-1.5H23.609a1.5,1.5,0,0,1,1.5,1.5V4.628a1.5,1.5,0,0,1-1.5,1.5H0a1.5,1.5,0,0,1-1.5-1.5V0A1.5,1.5,0,0,1,0-1.5Zm22.109,3H1.5V3.128H22.109Z" transform="translate(308.272 638.711)" fill="#a8a8a8"/><path d="M41.289,1.5H0A1.5,1.5,0,0,1-1.5,0,1.5,1.5,0,0,1,0-1.5H41.289a1.5,1.5,0,0,1,1.5,1.5A1.5,1.5,0,0,1,41.289,1.5Z" transform="translate(299.432 643.339)" fill="#a8a8a8"/><path d="M363,641.579l-7.869-10.83,4.17-3.029L339.292,613.4l7.44,23.456,4.17-3.029,7.869,10.83Z" fill="#fff"/><path d="M358.771,646.152a1.5,1.5,0,0,1-1.215-.618l-6.987-9.617-2.956,2.148a1.5,1.5,0,0,1-2.311-.76l-7.44-23.456a1.5,1.5,0,0,1,2.3-1.673L360.174,626.5a1.5,1.5,0,0,1,.009,2.433l-2.956,2.148,6.987,9.617a1.5,1.5,0,0,1-.332,2.1l-4.23,3.073A1.493,1.493,0,0,1,358.771,646.152Zm-7.87-13.83a1.5,1.5,0,0,1,1.214.618l6.987,9.617,1.8-1.31-6.987-9.617a1.5,1.5,0,0,1,.332-2.1l2.487-1.807-14.652-10.489,5.448,17.176,2.487-1.807A1.5,1.5,0,0,1,350.9,632.322Z" fill="#ff8e6c"/><path d="M318.225,624.365a1.5,1.5,0,0,1-1.061-.439l-5.826-5.826a1.5,1.5,0,0,1,2.121-2.121l4.765,4.765,10.591-10.591a1.5,1.5,0,0,1,2.121,2.121l-11.652,11.652A1.5,1.5,0,0,1,318.225,624.365Z" fill="#ff8e6c"/></g></svg>