<svg xmlns="http://www.w3.org/2000/svg" xmlns:xlink="http://www.w3.org/1999/xlink" width="213.103" height="55" viewBox="0 0 213.103 55"><defs><clipPath id="a"><rect width="213.103" height="55" fill="none"/></clipPath></defs><g clip-path="url(#a)"><path d="M92.13,24.583A18.245,18.245,0,0,1,99.4,30.016V18.98L72.094.357,90.717,18.98v5c.484.193.953.4,1.413.607" transform="translate(-44.784 -0.222)" fill="#549edf"/><path d="M83.572,64.4c4.537,1.9,7.146,4.709,7.146,6.919V81.668l3.249,7.851h5.438v-18.2c0-3.617-3.344-6.873-8.687-9.159A48.593,48.593,0,0,0,72.1,58.8v3.476A29.877,29.877,0,0,1,83.572,64.4" transform="translate(-44.784 -36.525)" fill="#549edf"/><path d="M75.3,25.388v2.173h8.121V25.535l-2.039-2.317H74.788Z" transform="translate(-46.457 -14.422)" fill="#549edf"/><path d="M74.789,23.217l.512,4.344V25.388Z" transform="translate(-46.457 -14.422)" fill="#549edf"/><path d="M163.617,44.389a6.867,6.867,0,0,0-1.5.164,5.966,5.966,0,0,1-.574-1.285,3.613,3.613,0,0,0,1.559.328h2.6v-4.1c-.054-.82-.109-1.613-.219-2.434q1.272.164,2.707.41c.711.137,1.066.3,1.066.52,0,.191-.164.3-.464.355-.492.164-.739.3-.739.383V43.6h.328a9.026,9.026,0,0,1,1.34-1.477h.137a6.072,6.072,0,0,1,1.285,1.149c.328.356.519.6.519.766,0,.246-.137.355-.41.355h-3.2v2.024a8.084,8.084,0,0,1,3.391,2.543,13.32,13.32,0,0,0,2.79-5.552c2.16.711,3.254,1.121,3.254,1.285,0,.328-.438.52-1.286.6a12.23,12.23,0,0,1-4.512,4.348c0,.082.027.137.027.192a1.248,1.248,0,0,1-.438,1.094,1.2,1.2,0,0,1-.738.246c-.575,0-.958-.547-1.176-1.641a6.028,6.028,0,0,0-1.313-2.571v8.5c.055,2.871.082,4.868.137,6.071q0,.656-1.723.656c-.574,0-.848-.164-.848-.492.028-1.012.055-3.09.082-6.317v-5.8a18.938,18.938,0,0,1-4.211,6.289.6.6,0,0,1-.355-.328,29.769,29.769,0,0,0,4.211-11.157ZM184.182,50.3c-.027.246-.137.383-.355.383-.328,0-.793,0-1.45-.055a23.547,23.547,0,0,1-2.844,5.086,1.746,1.746,0,0,0,.355.274,16.865,16.865,0,0,0,6.208,3.391,4.943,4.943,0,0,1-.137.519,1.23,1.23,0,0,0-.957.492,3.461,3.461,0,0,0-.574.93c-.164.246-.3.383-.465.41-.766-.082-2.16-.984-4.239-2.68a14.83,14.83,0,0,1-1.559-1.722,15.759,15.759,0,0,1-7.958,4.4,1.142,1.142,0,0,0-.109-.41,20.558,20.558,0,0,0,6.782-5.743,15.119,15.119,0,0,1-2.6-6.727l.6-.109a12.564,12.564,0,0,0,2.954,5.387,21.517,21.517,0,0,0,2.57-6.426c2.516,1.449,3.774,2.324,3.774,2.6m.109-9.927c1.067.9,1.614,1.477,1.614,1.723,0,.273-.109.383-.3.383H175.185a12.4,12.4,0,0,0-3.555.3c-.191-.465-.41-.93-.629-1.395a18.8,18.8,0,0,0,3.692.246h7.137a7.994,7.994,0,0,1,1.641-1.7c.055,0,.136.027.219.027a5.937,5.937,0,0,1,.6.41M179.15,39.6a4.406,4.406,0,0,1-.109.957,1.1,1.1,0,0,1-1.067.766q-.492,0-1.312-1.477a8.556,8.556,0,0,0-1.914-2.407.613.613,0,0,0,.191-.328c2.707.274,4.1,1.121,4.211,2.489M185.6,47.4a2.034,2.034,0,0,1-.328,1.34.934.934,0,0,1-.766.3c-.492,0-.984-.547-1.532-1.7a11.6,11.6,0,0,0-3.391-3.582.858.858,0,0,1,.137-.274c3.8,1.094,5.77,2.406,5.88,3.911" transform="translate(-100.091 -23.021)" fill="#0070ad"/><path d="M250.391,42.434h6.235l-.027-2.516c-.055-.875-.137-1.668-.192-2.352,2.516.246,3.883.547,4.1.93,0,.356-.438.629-1.258.821l-.082,3.118h5.415c.766-.875,1.285-1.313,1.586-1.34a4.937,4.937,0,0,1,1.586.875c.711.547,1.066.957,1.066,1.176,0,.191-.164.383-.438.547a3.684,3.684,0,0,0-.766.656V48.04c.082,1.422.137,2.352.137,2.789,0,.656-.52.984-1.5.984-.766,0-1.175-.164-1.2-.547V50.091H258.7a19.434,19.434,0,0,1-.6,2.9,9.245,9.245,0,0,1-1.75,3.692,26.488,26.488,0,0,0,10.365,2.079c1.066.055,2.133.082,3.172.082v.52a1.632,1.632,0,0,0-.711.492,2.921,2.921,0,0,0-.6,1.313c-.109.465-.356.711-.711.711a28.031,28.031,0,0,1-11.978-3.2,8.157,8.157,0,0,1-.875-.629,18.129,18.129,0,0,1-9.626,4.184c-.027-.055-.109-.164-.219-.383,3.828-1.559,6.591-3.227,8.259-5.086a20.49,20.49,0,0,1-3.337-3.938l.547-.082a16.722,16.722,0,0,0,3.719,2.926,13.287,13.287,0,0,0,1.942-5.578h-5.743v.875c-.137.6-.684.875-1.613.875-.6,0-.958-.082-1.067-.3,0-1.586.028-3.172.109-4.7V43.774a10.765,10.765,0,0,0-.219-2.352Zm5.989,6.946a40.669,40.669,0,0,0,.274-4.676l-.027-1.586h-6.071V49.38Zm2.707-4.157c-.055,1.641-.164,3.008-.3,4.157h6.262V43.117h-5.907Z" transform="translate(-152.294 -23.335)" fill="#0070ad"/><path d="M338.342,42.067a20.7,20.7,0,0,1-5.333,4.786,6.65,6.65,0,0,0,.055.985c0,.274-.109.383-.273.383-.383,0-1.231-.957-2.571-2.926a47.893,47.893,0,0,0,7.985-3.664,1,1,0,0,1,.137.438m1.832,16.408c.683.492,1.039.793,1.039.93,0,.164-.109.246-.3.3a11.433,11.433,0,0,0-1.367-.137c-1.887,1.176-4.841,1.969-8.888,2.407,0-.246-.028-.355-.082-.355a17.654,17.654,0,0,0,8.067-4.157c.246.164.766.52,1.532,1.012M336.729,40.4a3.617,3.617,0,0,1-.109.875.993.993,0,0,1-1.012.711c-.355,0-.848-.52-1.477-1.586a9.143,9.143,0,0,0-2.161-2.57.61.61,0,0,0,.192-.328c2.926.355,4.458,1.312,4.567,2.9m-.437,7.384h11.075c.711-.629,1.176-.957,1.449-.957a4.577,4.577,0,0,1,1.477.821c.656.492,1.012.875,1.012,1.094,0,.164-.137.328-.356.492a2.826,2.826,0,0,0-.656.629v4.075c.109,1.586.164,2.626.164,3.063,0,.6-.492.93-1.422.93-.711,0-1.093-.164-1.121-.492v-.492H336.865v.219c-.109.547-.629.821-1.5.821-.547,0-.875-.082-.985-.274,0-1.7.027-3.336.109-4.977V49.478a12.046,12.046,0,0,0-.219-2.461Zm11.622.683H336.865V50.6h11.048Zm0,2.871H336.865v2.106h11.048Zm0,2.817H336.865v2.078h11.048ZM345.07,38.321c0,.219-.547.383-1.586.52-.219.355-.437.683-.656,1.012h7.247a8.069,8.069,0,0,1,1.421-1.231,4.312,4.312,0,0,1,1.586.985,5.474,5.474,0,0,1,1.012,1.039c0,.191-.137.328-.383.383a4,4,0,0,1-1.176.219,11.727,11.727,0,0,1-2.79,1.86H349.2a22.054,22.054,0,0,0,.957-2.543h-3.528a.282.282,0,0,1-.027.109,5.389,5.389,0,0,0,2.051,2.571,11.575,11.575,0,0,0,5.606,2.024,1.369,1.369,0,0,1-.137.438,1.348,1.348,0,0,0-.656.383,1.918,1.918,0,0,0-.438.684q-.245.82-.656.82a9.684,9.684,0,0,1-3.828-2.105,5.825,5.825,0,0,1-2.188-3.665,3.458,3.458,0,0,1-.438,1.039c-1.23,2.3-3.965,3.773-8.231,4.375-.027-.055-.109-.164-.219-.328q4.758-1.313,6.317-4.43a5.9,5.9,0,0,0,.52-1.914h-2a11.055,11.055,0,0,1-.875,1.039,11.648,11.648,0,0,1-3.09,2.57,3.039,3.039,0,0,0-.246-.3,15.921,15.921,0,0,0,3.473-7.028c2.324.683,3.5,1.176,3.5,1.477m7.3,22.834a.793.793,0,0,1-.438.821,1.887,1.887,0,0,1-.356.055,5.28,5.28,0,0,1-2.324-1.094,14.011,14.011,0,0,0-5.5-2.707.71.71,0,0,1,.082-.3c.137.027.629.027,1.477.027q7.056.288,7.055,3.2" transform="translate(-205.127 -22.887)" fill="#0070ad"/><path d="M423.442,45.538a8.855,8.855,0,0,1,1.641,1.7c0,.219-.082.328-.219.328h-4.458v1.394c2.6,1.094,3.91,2.16,3.91,3.2,0,.847-.355,1.285-1.039,1.285a.87.87,0,0,1-.984-.985,2.219,2.219,0,0,0-.41-1.039,15.985,15.985,0,0,0-1.067-1.449c-.164-.164-.3-.273-.41-.383v5.77c.055,2.9.082,4.9.109,6.071,0,.437-.574.656-1.7.656-.574,0-.848-.164-.848-.492.027-1.012.055-3.09.082-6.317V52.457A17.454,17.454,0,0,1,413.46,57.9a.556.556,0,0,1-.355-.3,23.64,23.64,0,0,0,4.622-10.036H416.2a12.48,12.48,0,0,0-2.626.219c-.109-.3-.219-.656-.383-1.094a17.838,17.838,0,0,0,3.008.191h1.859V39.495c-.055-.821-.136-1.614-.246-2.434.875.109,1.777.246,2.735.41.683.137,1.039.3,1.039.52,0,.191-.164.3-.465.355-.492.164-.711.3-.711.383v8.149h1.067a12.932,12.932,0,0,1,1.175-1.422.545.545,0,0,1,.3-.191,1.523,1.523,0,0,1,.492.273m-6.427-1.887a1.379,1.379,0,0,1-.465,1.2,1.292,1.292,0,0,1-.82.274c-.383,0-.629-.629-.793-1.914a9.732,9.732,0,0,0-1.067-3.364,3.763,3.763,0,0,1,.3-.274c1.887,1.422,2.844,2.789,2.844,4.075m8.012-3.528c.492.219.766.355.793.465q0,.247-.41.328a7.722,7.722,0,0,0-.847.246,6.689,6.689,0,0,1-2.926,3.829l-.3-.137a14.4,14.4,0,0,0,1.368-5.579c1.039.356,1.8.629,2.324.848m9.243-2.571c.683.109,1.039.3,1.039.52,0,.164-.164.3-.465.355-.492.164-.711.3-.711.383V52.7c.137-.027.274-.055.383-.082.575-1.614.958-2.434,1.149-2.434a4.947,4.947,0,0,1,1.313.93c.656.656,1.012,1.066,1.012,1.23,0,.219-.164.328-.437.328-1.258.3-2.407.574-3.419.793v2.079c.055,2.871.082,4.867.11,6.071,0,.438-.574.656-1.7.656-.6,0-.875-.164-.875-.492.055-1.012.082-3.09.109-6.317V54.016c-1.586.356-2.844.629-3.773.793a39.018,39.018,0,0,0-4.348,1.121,5.492,5.492,0,0,1-.847-1.285,37.168,37.168,0,0,0,6.1-.9q1.395-.247,2.871-.575V39.577c-.055-.821-.137-1.641-.246-2.434.875.109,1.777.246,2.735.41m-4.485,12.525a1.407,1.407,0,0,1-.52,1.258,1.267,1.267,0,0,1-.875.3c-.656,0-1.094-.629-1.34-1.887a7.2,7.2,0,0,0-1.887-3.391,1.2,1.2,0,0,1,.328-.3c2.844,1.422,4.293,2.762,4.293,4.02m.93-6.618a1.439,1.439,0,0,1-.519,1.258,1.314,1.314,0,0,1-.875.3c-.656,0-1.094-.6-1.367-1.8a6.99,6.99,0,0,0-1.887-3.254c.082-.055.191-.164.328-.274,2.871,1.313,4.321,2.571,4.321,3.774" transform="translate(-256.614 -23.022)" fill="#0070ad"/><path d="M521.742,42.192c-.027.191-.109.3-.274.328a7.1,7.1,0,0,0-1.531.274,15.421,15.421,0,0,1-2.324,1.066c-.054,0-.082-.027-.082-.055a1.506,1.506,0,0,1-.219-.164v-.027a11.5,11.5,0,0,0,.52-1.832H500.713v.164c0,2.324-.793,3.5-2.324,3.555-.985,0-1.5-.328-1.531-1.012a1.991,1.991,0,0,1,.191-.957,4.405,4.405,0,0,1,1.231-1.066,4.9,4.9,0,0,0,1.641-3.227h.465c.109.6.219,1.23.273,1.887h16.873c.875-1.094,1.476-1.668,1.75-1.7.109.055.274.164.519.3,1.285,1.258,1.942,2.078,1.942,2.461M516.929,53.24q1.723,1.476,1.723,1.887c0,.246-.109.355-.273.355h-7.931v4.348h6.809a8.62,8.62,0,0,1,1.777-1.887h.247a6.1,6.1,0,0,1,.656.465c1.149.985,1.75,1.586,1.75,1.86,0,.246-.109.383-.3.383H503.994a32.058,32.058,0,0,0-5.961.3,8.041,8.041,0,0,0-.629-1.395,61.432,61.432,0,0,0,6.809.274h3.637V55.482h-2.516a17.225,17.225,0,0,0-4.457.328c-.191-.465-.41-.93-.656-1.422a27.8,27.8,0,0,0,4.813.273h2.817v-.109a23.73,23.73,0,0,0-.164-3.117c2.735.383,4.129.738,4.129,1.066,0,.246-.164.41-.492.465-.574.246-.875.465-.875.629v1.066h3.8a7.994,7.994,0,0,1,1.777-1.887c.055,0,.136.027.219.027a7.02,7.02,0,0,1,.684.438m-.027-9.981a3.745,3.745,0,0,0,.41.355.736.736,0,0,0,.219.191c.629.6.957.985.957,1.176,0,.274-.109.383-.274.383h-9.489a14.311,14.311,0,0,1-3.692,4.129q5.21-.082,9.681-.575a12.732,12.732,0,0,0-2.488-2.516,1.454,1.454,0,0,1,.191-.355c3.746,1.094,5.688,2.406,5.8,3.938a2.221,2.221,0,0,1-.41,1.559,1.117,1.117,0,0,1-.875.355c-.465,0-.957-.574-1.449-1.777a5.214,5.214,0,0,0-.328-.574,67.116,67.116,0,0,1-13.29,2.27c-.191.93-.383,1.394-.6,1.394-.109,0-.3-.328-.574-1.039a30.731,30.731,0,0,1-.9-2.953c1.094.137,2.243.219,3.446.274h.656a13.385,13.385,0,0,0,1.668-4.129,14.145,14.145,0,0,0-3.993.328,12.6,12.6,0,0,0-.629-1.422,25.452,25.452,0,0,0,4.622.274h8.86a9.049,9.049,0,0,1,1.669-1.723c.055,0,.109.028.191.028a5.968,5.968,0,0,1,.629.41m-6.809-5.524a2.07,2.07,0,0,1,1.2,1.887c0,.93-.547,1.368-1.586,1.368a1.9,1.9,0,0,1-1.914-1.395,3.718,3.718,0,0,0-2.625-2.188c.054-.027.082-.109.109-.246a7.536,7.536,0,0,0,.93-.027,10.6,10.6,0,0,1,3.883.6" transform="translate(-308.639 -23.066)" fill="#0070ad"/><path d="M167.581.873c.3.265.455.436.455.5,0,.095-.038.133-.1.133h-1.486v.738h.331a2.172,2.172,0,0,1,.426-.407c.019,0,.038.009.057.009.047.028.1.066.161.1.265.237.407.388.407.455,0,.085-.038.123-.1.123h-1.278v.833h.492a2.236,2.236,0,0,1,.473-.464c.019,0,.038.009.057.009a1.35,1.35,0,0,1,.18.114c.3.265.455.426.455.5,0,.094-.038.132-.1.132h-2.841a2.7,2.7,0,0,0-.975.1c-.066-.161-.142-.322-.227-.492a3.672,3.672,0,0,0,1.022.095h.691V2.53h-.208a1.523,1.523,0,0,0-.767.114c-.066-.161-.142-.322-.227-.492a2.222,2.222,0,0,0,.8.095h.407V1.507h-.407a2.112,2.112,0,0,0-.909.114,4.566,4.566,0,0,0-.227-.492,3.08,3.08,0,0,0,.937.095h.606V1.062a8.042,8.042,0,0,0-.047-.937c.824.123,1.241.227,1.241.322,0,.075-.057.123-.152.142-.17.076-.265.133-.265.189v.445h.426a2.114,2.114,0,0,1,.473-.473c.019,0,.038.009.066.009l.17.114M165.2,4.4h1.42a1.6,1.6,0,0,1,.436-.388,1.128,1.128,0,0,1,.464.227c.246.17.379.294.379.379,0,.057-.057.123-.17.18a.6.6,0,0,0-.208.189V7.775a.92.92,0,0,1-.824.966c-.056,0-.095-.057-.113-.17a.773.773,0,0,0-.3-.464,1.58,1.58,0,0,0-.407-.218.752.752,0,0,0,.009-.133,3.027,3.027,0,0,0,.644.047c.133,0,.208-.066.208-.18V6.81h-1.354V8.476c-.038.17-.2.265-.474.265-.18,0-.284-.038-.322-.095,0-.719.009-1.411.028-2.092V5.191a5.522,5.522,0,0,0-.066-1.042Zm1.534.246h-1.354v.786h1.354Zm0,1.032h-1.354v.881h1.354Zm4.97-2.566c.209.189.322.313.322.379,0,.047-.038.095-.1.142-.047.038-.114.095-.2.17V4.49h.066q.312-.554.4-.568c.038,0,.123.1.256.313a1.409,1.409,0,0,1,.217.388c0,.095-.038.152-.1.152h-.833v.634c.028.379.047.7.047.975,0,.152-.189.237-.549.255-.171,0-.256-.056-.256-.17V6.156h-.748V7.785a.977.977,0,0,1-.88,1.079c-.066,0-.123-.095-.161-.275a.622.622,0,0,0-.435-.454,2.215,2.215,0,0,0-.568-.227.419.419,0,0,1,.019-.142c.227.019.558.047,1,.076.17,0,.256-.066.256-.218V6.166c-.454.019-.833.047-1.117.076-.066-.152-.114-.294-.152-.407a11.694,11.694,0,0,0,1.269.057V4.774a7.121,7.121,0,0,0-1.3.076,3.426,3.426,0,0,1-.189-.483,10.608,10.608,0,0,0,1.468.123h.019V3.477a5.7,5.7,0,0,0-1.07.076c-.038-.114-.076-.246-.114-.379a6.228,6.228,0,0,0,1.212.066H170.8c.246-.246.407-.369.5-.369a1.214,1.214,0,0,1,.4.237m.682-2.244a.119.119,0,0,1-.133.1c-.171-.009-.341-.028-.5-.047a27.433,27.433,0,0,1-3.7.17.5.5,0,0,1-.009-.133,14.722,14.722,0,0,0,3.446-.8c.6.407.9.644.9.71m-3.522.89a1.031,1.031,0,0,1,.474.833.385.385,0,0,1-.133.341.342.342,0,0,1-.227.066c-.17,0-.275-.161-.331-.492a3.705,3.705,0,0,0-.218-.653,1.442,1.442,0,0,0-.218-.284.854.854,0,0,0,.067-.085,1.778,1.778,0,0,1,.587.275m1.543.729c-.019.322-.151.474-.4.474-.18,0-.265-.095-.265-.294V2.53c0-.076.009-.161.019-.255a1.968,1.968,0,0,0-.246-.862c.057-.019.095-.038.095-.057.53.369.8.748.8,1.127m-.189,2.007h.748V3.477h-.748Zm0,1.411h.748V4.773h-.748Zm2.055-4.289c0,.076-.17.123-.493.152a3.987,3.987,0,0,1-1.051,1.288.333.333,0,0,1-.114-.019,5.606,5.606,0,0,0,.559-1.9c.729.218,1.1.379,1.1.483" transform="translate(-101.846 -0.078)" fill="#549edf"/><path d="M291.673,3.192h2.906c.3-.35.492-.53.568-.53a1.665,1.665,0,0,1,.474.265c.3.208.464.35.464.445a.179.179,0,0,1-.114.152,1.942,1.942,0,0,0-.331.275V8.362h.4a3.321,3.321,0,0,1,.663-.71c.019,0,.047.009.086.009a1.547,1.547,0,0,1,.246.161c.436.36.653.587.653.7,0,.076-.038.123-.095.123h-6.325a11.713,11.713,0,0,0-2.159.113c-.066-.17-.142-.331-.217-.492.4.047,1.041.076,1.913.095V3.647c-.01-.208-.038-.5-.076-.89.35.17.663.313.947.436m5.416-1.647c.284.265.436.436.436.511,0,.095-.095.151-.284.151a2.272,2.272,0,0,0-.284.047,6.374,6.374,0,0,1-1.089.682.343.343,0,0,1-.123-.085,3.209,3.209,0,0,0,.331-.871H290.5V1.99c0,.833-.265,1.259-.776,1.278-.341,0-.521-.114-.53-.35a.6.6,0,0,1,.075-.331,1.713,1.713,0,0,1,.407-.388,1.752,1.752,0,0,0,.549-1.146c.1.009.161.009.171.009q.056.327.085.682h5.511a2.315,2.315,0,0,1,.6-.568,2.284,2.284,0,0,1,.5.369m-2.357,1.9H291.7V4.8h3.03Zm0,1.61H291.7V6.468h3.03Zm0,1.657H291.7V8.362h3.03Zm-.966-5.6a1.2,1.2,0,0,1-.047.35.391.391,0,0,1-.388.284c-.114,0-.284-.142-.492-.436a3.012,3.012,0,0,0-.72-.71c.038-.019.057-.066.076-.123,1.013.075,1.533.294,1.571.634" transform="translate(-179.453 -0.295)" fill="#549edf"/><path d="M421.9,2.481c.435.36.654.6.654.7s-.038.133-.1.133H419a5.574,5.574,0,0,0,2.6,3.844,3.57,3.57,0,0,0,1.051.492.555.555,0,0,1-.038.189,1.216,1.216,0,0,0-.312.114,1.006,1.006,0,0,0-.275.426c-.085.17-.17.256-.246.256a1.106,1.106,0,0,1-.474-.275q-2.073-1.406-2.575-5.046h-.17c-.322,2.945-1.808,4.772-4.459,5.51a.284.284,0,0,1-.085-.095,6.748,6.748,0,0,0,3.57-5.416h-1.07a11.544,11.544,0,0,0-2.026.1c-.066-.161-.142-.322-.218-.483a20.277,20.277,0,0,0,2.263.085h1.089c.038-.379.057-.767.066-1.184-.056-.738-.094-1.259-.123-1.562.918.114,1.382.218,1.382.331,0,.095-.094.161-.284.208-.01.436-.019.871-.038,1.3,0,.322-.019.625-.038.909h2.3a3.31,3.31,0,0,1,.663-.71c.028,0,.056.009.085.009a2.169,2.169,0,0,1,.256.161" transform="translate(-257.185 -0.171)" fill="#549edf"/><path d="M544.543.692V.7a2.068,2.068,0,0,0,.549.057h.54c.284-.322.455-.483.5-.483a1.137,1.137,0,0,1,.492.294c.227.2.35.331.35.4-.01.086-.086.152-.237.2-.133.047-.2.085-.2.1l-.085,2.594a1.8,1.8,0,0,1,.454-.549,2.144,2.144,0,0,1,.4.3c.227.208.341.35.341.407q0,.114-.228.114c-.094.019-.17.028-.217.038a6.57,6.57,0,0,1-1.155,1.013.275.275,0,0,1-.095-.066,3.318,3.318,0,0,0,.55-.975h-6.657a1.046,1.046,0,0,1,.029.227c-.029.625-.265.937-.7.947-.265-.01-.407-.114-.417-.313a.492.492,0,0,1,.208-.322,1.327,1.327,0,0,0,.369-.644c.028-.18.047-.36.067-.53a.456.456,0,0,0,.142-.028,1.624,1.624,0,0,1,.237.426h.142l-.095-2.736c-.028-.256-.057-.493-.095-.71l.842.35a4.159,4.159,0,0,0,1-.814,4.022,4.022,0,0,1,.776.634c0,.076-.038.1-.113.1-.161-.019-.284-.038-.36-.038a8.141,8.141,0,0,1-1.316.35l.019.635h.369a2.349,2.349,0,0,1,.388-.426.07.07,0,0,1,.047-.019,1.264,1.264,0,0,1,.294.218,1.364,1.364,0,0,1,.284.341c0,.095-.019.151-.056.161h-1.316l.029.833H541a2.19,2.19,0,0,1,.388-.436.4.4,0,0,1,.047-.009.991.991,0,0,1,.284.208,1.517,1.517,0,0,1,.293.341c0,.095-.028.152-.066.161h-1.316l.029.852h4.989l.028-.8h-.237a6.962,6.962,0,0,0-.937.075,2.614,2.614,0,0,1-.161-.407,6.56,6.56,0,0,0,1.127.066h.218l.028-.814h-.237a5.541,5.541,0,0,0-.947.085,2.592,2.592,0,0,1-.161-.407,6.67,6.67,0,0,0,1.136.066h.218l.019-.758h-.568a1.566,1.566,0,0,0-.6.057c-.038-.095-.066-.2-.1-.294a.139.139,0,0,1-.086.019c-.1,0-.208.009-.312.009a1.671,1.671,0,0,1-.218.18.839.839,0,0,1,.313.634.519.519,0,0,1-.047.209c-.019.1-.114.17-.265.189q-.128,0-.369-.426c-.056-.076-.113-.142-.161-.218A7.7,7.7,0,0,1,542.224,2c-.028-.009-.047-.038-.067-.095a5.079,5.079,0,0,0,.871-.88,2.6,2.6,0,0,0-.568-.464c.01-.019.029-.067.057-.123a6.03,6.03,0,0,1,.767.218,3.3,3.3,0,0,0,.293-.615q.966.539.966.653m.852,3.939c.265.274.407.464.407.577-.009.095-.152.133-.417.133-.019,0-.1-.009-.246-.009a10.255,10.255,0,0,1-1.221.53c0,.019.009.038.009.057q0,.071-.256.142c-.095.028-.133.047-.133.066V6.42h2.244a3.55,3.55,0,0,1,.615-.653c.028,0,.057.009.086.009a1.626,1.626,0,0,1,.227.151c.4.341.606.559.606.653s-.038.133-.1.133h-3.674v1.07c0,.474-.35.8-1.032.957-.085-.009-.133-.066-.142-.18a.676.676,0,0,0-.4-.492,1.54,1.54,0,0,0-.52-.189.464.464,0,0,0,.028-.142,10.971,10.971,0,0,0,1.155.047c.095-.009.152-.085.152-.227V6.714h-1.5a11.64,11.64,0,0,0-2.026.1,4.41,4.41,0,0,0-.218-.492,18.562,18.562,0,0,0,2.31.094h1.43V6.354c-.019-.341-.047-.606-.066-.8q.3.071.625.142c.114.019.208.029.284.038a6.585,6.585,0,0,0,.739-.682H541.74a5.444,5.444,0,0,0-1.1.114c-.1-.209-.18-.379-.236-.5a5.4,5.4,0,0,0,1.278.123h2.623c.36-.331.577-.5.653-.5a1.5,1.5,0,0,1,.436.35m-.918-2.017c0,.076-.057.1-.151.1s-.208.009-.3.009c-.075.057-.142.1-.217.152a.829.829,0,0,1,.378.653.314.314,0,0,1-.038.142c-.019.076-.076.114-.18.133q-.17,0-.511-.426a1.579,1.579,0,0,1-.18-.18,12.437,12.437,0,0,1-1.458.663c-.029-.009-.047-.038-.066-.095a5.953,5.953,0,0,0,1.136-.909,4.262,4.262,0,0,0-.843-.5.285.285,0,0,1,.038-.085,6.822,6.822,0,0,1,1.079.275,2.785,2.785,0,0,0,.35-.587q.966.54.966.653" transform="translate(-334.668 -0.001)" fill="#549edf"/><path d="M163.472,129.339c0,.162,0,.306,0,.434s0,.243.006.345a.138.138,0,0,0,.1.129l.594.17.012.2q-.626-.012-1.308-.012-.705,0-1.259.012l-.02-.2.541-.149a.133.133,0,0,0,.109-.125c0-.108,0-.228.006-.361s0-.28,0-.442v-3.216c0-.134,0-.257,0-.367s0-.211-.006-.3a.131.131,0,0,0-.1-.133l-.54-.157-.013-.206q.565.016,1.118.016.38,0,.736-.016t.652-.016a2.966,2.966,0,0,1,1.65.377,1.262,1.262,0,0,1,.561,1.12,1.676,1.676,0,0,1-.583,1.362,2.5,2.5,0,0,1-1.644.486,4.685,4.685,0,0,1-.621-.045Zm0-1.485a2.4,2.4,0,0,0,.455.044,1,1,0,0,0,.8-.325,1.487,1.487,0,0,0,.277-.983,1.455,1.455,0,0,0-.262-.95,1.02,1.02,0,0,0-.827-.313,3.144,3.144,0,0,0-.448.032Z" transform="translate(-100.386 -77.611)" fill="#549edf"/><path d="M177.356,130q.932-.137,1.7-.307l.061.032v.436a2.736,2.736,0,0,1,1.493-.456l.02.028q-.129.642-.246,1.372l-.234.041a3.719,3.719,0,0,0-.206-.613.331.331,0,0,0-.315-.214,1.314,1.314,0,0,0-.513.137v1.731q0,.626.008.9a.136.136,0,0,0,.1.141l.577.153.012.194q-.67-.012-1.279-.012-.581,0-1.162.012l-.02-.194.513-.141a.125.125,0,0,0,.1-.121q0-.174,0-.5v-1.348q0-.657-.016-.956l-.577-.149Z" transform="translate(-110.171 -80.561)" fill="#549edf"/><path d="M193.322,131.627a1.944,1.944,0,0,1-.613,1.491,2.254,2.254,0,0,1-1.6.571,2.127,2.127,0,0,1-1.525-.539,1.852,1.852,0,0,1-.569-1.41,1.912,1.912,0,0,1,.6-1.45,2.246,2.246,0,0,1,1.614-.567,2.165,2.165,0,0,1,1.53.523,1.793,1.793,0,0,1,.565,1.382m-3.051.032a2.766,2.766,0,0,0,.22,1.192.734.734,0,0,0,.7.458.7.7,0,0,0,.664-.4,2.662,2.662,0,0,0,.212-1.2,2.565,2.565,0,0,0-.224-1.176.739.739,0,0,0-.7-.43.707.707,0,0,0-.66.387,2.477,2.477,0,0,0-.216,1.17" transform="translate(-117.414 -80.581)" fill="#549edf"/><path d="M202.807,129.968q.529.012,1.114.012.557,0,1.065-.012l.024.194-.431.121q.258.755.609,1.65.093.238.189.525.1-.278.2-.525.323-.811.633-1.65l-.419-.121-.02-.194q.295.012.735.012.363,0,.722-.012l.02.194-.436.117a.267.267,0,0,0-.157.158q-.315.734-.741,1.761t-.639,1.568l-.517.056q-.222-.593-.643-1.618t-.716-1.747a.32.32,0,0,0-.177-.181l-.4-.113Z" transform="translate(-125.98 -80.734)" fill="#549edf"/><path d="M217.061,126.848q.993-.149,1.743-.311l.044.033q-.024.557-.024,1.186v1.521q0,.48.008.67a.139.139,0,0,0,.1.137l.5.141.012.194q-.6-.012-1.186-.012t-1.186.012l-.02-.194.512-.141a.126.126,0,0,0,.1-.121q.008-.157.008-.528v-1.3q0-.529-.016-.973l-.577-.149Zm1.776-1.646a.6.6,0,0,1-.18.452.647.647,0,0,1-.47.173.609.609,0,0,1-.438-.164.56.56,0,0,1-.171-.425.58.58,0,0,1,.181-.452.674.674,0,0,1,.472-.166.631.631,0,0,1,.436.151.547.547,0,0,1,.169.43" transform="translate(-134.832 -77.413)" fill="#549edf"/><path d="M229.042,124.154q.985-.149,1.759-.311l.048.032q-.028.864-.028,1.856v2.195q0,.528,0,1.089a2.745,2.745,0,0,0,.016.331.375.375,0,0,0,.071.191.284.284,0,0,0,.167.091,1.813,1.813,0,0,0,.331.028l.025.178a3.2,3.2,0,0,1-1.005.2.683.683,0,0,1-.71-.44,1.786,1.786,0,0,1-1.17.44,1.6,1.6,0,0,1-1.263-.527,1.92,1.92,0,0,1-.464-1.318,2.013,2.013,0,0,1,.6-1.56,2.387,2.387,0,0,1,1.677-.551,4.133,4.133,0,0,1,.581.045q0-.852-.016-1.646l-.593-.161Zm.638,2.417a1.464,1.464,0,0,0-.488-.077,1,1,0,0,0-.843.381,1.884,1.884,0,0,0-.291,1.148,1.939,1.939,0,0,0,.258,1.065.818.818,0,0,0,.727.4,1.374,1.374,0,0,0,.638-.149Z" transform="translate(-140.899 -76.929)" fill="#549edf"/><path d="M246.336,133.309a3.429,3.429,0,0,1-1.574.379,2.537,2.537,0,0,1-1.608-.486,1.706,1.706,0,0,1-.624-1.434,1.948,1.948,0,0,1,.6-1.475,2.125,2.125,0,0,1,1.528-.571,1.7,1.7,0,0,1,1.252.438,1.623,1.623,0,0,1,.442,1.209c0,.078,0,.158-.012.242h-2.579a1.5,1.5,0,0,0,.4,1.166,1.94,1.94,0,0,0,1.305.355,4.474,4.474,0,0,0,.839-.077Zm-1.21-2.09v-.1a1.645,1.645,0,0,0-.139-.787.461.461,0,0,0-.426-.238.62.62,0,0,0-.547.329,1.712,1.712,0,0,0-.236.793Z" transform="translate(-150.656 -80.581)" fill="#549edf"/><path d="M256.1,130q.932-.137,1.7-.307l.061.032v.432a2.431,2.431,0,0,1,1.348-.452,1.279,1.279,0,0,1,.924.321,1.2,1.2,0,0,1,.335.91v1.416q0,.5.008.746a.133.133,0,0,0,.1.137l.488.141.012.194q-.577-.012-1.162-.012-.606,0-1.089.012l-.016-.194.4-.121a.131.131,0,0,0,.1-.121c0-.041,0-.125,0-.254v-1.691a1.056,1.056,0,0,0-.194-.712.736.736,0,0,0-.577-.216,1.439,1.439,0,0,0-.69.194v1.735q0,.5.008.924a.126.126,0,0,0,.093.133l.419.129.008.194q-.5-.012-1.09-.012t-1.182.012l-.02-.194.521-.141a.118.118,0,0,0,.093-.121q0-.258,0-.5v-1.328q0-.528-.016-.976l-.577-.149Z" transform="translate(-159.084 -80.561)" fill="#549edf"/><path d="M275.969,133.31a2.775,2.775,0,0,1-1.384.379,2.087,2.087,0,0,1-1.452-.513,1.749,1.749,0,0,1-.569-1.368,1.967,1.967,0,0,1,.619-1.509,2.225,2.225,0,0,1,1.579-.577,3.083,3.083,0,0,1,1.174.23q-.145.569-.254,1.194l-.222.036-.311-1.009a.871.871,0,0,0-.294-.041.9.9,0,0,0-.755.4,1.783,1.783,0,0,0-.294,1.075,1.582,1.582,0,0,0,.373,1.16,1.439,1.439,0,0,0,1.063.373,3.36,3.36,0,0,0,.694-.077Z" transform="translate(-169.312 -80.582)" fill="#549edf"/><path d="M288.691,133.309a3.429,3.429,0,0,1-1.574.379,2.537,2.537,0,0,1-1.608-.486,1.706,1.706,0,0,1-.624-1.434,1.948,1.948,0,0,1,.6-1.475,2.125,2.125,0,0,1,1.528-.571,1.7,1.7,0,0,1,1.252.438,1.623,1.623,0,0,1,.442,1.209,2.414,2.414,0,0,1-.012.242h-2.579a1.5,1.5,0,0,0,.4,1.166,1.939,1.939,0,0,0,1.305.355,4.475,4.475,0,0,0,.839-.077Zm-1.21-2.09v-.1a1.645,1.645,0,0,0-.139-.787.461.461,0,0,0-.426-.238.62.62,0,0,0-.547.329,1.712,1.712,0,0,0-.236.793Z" transform="translate(-176.966 -80.581)" fill="#549edf"/><path d="M316.147,124.983q.561.016,1.243.016.7,0,1.243-.016l.02.206-.525.149a.127.127,0,0,0-.1.121c0,.1,0,.2-.006.313s0,.232,0,.361v2.223a2.564,2.564,0,0,0,.331,1.523,1.282,1.282,0,0,0,1.073.422,1.333,1.333,0,0,0,1.1-.446,2.285,2.285,0,0,0,.365-1.447v-2.276q0-.194,0-.361t-.008-.313a.126.126,0,0,0-.1-.121l-.5-.141-.012-.214q.536.016.928.016.363,0,.912-.016l.02.206-.549.157a.131.131,0,0,0-.1.133q0,.137-.006.3t0,.367v2.05a2.846,2.846,0,0,1-.571,1.991,2.178,2.178,0,0,1-1.66.6,2.53,2.53,0,0,1-1.828-.575,2.483,2.483,0,0,1-.589-1.842v-2.227q0-.2,0-.367t-.006-.3a.13.13,0,0,0-.1-.133l-.541-.157Z" transform="translate(-196.385 -77.637)" fill="#549edf"/><path d="M334.583,130q.932-.137,1.7-.307l.061.032v.432a2.431,2.431,0,0,1,1.348-.452,1.28,1.28,0,0,1,.924.321,1.2,1.2,0,0,1,.335.91v1.416q0,.5.008.746a.133.133,0,0,0,.1.137l.488.141.012.194q-.577-.012-1.162-.012-.606,0-1.089.012l-.016-.194.4-.121a.131.131,0,0,0,.1-.121c0-.041,0-.125,0-.254v-1.691a1.056,1.056,0,0,0-.194-.712.736.736,0,0,0-.577-.216,1.439,1.439,0,0,0-.69.194v1.735q0,.5.008.924a.126.126,0,0,0,.093.133l.419.129.008.194q-.5-.012-1.089-.012t-1.182.012l-.02-.194.52-.141a.118.118,0,0,0,.093-.121q0-.258,0-.5v-1.328q0-.528-.016-.976l-.577-.149Z" transform="translate(-207.837 -80.561)" fill="#549edf"/><path d="M350.712,126.848q.993-.149,1.743-.311l.044.033q-.024.557-.024,1.186v1.521q0,.48.008.67a.139.139,0,0,0,.1.137l.5.141.012.194q-.6-.012-1.186-.012t-1.186.012l-.02-.194.512-.141a.126.126,0,0,0,.1-.121q.008-.157.008-.528v-1.3q0-.529-.016-.973l-.577-.149Zm1.776-1.646a.6.6,0,0,1-.18.452.647.647,0,0,1-.47.173.609.609,0,0,1-.438-.164.56.56,0,0,1-.171-.425.58.58,0,0,1,.181-.452.674.674,0,0,1,.472-.166.631.631,0,0,1,.436.151.547.547,0,0,1,.169.43" transform="translate(-217.854 -77.413)" fill="#549edf"/><path d="M359.141,129.968q.529.012,1.114.012.557,0,1.065-.012l.024.194-.432.121q.258.755.609,1.65.093.238.189.525.1-.278.2-.525.323-.811.633-1.65l-.419-.121-.02-.194q.295.012.735.012.363,0,.722-.012l.02.194-.436.117a.267.267,0,0,0-.157.158q-.315.734-.741,1.761t-.639,1.568l-.517.056q-.222-.593-.643-1.618t-.716-1.747a.319.319,0,0,0-.177-.181l-.4-.113Z" transform="translate(-223.092 -80.734)" fill="#549edf"/><path d="M377.024,133.309a3.429,3.429,0,0,1-1.574.379,2.537,2.537,0,0,1-1.608-.486,1.706,1.706,0,0,1-.624-1.434,1.948,1.948,0,0,1,.6-1.475,2.125,2.125,0,0,1,1.528-.571,1.7,1.7,0,0,1,1.252.438,1.623,1.623,0,0,1,.442,1.209c0,.078,0,.158-.012.242h-2.579a1.5,1.5,0,0,0,.4,1.166,1.94,1.94,0,0,0,1.305.355,4.475,4.475,0,0,0,.839-.077Zm-1.21-2.09v-.1a1.645,1.645,0,0,0-.139-.787.461.461,0,0,0-.426-.238.62.62,0,0,0-.547.329,1.712,1.712,0,0,0-.236.793Z" transform="translate(-231.837 -80.581)" fill="#549edf"/><path d="M386.787,130q.932-.137,1.7-.307l.061.032v.436a2.736,2.736,0,0,1,1.493-.456l.02.028q-.129.642-.246,1.372l-.234.041a3.717,3.717,0,0,0-.206-.613.331.331,0,0,0-.315-.214,1.314,1.314,0,0,0-.513.137v1.731q0,.626.008.9a.135.135,0,0,0,.1.141l.577.153.012.194q-.67-.012-1.279-.012-.581,0-1.162.012l-.02-.194.513-.141a.125.125,0,0,0,.1-.121q0-.174,0-.5v-1.348q0-.657-.016-.956l-.577-.149Z" transform="translate(-240.266 -80.561)" fill="#549edf"/><path d="M401.106,130.178a2.376,2.376,0,0,0-.549-.061,1.226,1.226,0,0,0-.6.129.4.4,0,0,0-.232.367.375.375,0,0,0,.1.281.935.935,0,0,0,.347.183l.645.226a2.086,2.086,0,0,1,.843.478.923.923,0,0,1,.266.656,1.044,1.044,0,0,1-.5.922,2.34,2.34,0,0,1-1.309.329,3.367,3.367,0,0,1-1.331-.278q.137-.54.225-1.049l.206-.033.291.88a1.934,1.934,0,0,0,.618.084,1.082,1.082,0,0,0,.569-.133.415.415,0,0,0,.218-.371.46.46,0,0,0-.131-.333,1.384,1.384,0,0,0-.522-.268l-.492-.17a1.687,1.687,0,0,1-.71-.43.933.933,0,0,1-.238-.648,1.027,1.027,0,0,1,.464-.9,2.258,2.258,0,0,1,1.279-.315,3.516,3.516,0,0,1,1.211.2q-.121.529-.206,1l-.222.032Z" transform="translate(-247.722 -80.581)" fill="#549edf"/><path d="M410.572,126.848q.993-.149,1.743-.311l.044.033q-.024.557-.024,1.186v1.521q0,.48.008.67a.139.139,0,0,0,.1.137l.5.141.012.194q-.6-.012-1.186-.012t-1.186.012l-.02-.194.512-.141a.126.126,0,0,0,.1-.121q.008-.157.008-.528v-1.3q0-.529-.016-.973l-.577-.149Zm1.776-1.646a.6.6,0,0,1-.18.452.647.647,0,0,1-.47.173.609.609,0,0,1-.438-.164.56.56,0,0,1-.171-.425.58.58,0,0,1,.181-.452.674.674,0,0,1,.472-.166.631.631,0,0,1,.436.151.547.547,0,0,1,.169.43" transform="translate(-255.038 -77.413)" fill="#549edf"/><path d="M421.484,128.8q-.024,1.259-.024,2.135a.927.927,0,0,0,.125.563.594.594,0,0,0,.48.155q.274,0,.6-.032l.032.242a2.732,2.732,0,0,1-1.2.315,1.411,1.411,0,0,1-.874-.236.84.84,0,0,1-.309-.712q0-.839.024-2.449l-.545-.141-.036-.218.674-.061.383-.948q.343-.061.626-.117l.056.028q-.012.488-.012,1.037h1.13v.44Z" transform="translate(-260.746 -79.073)" fill="#549edf"/><path d="M429.788,129.968q.536.012.973.012.565,0,1.2-.012l.02.194-.5.129q.157.4.3.755t.375.908q.105.23.226.536.121-.314.246-.625.327-.859.6-1.582l-.419-.121-.02-.194c.21.008.457.012.742.012q.371,0,.71-.012l.02.194-.388.1a.291.291,0,0,0-.185.166l-.315.742q-.525,1.255-.815,2.082-.186.536-.335,1.1t-.238.983a.478.478,0,0,1-.165.315,1.112,1.112,0,0,1-.545.084q-.444,0-.847-.032l-.02-.186a1.07,1.07,0,0,0,.653-.258,6.725,6.725,0,0,0,.819-1.5l.028-.077-.214-.06q-.726-1.8-1.319-3.184a.267.267,0,0,0-.182-.166l-.387-.109Z" transform="translate(-266.977 -80.734)" fill="#549edf"/><path d="M461.535,128.7l-.287.755c-.056.148-.1.267-.131.357a.7.7,0,0,0-.047.208.142.142,0,0,0,.036.1.244.244,0,0,0,.113.056l.388.113.012.21q-.585-.012-.952-.012-.384,0-.875.012l-.02-.2.432-.129a.4.4,0,0,0,.226-.147,1.738,1.738,0,0,0,.161-.313l2.01-4.895.436-.064,1.739,4.906a1.381,1.381,0,0,0,.183.381.468.468,0,0,0,.236.143l.4.117.012.2q-.545-.012-1.1-.012-.73,0-1.424.012l-.02-.2.4-.117a.281.281,0,0,0,.117-.061.149.149,0,0,0,.036-.109.776.776,0,0,0-.04-.212q-.04-.131-.117-.345l-.267-.759Zm.872-2.316q-.073.21-.158.436l-.553,1.461h1.348l-.5-1.457q-.077-.23-.141-.44" transform="translate(-285.603 -77.492)" fill="#549edf"/><path d="M477.665,130q.932-.137,1.7-.307l.061.032v.436a2.736,2.736,0,0,1,1.493-.456l.02.028q-.129.642-.246,1.372l-.234.041a3.722,3.722,0,0,0-.206-.613.331.331,0,0,0-.315-.214,1.314,1.314,0,0,0-.513.137v1.731q0,.626.008.9a.135.135,0,0,0,.1.141l.577.153.012.194q-.67-.012-1.279-.012-.581,0-1.162.012l-.02-.194.512-.141a.125.125,0,0,0,.1-.121q0-.174,0-.5v-1.348q0-.657-.016-.956l-.577-.149Z" transform="translate(-296.718 -80.561)" fill="#549edf"/><path d="M492.72,133.31a2.775,2.775,0,0,1-1.384.379,2.087,2.087,0,0,1-1.452-.513,1.749,1.749,0,0,1-.569-1.368,1.967,1.967,0,0,1,.619-1.509,2.225,2.225,0,0,1,1.579-.577,3.082,3.082,0,0,1,1.174.23q-.145.569-.254,1.194l-.222.036-.311-1.009a.871.871,0,0,0-.294-.041.9.9,0,0,0-.755.4,1.783,1.783,0,0,0-.294,1.075,1.582,1.582,0,0,0,.373,1.16,1.439,1.439,0,0,0,1.063.373,3.361,3.361,0,0,0,.694-.077Z" transform="translate(-303.954 -80.582)" fill="#549edf"/><path d="M504.763,126.071a1.28,1.28,0,0,1,.924.321,1.2,1.2,0,0,1,.335.91v1.416q0,.5.008.746a.134.134,0,0,0,.1.137l.488.141.012.194q-.577-.012-1.162-.012-.605,0-1.089.012l-.016-.194.4-.121a.13.13,0,0,0,.1-.121c0-.041,0-.125,0-.254v-1.691a1.056,1.056,0,0,0-.194-.712.735.735,0,0,0-.577-.216,1.733,1.733,0,0,0-.69.153v1.775q0,.5.008.924a.126.126,0,0,0,.093.133l.42.129.008.194q-.5-.012-1.089-.012t-1.182.012l-.02-.194.521-.141a.118.118,0,0,0,.093-.121q0-.258,0-.5v-3.53q0-.529-.016-.972l-.593-.162-.025-.165q1.009-.149,1.76-.311l.044.032q-.024.557-.024,1.186v1.416a2.615,2.615,0,0,1,1.348-.408" transform="translate(-311.608 -76.93)" fill="#549edf"/><path d="M517.808,126.848q.993-.149,1.743-.311l.044.033q-.024.557-.024,1.186v1.521q0,.48.008.67a.139.139,0,0,0,.1.137l.5.141.012.194q-.6-.012-1.186-.012t-1.186.012l-.02-.194.512-.141a.126.126,0,0,0,.1-.121q.008-.157.008-.528v-1.3q0-.529-.016-.973l-.577-.149Zm1.776-1.646a.6.6,0,0,1-.18.452.648.648,0,0,1-.47.173.608.608,0,0,1-.438-.164.56.56,0,0,1-.171-.425.58.58,0,0,1,.181-.452.674.674,0,0,1,.472-.166.631.631,0,0,1,.436.151.547.547,0,0,1,.169.43" transform="translate(-321.651 -77.413)" fill="#549edf"/><path d="M526.238,129.968q.529.012,1.114.012.557,0,1.065-.012l.024.194-.431.121q.258.755.609,1.65.092.238.189.525.1-.278.2-.525.323-.811.633-1.65l-.419-.121-.02-.194q.295.012.734.012.363,0,.722-.012l.02.194-.436.117a.267.267,0,0,0-.157.158q-.315.734-.741,1.761t-.639,1.568l-.517.056q-.222-.593-.643-1.618t-.716-1.747a.319.319,0,0,0-.177-.181l-.4-.113Z" transform="translate(-326.89 -80.734)" fill="#549edf"/><path d="M544.121,133.309a3.429,3.429,0,0,1-1.574.379,2.537,2.537,0,0,1-1.608-.486,1.706,1.706,0,0,1-.624-1.434,1.948,1.948,0,0,1,.6-1.475,2.125,2.125,0,0,1,1.528-.571,1.7,1.7,0,0,1,1.252.438,1.623,1.623,0,0,1,.442,1.209,2.4,2.4,0,0,1-.012.242h-2.578a1.5,1.5,0,0,0,.4,1.166,1.939,1.939,0,0,0,1.305.355,4.474,4.474,0,0,0,.839-.077Zm-1.21-2.09v-.1a1.644,1.644,0,0,0-.139-.787.461.461,0,0,0-.426-.238.62.62,0,0,0-.547.329,1.713,1.713,0,0,0-.236.793Z" transform="translate(-335.635 -80.581)" fill="#549edf"/><path d="M556.552,130.178a2.376,2.376,0,0,0-.549-.061,1.225,1.225,0,0,0-.6.129.4.4,0,0,0-.232.367.375.375,0,0,0,.1.281.937.937,0,0,0,.347.183l.646.226a2.086,2.086,0,0,1,.843.478.924.924,0,0,1,.266.656,1.044,1.044,0,0,1-.5.922,2.339,2.339,0,0,1-1.309.329,3.366,3.366,0,0,1-1.331-.278q.137-.54.225-1.049l.206-.033.291.88a1.933,1.933,0,0,0,.617.084,1.082,1.082,0,0,0,.569-.133.415.415,0,0,0,.218-.371.46.46,0,0,0-.132-.333,1.385,1.385,0,0,0-.522-.268l-.492-.17a1.687,1.687,0,0,1-.71-.43.933.933,0,0,1-.238-.648,1.027,1.027,0,0,1,.464-.9,2.258,2.258,0,0,1,1.279-.315,3.515,3.515,0,0,1,1.211.2q-.121.529-.206,1l-.222.032Z" transform="translate(-344.282 -80.581)" fill="#549edf"/><path d="M0,30.015a18.249,18.249,0,0,1,7.274-5.432c.46-.211.929-.414,1.413-.607v-5L27.31.356,0,18.979Z" transform="translate(0 -0.221)" fill="#0070ad"/><path d="M0,71.322v18.2H5.438l3.249-7.851V71.322c0-2.21,2.609-5.021,7.146-6.919A29.876,29.876,0,0,1,27.31,62.275V58.8A48.6,48.6,0,0,0,8.688,62.162C3.345,64.449,0,67.7,0,71.322" transform="translate(0 -36.525)" fill="#0070ad"/><path d="M55.455,23.217H48.861l-1.91,2.173v2.171h7.992V25.388Z" transform="translate(-29.165 -14.422)" fill="#0070ad"/><path d="M68.048,25.388v2.173l.512-4.344Z" transform="translate(-42.27 -14.422)" fill="#0070ad"/><path d="M82.619,70.918q-1.081-.179-2.247-.288l1.87,15.854,1.223,10.383h4.347l-2.223-11.1Z" transform="translate(-49.926 -43.874)" fill="#549edf"/><path d="M89.9,72.14c-.751-.205-1.542-.386-2.379-.539l3.154,14.576h0L93.118,97.47h4.344L93.735,84.988Z" transform="translate(-54.365 -44.477)" fill="#549edf"/><path d="M101.649,84.128l-3.878-9.761a23.281,23.281,0,0,0-2.655-.963L99.029,85.82l4.025,12.771H107.4Z" transform="translate(-59.085 -45.598)" fill="#549edf"/><path d="M72.094.357v52.86h4.343Z" transform="translate(-44.784 -0.222)" fill="#549edf"/><path d="M49.369,70.918,46.4,85.767l-2.222,11.1h4.347l1.223-10.383,1.87-15.854q-1.168.111-2.247.288" transform="translate(-27.441 -43.874)" fill="#0070ad"/><path d="M37.209,86.176,40.363,71.6c-.837.153-1.628.334-2.379.54L34.147,84.987,30.419,97.47h4.344l2.443-11.293Z" transform="translate(-18.896 -44.477)" fill="#0070ad"/><path d="M28.934,73.4a23.185,23.185,0,0,0-2.655.963L22.4,84.128,16.654,98.591H21L25.023,85.82Z" transform="translate(-10.345 -45.598)" fill="#0070ad"/><path d="M60.628,53.216h4.344V.356Z" transform="translate(-37.661 -0.221)" fill="#0070ad"/></g></svg>