<svg xmlns="http://www.w3.org/2000/svg" xmlns:xlink="http://www.w3.org/1999/xlink" width="147.634" height="255.068" viewBox="0 0 147.634 255.068"><defs><clipPath id="a"><rect width="147.634" height="255.068" fill="none"/></clipPath></defs><g clip-path="url(#a)"><path d="M9.521,209.494a17.477,17.477,0,0,0-3.85.42,15.233,15.233,0,0,1-1.47-3.29,9.27,9.27,0,0,0,3.99.84h6.651v-10.5c-.14-2.1-.28-4.131-.56-6.231q3.255.419,6.93,1.05c1.821.35,2.731.77,2.731,1.33,0,.49-.42.771-1.191.91-1.259.42-1.889.771-1.889.981v12.461H21.7a23.182,23.182,0,0,1,3.431-3.781h.35a15.522,15.522,0,0,1,3.291,2.941c.84.91,1.33,1.54,1.33,1.96,0,.63-.351.91-1.051.91h-8.19v5.18c4.55,2.241,7.421,4.411,8.68,6.511a34.072,34.072,0,0,0,7.141-14.212c5.531,1.821,8.331,2.87,8.331,3.29,0,.841-1.12,1.33-3.29,1.541a31.325,31.325,0,0,1-11.552,11.131c0,.21.071.35.071.49a3.194,3.194,0,0,1-1.121,2.8,3.069,3.069,0,0,1-1.89.63c-1.47,0-2.45-1.4-3.01-4.2a15.439,15.439,0,0,0-3.36-6.581v21.772c.139,7.351.21,12.462.349,15.542q0,1.68-4.41,1.68c-1.47,0-2.17-.42-2.17-1.26.07-2.59.14-7.911.21-16.172V222.795c-3.15,7-6.721,12.391-10.781,16.1a1.535,1.535,0,0,1-.91-.841,76.219,76.219,0,0,0,10.781-28.562Zm52.646,15.121c-.07.631-.35.98-.91.98-.841,0-2.03,0-3.711-.139a60.231,60.231,0,0,1-7.28,13.02,4.431,4.431,0,0,0,.91.7,43.169,43.169,0,0,0,15.892,8.682,12.642,12.642,0,0,1-.351,1.33,3.143,3.143,0,0,0-2.45,1.26,8.845,8.845,0,0,0-1.47,2.38c-.42.631-.77.98-1.19,1.051-1.96-.21-5.53-2.521-10.852-6.862a37.7,37.7,0,0,1-3.99-4.41,40.343,40.343,0,0,1-20.372,11.272,2.933,2.933,0,0,0-.28-1.051,52.634,52.634,0,0,0,17.362-14.7,38.712,38.712,0,0,1-6.65-17.222l1.54-.28a32.159,32.159,0,0,0,7.56,13.792,55.107,55.107,0,0,0,6.581-16.452c6.441,3.71,9.661,5.951,9.661,6.65m.28-25.412c2.73,2.31,4.131,3.78,4.131,4.41,0,.7-.281.98-.771.98H39.134c-4.9,0-7.91.28-9.1.77-.491-1.189-1.05-2.38-1.611-3.57a48.138,48.138,0,0,0,9.451.63H56.146a20.424,20.424,0,0,1,4.2-4.34c.14,0,.35.069.56.069a15.182,15.182,0,0,1,1.54,1.051m-13.161-1.96a11.2,11.2,0,0,1-.281,2.45,2.8,2.8,0,0,1-2.73,1.96q-1.26,0-3.361-3.78a21.841,21.841,0,0,0-4.9-6.161,1.558,1.558,0,0,0,.49-.84c6.931.7,10.5,2.87,10.782,6.371M65.807,217.2a5.211,5.211,0,0,1-.84,3.43,2.4,2.4,0,0,1-1.96.77c-1.261,0-2.52-1.4-3.921-4.341a29.712,29.712,0,0,0-8.68-9.171,2.209,2.209,0,0,1,.349-.7c9.732,2.8,14.772,6.161,15.052,10.012" fill="#0070ad"/><path d="M94.225,203.683h15.962l-.07-6.44c-.14-2.24-.35-4.271-.49-6.022,6.44.631,9.941,1.4,10.5,2.381,0,.91-1.12,1.611-3.22,2.1l-.21,7.981h13.861c1.96-2.24,3.29-3.36,4.061-3.43.7.07,2.03.84,4.06,2.24,1.82,1.4,2.73,2.45,2.73,3.011,0,.49-.42.979-1.12,1.4a9.375,9.375,0,0,0-1.96,1.681v9.451c.21,3.641.35,6.02.35,7.141,0,1.679-1.331,2.52-3.85,2.52-1.961,0-3.011-.421-3.081-1.4v-3.011H115.508a49.928,49.928,0,0,1-1.541,7.421,23.664,23.664,0,0,1-4.48,9.451c7.49,3.36,16.312,5.11,26.532,5.32,2.731.141,5.461.21,8.121.21v1.33a4.2,4.2,0,0,0-1.82,1.261,7.485,7.485,0,0,0-1.54,3.36c-.28,1.19-.91,1.821-1.82,1.821a71.766,71.766,0,0,1-30.663-8.192,20.423,20.423,0,0,1-2.241-1.61c-6.581,5.741-14.771,9.312-24.642,10.712-.071-.141-.28-.421-.56-.981,9.8-3.99,16.871-8.26,21.142-13.021a52.383,52.383,0,0,1-8.541-10.081l1.4-.21a42.834,42.834,0,0,0,9.522,7.491c2.38-3.36,3.99-8.121,4.969-14.282h-14.7v2.24c-.349,1.54-1.75,2.24-4.131,2.24-1.54,0-2.45-.21-2.729-.769,0-4.061.069-8.121.279-12.041v-7.842c-.139-3.359-.279-5.39-.559-6.02Zm15.332,17.782a104.068,104.068,0,0,0,.7-11.971l-.07-4.061H94.645v16.032Zm6.931-10.641c-.141,4.2-.421,7.7-.771,10.641h16.032V205.433H116.628Z" fill="#0070ad"/><path d="M10.572,1.975c.8.7,1.2,1.149,1.2,1.325,0,.249-.1.35-.275.35H7.574V5.6h.875A5.673,5.673,0,0,1,9.572,4.525c.051,0,.1.024.15.024.125.075.276.175.426.275.7.625,1.074,1.025,1.074,1.2,0,.225-.1.325-.275.325H7.574v2.2h1.3a5.949,5.949,0,0,1,1.25-1.225c.051,0,.1.026.15.026a3.525,3.525,0,0,1,.475.3c.8.7,1.2,1.125,1.2,1.324,0,.25-.1.35-.275.35h-7.5A7.112,7.112,0,0,0,1.6,9.6c-.174-.425-.375-.85-.6-1.3a9.7,9.7,0,0,0,2.7.25H5.523v-2.2H4.974a4.013,4.013,0,0,0-2.025.3c-.174-.425-.375-.85-.6-1.3a5.893,5.893,0,0,0,2.1.25H5.523V3.65H4.449a5.575,5.575,0,0,0-2.4.3,11.948,11.948,0,0,0-.6-1.3,8.176,8.176,0,0,0,2.475.25h1.6V2.475A21.019,21.019,0,0,0,5.4,0C7.574.325,8.674.6,8.674.85c0,.2-.151.325-.4.375-.449.2-.7.35-.7.5V2.9H8.7A5.616,5.616,0,0,1,9.947,1.65c.051,0,.1.025.176.025.15.1.3.2.449.3m-6.3,9.3H8.023a4.2,4.2,0,0,1,1.151-1.025,2.966,2.966,0,0,1,1.224.6c.649.45,1,.774,1,1,0,.149-.15.324-.451.474a1.569,1.569,0,0,0-.549.5v7.373a2.429,2.429,0,0,1-2.176,2.549c-.148,0-.25-.149-.3-.449a2.053,2.053,0,0,0-.8-1.225A4.168,4.168,0,0,0,6.049,20.5a1.97,1.97,0,0,0,.025-.349,8.046,8.046,0,0,0,1.7.125c.35,0,.551-.176.551-.476V17.646H4.75v4.4c-.1.45-.526.7-1.25.7-.475,0-.75-.1-.85-.249,0-1.9.025-3.724.074-5.524v-3.6a14.62,14.62,0,0,0-.174-2.75Zm4.049.649H4.75V14H8.324Zm0,2.725H4.75v2.324H8.324ZM21.445,7.873c.549.5.85.825.85,1,0,.125-.1.25-.276.375q-.187.15-.523.45v1.825h.174q.825-1.462,1.05-1.5.15,0,.674.825a3.691,3.691,0,0,1,.574,1.024c0,.25-.1.4-.273.4H21.5v1.673c.074,1,.125,1.85.125,2.576,0,.4-.5.624-1.451.674-.45,0-.674-.15-.674-.45v-.825H17.521v4.3A2.58,2.58,0,0,1,15.2,23.07c-.176,0-.326-.25-.426-.725a1.642,1.642,0,0,0-1.148-1.2,5.915,5.915,0,0,0-1.5-.6,1.126,1.126,0,0,1,.049-.375c.6.05,1.474.125,2.65.2.449,0,.674-.175.674-.575V15.946c-1.2.05-2.2.125-2.949.2-.174-.4-.3-.776-.4-1.076a30.755,30.755,0,0,0,3.348.151V12.273a18.889,18.889,0,0,0-3.424.2,9.171,9.171,0,0,1-.5-1.275,27.942,27.942,0,0,0,3.875.326H15.5V8.848a15.053,15.053,0,0,0-2.824.2c-.1-.3-.2-.649-.3-1a16.427,16.427,0,0,0,3.2.175h3.5c.65-.65,1.076-.975,1.324-.975a3.225,3.225,0,0,1,1.051.625m1.8-5.924a.313.313,0,0,1-.35.276c-.449-.026-.9-.075-1.324-.125a72.426,72.426,0,0,1-9.773.45,1.387,1.387,0,0,1-.024-.351,38.837,38.837,0,0,0,9.1-2.124c1.574,1.075,2.373,1.7,2.373,1.874m-9.3,2.35A2.725,2.725,0,0,1,15.2,6.5a1.018,1.018,0,0,1-.35.9.906.906,0,0,1-.6.174c-.449,0-.725-.424-.873-1.3A9.78,9.78,0,0,0,12.8,4.549a3.8,3.8,0,0,0-.575-.75,2.135,2.135,0,0,0,.174-.225,4.7,4.7,0,0,1,1.551.725m4.074,1.925c-.051.849-.4,1.25-1.051,1.25-.474,0-.7-.25-.7-.776V6.349c0-.2.026-.425.051-.675a5.2,5.2,0,0,0-.65-2.274c.15-.05.25-.1.25-.151,1.4.975,2.1,1.975,2.1,2.975m-.5,5.3H19.5V8.848H17.521Zm0,3.723H19.5V12.272H17.521ZM22.945,3.924c0,.2-.451.325-1.3.4a10.524,10.524,0,0,1-2.773,3.4.865.865,0,0,1-.3-.051A14.8,14.8,0,0,0,20.045,2.65c1.925.575,2.9,1,2.9,1.274" fill="#549edf"/><path d="M130.932,7.523H138.6c.8-.925,1.3-1.4,1.5-1.4a4.412,4.412,0,0,1,1.25.7c.8.55,1.225.925,1.225,1.175a.472.472,0,0,1-.3.4,5.106,5.106,0,0,0-.875.726V21.171h1.051A8.7,8.7,0,0,1,144.2,19.3c.051,0,.125.024.227.024a4.2,4.2,0,0,1,.648.425c1.15.95,1.725,1.551,1.725,1.849,0,.2-.1.327-.25.327h-16.7a31.061,31.061,0,0,0-5.7.3c-.174-.449-.375-.875-.574-1.3,1.049.125,2.75.2,5.049.25V8.723c-.026-.55-.1-1.325-.2-2.349.923.45,1.748.825,2.5,1.149m14.3-4.349c.75.7,1.151,1.15,1.151,1.35,0,.25-.25.4-.75.4a5.82,5.82,0,0,0-.75.125A16.838,16.838,0,0,1,142,6.848a.908.908,0,0,1-.324-.224,8.5,8.5,0,0,0,.875-2.3H127.832v.024c0,2.2-.7,3.325-2.049,3.375-.9,0-1.375-.3-1.4-.925a1.569,1.569,0,0,1,.2-.875A4.51,4.51,0,0,1,125.658,4.9a4.62,4.62,0,0,0,1.449-3.023c.276.023.426.023.452.023q.148.864.224,1.8H142.33A6.08,6.08,0,0,1,143.9,2.2a6.034,6.034,0,0,1,1.324.975M139.006,8.2h-8v3.573h8Zm0,4.248h-8v3.724h8Zm0,4.375h-8v4.349h8Zm-2.551-14.8a3.146,3.146,0,0,1-.125.925,1.031,1.031,0,0,1-1.023.75c-.3,0-.75-.375-1.3-1.15a7.927,7.927,0,0,0-1.9-1.875c.1-.048.151-.173.2-.324,2.673.2,4.048.776,4.148,1.674" fill="#549edf"/><path d="M127.972,95.185c8.932,4.093,15.585,9.1,19.662,14.682V80.039L73.817,29.7l50.335,50.335v13.5c1.31.522,2.577,1.069,3.82,1.641" fill="#549edf"/><path d="M104.839,104.689c12.263,5.129,19.314,12.727,19.314,18.7v27.964l8.783,21.219h14.7V123.39c0-9.777-9.039-18.577-23.481-24.758-13.191-5.642-30.881-9.089-50.335-9.089v9.4a80.759,80.759,0,0,1,31.021,5.75" fill="#549edf"/><path d="M77.96,58.977v5.875H99.909V59.375L94.4,53.111H76.576Z" fill="#549edf"/><path d="M76.576,53.11,77.96,64.852V58.977Z" fill="#549edf"/><path d="M0,109.867c4.077-5.585,10.73-10.589,19.662-14.682,1.243-.572,2.51-1.119,3.82-1.641v-13.5L73.817,29.7,0,80.039Z" fill="#0070ad"/><path d="M0,123.389v49.184H14.7l8.783-21.219V123.389c0-5.974,7.051-13.571,19.314-18.7a80.733,80.733,0,0,1,31.021-5.75v-9.4c-19.455,0-37.145,3.448-50.335,9.09C9.04,104.813,0,113.613,0,123.389" fill="#0070ad"/><path d="M71.058,53.11H53.235l-5.162,5.874v5.867h21.6V58.977Z" fill="#0070ad"/><path d="M69.674,58.977v5.875l1.384-11.741Z" fill="#0070ad"/><path d="M88.367,102.435q-2.92-.484-6.073-.779l5.054,42.854,3.306,28.063H102.4l-6.007-30Z" fill="#549edf"/><path d="M96.039,104.109c-2.03-.555-4.168-1.044-6.429-1.458l8.525,39.4h.009l6.6,30.524h11.741l-10.075-33.739Z" fill="#549edf"/><path d="M115.046,133.481,104.565,107.1a62.424,62.424,0,0,0-7.175-2.6l10.572,33.556,10.879,34.518h11.741Z" fill="#549edf"/><path d="M73.817,29.7V172.578H85.556Z" fill="#549edf"/><path d="M59.268,102.435l-8.029,40.136-6.007,30H56.981l3.306-28.063,5.054-42.854q-3.156.3-6.073.779" fill="#0070ad"/><path d="M49.5,142.049l8.526-39.4c-2.262.414-4.4.9-6.43,1.458L41.222,138.834,31.146,172.573H42.887l6.6-30.524Z" fill="#0070ad"/><path d="M50.245,104.5a62.662,62.662,0,0,0-7.175,2.6L32.588,133.481,17.052,172.573H28.793l10.88-34.518Z" fill="#0070ad"/><path d="M62.077,172.577h11.74V29.7Z" fill="#0070ad"/></g></svg>