<svg xmlns="http://www.w3.org/2000/svg" width="158.975" height="60" viewBox="0 0 158.975 60"><g transform="translate(-30 -10)"><rect width="60" height="13.94" transform="translate(30 33.03)" fill="#008430"/><rect width="13.94" height="60" transform="translate(53.03 10)" fill="#008430"/><rect width="57.093" height="11.033" transform="translate(31.453 34.484)" fill="#fff"/><rect width="11.033" height="57.093" transform="translate(54.484 11.453)" fill="#fff"/><path d="M57.372,15.06,60,40.046V16.257Z" fill="#021da5"/><path d="M56.351,13.642,60.867,15.7V40.046l-1.73.091Zm2.782,3.173-.739-.337.739,7.03Z" fill="#e1cc85"/><path d="M54.774,15.471,60,40.045,57.513,16.387l-2.739-.916Z" fill="#fff"/><path d="M53.61,14.167l4.707,1.574,2.544,24.213-1.711.271Zm3.1,2.865-.771-.258,1.47,6.915Z" fill="#e1cc85"/><path d="M52.233,16.151,60,40.045,55.053,16.776l-2.82-.625Z" fill="#ff2600"/><path d="M50.939,14.976l4.846,1.074,5.062,23.815-1.673.448ZM54.321,17.5l-.794-.176,2.186,6.725Z" fill="#e1cc85"/><path d="M62.628,15.06,60,40.046V16.257Z" fill="#021da5"/><path d="M63.649,13.642,60.863,40.137l-1.73-.091V15.7Zm-2.782,9.866.739-7.03-.739.337Z" fill="#e1cc85"/><path d="M65.226,15.471,60,40.045l2.486-23.658,2.739-.916Z" fill="#fff"/><path d="M66.39,14.167,60.849,40.225l-1.711-.271,2.544-24.213Zm-3.8,9.523,1.47-6.915-.771.258Z" fill="#e1cc85"/><path d="M67.767,16.151,60,40.045l4.946-23.269,2.82-.625Z" fill="#ff2600"/><path d="M69.061,14.976,60.826,40.313l-1.673-.448L64.215,16.05Zm-4.774,9.075,2.186-6.725-.794.176Z" fill="#e1cc85"/><path d="M35.42,34.827l24.575,5.222L37.371,32.7Z" fill="#021da5"/><path d="M37.108,31.7l23.155,7.523L59.815,40.9,33.755,35.36ZM44,35.763,37.634,33.7l-.549.6Z" fill="#e1cc85"/><path d="M35.008,37.425l24.987,2.624L36.726,35.1l-1.718,2.322Z" fill="#fff"/><path d="M36.361,34.139,60.175,39.2,59.9,40.912l-26.5-2.783Zm7.28,3.321-6.549-1.392-.484.654Z" fill="#e1cc85"/><path d="M34.87,40.052l25.124,0L36.335,37.563,34.87,40.052Z" fill="#ff2600"/><path d="M33.353,40.919l2.518-4.277,24.214,2.545-.091,1.73ZM36.8,38.484l-.412.7h7.072Z" fill="#e1cc85"/><path d="M37.044,29.829l22.951,10.22L37.371,32.7Z" fill="#021da5"/><path d="M36.01,28.419,60.348,39.257l-.621,1.617L36.572,33.35Zm8.521,5.693-6.454-2.874.092.807Z" fill="#e1cc85"/><path d="M38.238,27.485,59.995,40.048,38.263,30.373l-.025-2.888Z" fill="#fff"/><path d="M37.358,25.975,60.429,39.3l-.786,1.543L37.4,30.938Zm7.883,6.555-6.122-3.535.007.813Z" fill="#e1cc85"/><path d="M39.67,25.279,59.995,40.047l-20.6-11.894.277-2.874Z" fill="#ff2600"/><path d="M38.952,23.685,60.5,39.345,59.561,40.8,38.476,28.625Zm7.151,7.34-5.716-4.153-.078.808Z" fill="#e1cc85"/><path d="M47.437,61.813,60,40.055,46.014,59.3Z" fill="#021da5"/><path d="M47.43,63.56l-2.445-4.319L59.3,39.545l1.453.943Zm-.386-4.2.4.707,3.535-6.124Z" fill="#e1cc85"/><path d="M49.78,63.008,60,40.055,48.1,60.657l1.677,2.351Z" fill="#fff"/><path d="M49.955,64.747l-2.882-4.041L59.246,39.621l1.544.786Zm-.822-4.14.472.661,2.874-6.456Z" fill="#e1cc85"/><path d="M52.236,63.951,60,40.056,50.322,61.788Z" fill="#ff2600"/><path d="M52.592,65.662,49.3,61.945l9.9-22.242,1.617.621Zm-1.251-4.031.539.609,2.184-6.725Z" fill="#e1cc85"/><path d="M43.185,58.724,60,40.055,46.014,59.3Z" fill="#021da5"/><path d="M46.388,60.261l-4.863-.99,17.827-19.8,1.346,1.09Zm-1.543-2.084.8.162,3.931-5.411Z" fill="#e1cc85"/><path d="M41.325,56.864,60,40.055,44.078,57.733l-2.753-.869Z" fill="#fff"/><path d="M44.349,58.728l-4.732-1.494,19.8-17.824,1.225,1.225Zm-1.316-2.235.774.244,4.476-4.971Z" fill="#e1cc85"/><path d="M39.669,54.82,59.995,40.055,42.317,55.973Z" fill="#ff2600"/><path d="M42.483,56.991l-4.55-1.981L59.485,39.353l1.09,1.346ZM41.406,54.63l.746.325,4.977-4.482Z" fill="#e1cc85"/><path d="M76.815,58.724,60,40.055,73.986,59.3Z" fill="#021da5"/><path d="M73.612,60.261,59.3,40.565l1.346-1.09,17.827,19.8Zm-3.184-7.333,3.931,5.411.8-.162Z" fill="#e1cc85"/><path d="M78.675,56.864,60,40.055,75.922,57.733l2.753-.869Z" fill="#fff"/><path d="M75.651,58.728,59.359,40.635l1.225-1.225,19.8,17.824Zm-3.934-6.961,4.476,4.971.774-.244Z" fill="#e1cc85"/><path d="M80.331,54.82,60.005,40.055,77.683,55.973Z" fill="#ff2600"/><path d="M77.517,56.991,59.425,40.7l1.09-1.346L82.068,55.01Zm-4.646-6.518,4.977,4.482.746-.325Z" fill="#e1cc85"/><path d="M72.563,61.813,60,40.055,73.986,59.3Z" fill="#021da5"/><path d="M72.57,63.56,59.252,40.489l1.453-.943,14.311,19.7Zm-3.549-9.619,3.535,6.124.4-.707Z" fill="#e1cc85"/><path d="M70.22,63.008,60,40.055,71.9,60.657,70.22,63.008Z" fill="#fff"/><path d="M70.045,64.747,59.211,40.408l1.544-.786L72.927,60.707Zm-2.523-9.935L70.4,61.269l.472-.661Z" fill="#e1cc85"/><path d="M67.764,63.951,60,40.056l9.676,21.732Z" fill="#ff2600"/><path d="M67.408,65.662,59.177,40.324l1.617-.621,9.9,22.242ZM65.936,55.515,68.12,62.24l.539-.609Z" fill="#e1cc85"/><path d="M82.956,29.829,60.005,40.049,82.629,32.7Z" fill="#021da5"/><path d="M83.99,28.419l-.562,4.931L60.273,40.874l-.621-1.617ZM81.83,32.046l.092-.807-6.454,2.874Z" fill="#e1cc85"/><path d="M81.762,27.485,60.005,40.048l21.732-9.675.025-2.888Z" fill="#fff"/><path d="M82.642,25.975,82.6,30.938l-22.242,9.9L59.571,39.3Zm-1.768,3.832.007-.813L74.759,32.53Z" fill="#e1cc85"/><path d="M80.33,25.279,60.005,40.047l20.6-11.894-.277-2.874Z" fill="#ff2600"/><path d="M81.048,23.685l.476,4.94L60.439,40.8,59.5,39.345Zm-1.358,4-.078-.808L73.9,31.026Z" fill="#e1cc85"/><path d="M84.58,34.827,60.005,40.049,82.629,32.7Z" fill="#021da5"/><path d="M82.892,31.7l3.353,3.659L60.185,40.9l-.448-1.673Zm.024,2.593-.549-.6L76,35.763Z" fill="#e1cc85"/><path d="M84.992,37.425,60.005,40.049,83.274,35.1l1.718,2.322Z" fill="#fff"/><path d="M83.639,34.139l2.952,3.99L60.1,40.912,59.825,39.2Zm-.247,2.582-.484-.654L76.36,37.459Z" fill="#e1cc85"/><path d="M85.13,40.052l-25.124,0,23.659-2.487,1.465,2.489Z" fill="#ff2600"/><path d="M86.647,40.919l-26.641,0-.091-1.73,24.214-2.545ZM76.541,39.184h7.072l-.412-.7Z" fill="#e1cc85"/><path d="M60,40.028l2.918,23.1-1.488-.385L60,40.028" fill="#e1cc85"/><path d="M62.914,63.479a.347.347,0,0,1-.087-.011l-1.488-.385a.347.347,0,0,1-.259-.314l-1.428-22.7a.347.347,0,1,1,.691-.065v0l2.915,23.077a.347.347,0,0,1-.344.39Zm-1.158-1,.749.194L61.037,51.042Z" fill="#fff"/><path d="M59.995,40.028l5.489,21.38-1.4.048L59.995,40.028" fill="#e1cc85"/><path d="M64.083,61.8a.347.347,0,0,1-.341-.282L59.654,40.093a.347.347,0,0,1,.677-.151l5.489,21.38a.347.347,0,0,1-.324.433l-1.4.048ZM62.406,50.814,64.368,61.1l.672-.023Z" fill="#fff"/><path d="M59.994,40.026l5.49,21.382,1.2-.807Z" fill="#e1cc85"/><path d="M59.994,39.679a.347.347,0,0,1,.33.24l6.687,20.575a.347.347,0,0,1-.136.395l-1.2.807a.347.347,0,0,1-.53-.2l-5.49-21.382a.347.347,0,0,1,.336-.433ZM66.27,60.46l-3.2-9.84L65.7,60.845Z" fill="#fff"/><path d="M59.994,40.026l.006.1v-.1Zm.006.1V65.1l1.509-1.015Z" fill="#e1cc85"/><path d="M59.994,39.679H60a.347.347,0,0,1,.347.347v.093l1.508,23.94a.347.347,0,0,1-.153.31l-1.509,1.015a.347.347,0,0,1-.541-.288V40.14l-.005-.094a.347.347,0,0,1,.346-.367ZM61.15,63.9l-.8-12.75V64.445Z" fill="#fff"/><path d="M59.994,40.026l2.92,23.106,1.321-.885Z" fill="#e1cc85"/><path d="M59.994,39.679a.347.347,0,0,1,.34.282l4.241,22.221a.347.347,0,0,1-.148.353l-1.321.885a.347.347,0,0,1-.537-.245L59.65,40.07a.347.347,0,0,1,.345-.39Zm3.857,22.408-2.13-11.16,1.466,11.6Z" fill="#fff"/><path d="M60,40.028l-2.918,23.1,1.488-.385L60,40.028" fill="#e1cc85"/><path d="M57.086,63.479a.347.347,0,0,1-.344-.39l2.915-23.082a.347.347,0,1,1,.691.065v0L58.92,62.769a.347.347,0,0,1-.259.314l-1.488.385A.347.347,0,0,1,57.086,63.479Zm1.877-12.437L57.494,62.668l.749-.194Z" fill="#fff"/><path d="M60.005,40.028l-5.489,21.38,1.4.048,4.088-21.428" fill="#e1cc85"/><path d="M55.917,61.8h-.012l-1.4-.048a.347.347,0,0,1-.324-.433l5.489-21.38a.347.347,0,0,1,.677.151L56.258,61.521A.347.347,0,0,1,55.917,61.8Zm-.958-.727.672.023,1.962-10.286Z" fill="#fff"/><path d="M60.006,40.026l-5.49,21.382-1.2-.807Z" fill="#e1cc85"/><path d="M60.006,39.679a.347.347,0,0,1,.336.433l-5.49,21.382a.347.347,0,0,1-.53.2l-1.2-.807a.347.347,0,0,1-.136-.395l6.687-20.575A.347.347,0,0,1,60.006,39.679ZM54.3,60.845l2.626-10.226-3.2,9.84Z" fill="#fff"/><path d="M60.006,40.026l-.006.1v-.1Zm-.006.1V65.1l-1.509-1.015Z" fill="#e1cc85"/><path d="M60,39.679h.006a.347.347,0,0,1,.346.367l-.005.094V65.1a.347.347,0,0,1-.541.288L58.3,64.369a.347.347,0,0,1-.153-.31l1.508-23.94v-.093A.347.347,0,0,1,60,39.679Zm-.347,24.765V51.154l-.8,12.75Z" fill="#fff"/><path d="M60.006,40.026l-2.92,23.106-1.321-.885Z" fill="#e1cc85"/><path d="M60.006,39.679a.347.347,0,0,1,.345.39L57.43,63.176a.347.347,0,0,1-.537.245l-1.321-.885a.347.347,0,0,1-.148-.353l4.241-22.221A.347.347,0,0,1,60.006,39.679ZM56.812,62.531l1.466-11.6-2.13,11.16Z" fill="#fff"/><path d="M60,40.033,82.872,44.4l-.826,1.3L60,40.032" fill="#e1cc85"/><path d="M82.046,46.041a.347.347,0,0,1-.086-.011L59.932,40.374a.347.347,0,1,1,.151-.678h0l22.849,4.359a.347.347,0,0,1,.228.527l-.826,1.3A.347.347,0,0,1,82.046,46.041Zm-11.258-3.6,11.1,2.851.416-.653Z" fill="#fff"/><path d="M60,40.034l22.029,1.387-.387,1.347L60,40.034" fill="#e1cc85"/><path d="M81.639,43.115l-.044,0L59.954,40.378a.347.347,0,0,1,.065-.69l22.029,1.387a.347.347,0,0,1,.312.442l-.387,1.347A.347.347,0,0,1,81.639,43.115ZM71,41.074l10.386,1.312.186-.646Z" fill="#fff"/><path d="M59.995,40.035l22.031,1.386-.4-1.388Z" fill="#e1cc85"/><path d="M81.629,39.686a.347.347,0,0,1,.334.252l.4,1.388a.347.347,0,0,1-.355.442L59.973,40.381a.347.347,0,0,1,.022-.693Zm-.072,1.358-.19-.664H71.019Z" fill="#fff"/><path d="M59.995,40.035l.1.026-.1-.032Zm.1.026L83.84,47.776l-.5-1.749Z" fill="#e1cc85"/><path d="M60,39.682a.347.347,0,0,1,.107.017l.089.029,23.235,5.963a.347.347,0,0,1,.247.241l.5,1.749a.347.347,0,0,1-.441.425L60,40.394l-.091-.023a.347.347,0,0,1-.242-.446l0-.006A.347.347,0,0,1,60,39.682Zm23.065,6.632L70.686,43.137l12.641,4.108Z" fill="#fff"/><path d="M59.995,40.035,82.872,44.4l-.433-1.529Z" fill="#e1cc85"/><path d="M59.995,39.688l.044,0,22.444,2.833a.347.347,0,0,1,.29.25l.433,1.529a.347.347,0,0,1-.4.435L59.93,40.376a.347.347,0,0,1,.065-.688Zm22.173,3.5L70.9,41.761l11.484,2.19Z" fill="#fff"/><path d="M60,40.025,81.071,49.94l.094-1.534L60,40.026" fill="#e1cc85"/><path d="M81.071,50.287a.347.347,0,0,1-.148-.033L59.871,40.349a.348.348,0,1,1,.276-.637l.009,0,21.136,8.368a.347.347,0,0,1,.219.344l-.094,1.534a.347.347,0,0,1-.346.326ZM70.156,44.42l10.6,4.988.047-.772Z" fill="#fff"/><path d="M60,40.024,78.637,51.851l.479-1.317L60,40.025" fill="#e1cc85"/><path d="M78.637,52.2a.347.347,0,0,1-.186-.054L59.833,40.329a.347.347,0,1,1,.353-.6l0,0,19.095,10.5a.347.347,0,0,1,.159.423l-.479,1.317a.347.347,0,0,1-.326.228ZM69.52,45.655l8.938,5.672.23-.632Z" fill="#fff"/><path d="M60,40.022,78.637,51.851,77.5,52.74Z" fill="#e1cc85"/><path d="M60,39.675a.345.345,0,0,1,.186.054L78.823,51.558a.347.347,0,0,1,.028.566l-1.137.889a.347.347,0,0,1-.418.007L59.8,40.3a.347.347,0,0,1,.2-.628ZM78.036,51.88l-8.912-5.656,8.368,6.081Z" fill="#fff"/><path d="M60,40.022l.1.039-.1-.032Zm.1.039L83.84,47.776,82.408,48.9Z" fill="#e1cc85"/><path d="M60,39.675a.347.347,0,0,1,.129.025l.086.035,23.733,7.711a.347.347,0,0,1,.107.6L82.622,49.17a.347.347,0,0,1-.342.049l-22.3-8.832-.088-.029a.347.347,0,0,1-.227-.425l0-.007A.347.347,0,0,1,60,39.675ZM83.113,47.9,70.475,43.8l11.875,4.7Z" fill="#fff"/><path d="M60,40.022,81.071,49.94l-1.25.983Z" fill="#e1cc85"/><path d="M60,39.675a.346.346,0,0,1,.148.033l21.072,9.918a.347.347,0,0,1,.067.587l-1.25.983a.347.347,0,0,1-.382.031l-19.822-10.9A.347.347,0,0,1,60,39.675Zm20.416,10.34L69.831,45.033l9.956,5.475Z" fill="#fff"/><path d="M60,40.033,71.221,19.627l.978,1.186L60,40.033" fill="#e1cc85"/><path d="M60,40.38a.347.347,0,0,1-.3-.514L70.917,19.46a.347.347,0,0,1,.572-.054l.978,1.186a.347.347,0,0,1,.025.407l-12.2,19.22A.347.347,0,0,1,60,40.38ZM71.279,20.242,65.628,30.52l6.143-9.68Z" fill="#fff"/><path d="M60,40.034l8.126-20.523,1.162.785L60,40.034" fill="#e1cc85"/><path d="M60,40.381a.347.347,0,0,1-.322-.475l8.126-20.523a.347.347,0,0,1,.517-.16l1.162.785a.347.347,0,0,1,.12.435L60.317,40.182A.347.347,0,0,1,60,40.381Zm8.29-20.341-3.9,9.855,4.46-9.478Z" fill="#fff"/><path d="M60,40.036l8.126-20.525-1.442-.051Z" fill="#e1cc85"/><path d="M60,40.383a.347.347,0,0,1-.33-.454l6.684-20.576a.347.347,0,0,1,.342-.24l1.442.051a.347.347,0,0,1,.31.474L60.326,40.164A.347.347,0,0,1,60,40.383Zm6.933-20.567-3.2,9.836,3.885-9.812Z" fill="#fff"/><path d="M60,40.036l.056-.088L60,40.033Zm.056-.088,14.675-20.2-1.818-.066Z" fill="#e1cc85"/><path d="M60,40.383a.345.345,0,0,1-.178-.049l-.005,0a.347.347,0,0,1-.1-.5l.055-.077L72.623,19.5a.347.347,0,0,1,.306-.161l1.818.066a.347.347,0,0,1,.268.551L60.346,40.143l-.05.079A.347.347,0,0,1,60,40.383ZM73.1,20.038,66.256,30.829,74.07,20.073Z" fill="#fff"/><path d="M60,40.036,71.221,19.627l-1.588-.061Z" fill="#e1cc85"/><path d="M60,40.383a.347.347,0,0,1-.314-.495l9.63-20.47a.347.347,0,0,1,.327-.2l1.588.061a.347.347,0,0,1,.291.514L60.307,40.2A.347.347,0,0,1,60,40.383Zm9.846-20.462L65.015,30.2l5.632-10.246Z" fill="#fff"/><path d="M60,40.029,75.937,23.053l-1.43-.564L60,40.029" fill="#e1cc85"/><path d="M60,40.376a.347.347,0,0,1-.267-.568L74.24,22.268a.347.347,0,0,1,.395-.1l1.43.564a.347.347,0,0,1,.126.56L60.249,40.266A.346.346,0,0,1,60,40.376ZM74.614,22.9,67.3,31.739l8.029-8.551Z" fill="#fff"/><path d="M59.995,40.028,77,25.958,75.9,25.1l-15.9,14.932" fill="#e1cc85"/><path d="M60,40.375a.347.347,0,0,1-.238-.6l15.9-14.932a.347.347,0,0,1,.451-.021l1.1.862a.347.347,0,0,1,.008.541L60.216,40.3A.346.346,0,0,1,60,40.375ZM75.918,25.552l-7.631,7.165,8.161-6.752Z" fill="#fff"/><path d="M59.993,40.029,77,25.958l.5,1.356Z" fill="#e1cc85"/><path d="M59.993,40.376a.347.347,0,0,1-.221-.614L76.781,25.691a.347.347,0,0,1,.547.148l.5,1.356a.347.347,0,0,1-.122.4L60.2,40.31A.346.346,0,0,1,59.993,40.376ZM76.845,26.538l-8.136,6.731,8.373-6.082Z" fill="#fff"/><path d="M59.993,40.029l.066-.081L60,40.033Zm.066-.081,14.675-20.2.624,1.708Z" fill="#e1cc85"/><path d="M60,40.38a.347.347,0,0,1-.217-.076l-.005,0a.347.347,0,0,1-.052-.49l.06-.074,14.669-20.19a.347.347,0,0,1,.607.085l.624,1.708a.347.347,0,0,1-.059.34L60.334,40.16l-.054.075A.347.347,0,0,1,60,40.38Zm14.634-19.9L66.821,31.232l8.143-9.842Z" fill="#fff"/><path d="M59.993,40.029,75.937,23.053l.548,1.492Z" fill="#e1cc85"/><path d="M59.993,40.376a.347.347,0,0,1-.253-.584L75.684,22.815a.347.347,0,0,1,.579.118l.548,1.492a.347.347,0,0,1-.088.373L60.23,40.282A.346.346,0,0,1,59.993,40.376ZM75.805,23.7l-8,8.522,8.279-7.773Z" fill="#fff"/><path d="M60,40.029,44.063,23.053l1.43-.564L60,40.029" fill="#e1cc85"/><path d="M60,40.376a.346.346,0,0,1-.253-.109L43.81,23.29a.347.347,0,0,1,.126-.56l1.43-.564a.347.347,0,0,1,.395.1l14.511,17.54a.347.347,0,0,1-.267.568ZM44.666,23.188,52.7,31.739,45.386,22.9Z" fill="#fff"/><path d="M60.005,40.028,43,25.958l1.1-.862,15.9,14.932" fill="#e1cc85"/><path d="M60,40.375a.346.346,0,0,1-.221-.08L42.777,26.225a.347.347,0,0,1,.008-.541l1.1-.862a.347.347,0,0,1,.451.021l15.9,14.932a.347.347,0,0,1-.238.6ZM43.552,25.966l8.161,6.752-7.631-7.165Z" fill="#fff"/><path d="M60.007,40.029,43,25.958,42.5,27.314Z" fill="#e1cc85"/><path d="M60.007,40.376a.345.345,0,0,1-.2-.066L42.3,27.595a.347.347,0,0,1-.122-.4l.494-1.356a.347.347,0,0,1,.547-.149L60.228,39.762a.347.347,0,0,1-.221.614ZM42.92,27.187l8.368,6.079-8.132-6.727Z" fill="#fff"/><path d="M60.007,40.029l-.066-.081.061.085Zm-.066-.081L45.266,19.75l-.624,1.708Z" fill="#e1cc85"/><path d="M60,40.38a.347.347,0,0,1-.282-.145l-.054-.075L44.375,21.679a.347.347,0,0,1-.059-.34l.624-1.708a.347.347,0,0,1,.607-.085l14.669,20.19.06.074a.347.347,0,0,1-.052.49l-.005,0A.347.347,0,0,1,60,40.38ZM45.036,21.39l8.143,9.842L45.368,20.481Z" fill="#fff"/><path d="M60.007,40.029,44.063,23.053l-.548,1.492Z" fill="#e1cc85"/><path d="M60.007,40.376a.346.346,0,0,1-.237-.094L43.278,24.8a.347.347,0,0,1-.088-.373l.548-1.492a.347.347,0,0,1,.579-.118L60.26,39.791a.347.347,0,0,1-.253.584ZM43.92,24.449,52.2,32.222l-8-8.522Z" fill="#fff"/><path d="M60,40.033,48.779,19.627,47.8,20.813,60,40.033" fill="#e1cc85"/><path d="M60,40.38a.347.347,0,0,1-.293-.161L47.508,21a.347.347,0,0,1,.025-.407l.978-1.186a.347.347,0,0,1,.572.054L60.3,39.866a.347.347,0,0,1-.3.514ZM48.229,20.84l6.143,9.68L48.721,20.242Z" fill="#fff"/><path d="M60,40.034,51.871,19.511l-1.162.785L60,40.034" fill="#e1cc85"/><path d="M60,40.381a.347.347,0,0,1-.314-.2L50.4,20.444a.347.347,0,0,1,.12-.435l1.162-.785a.347.347,0,0,1,.517.16L60.32,39.906a.347.347,0,0,1-.322.475ZM51.149,20.417l4.46,9.478-3.9-9.855Z" fill="#fff"/><path d="M60,40.036,51.871,19.511l1.442-.051Z" fill="#e1cc85"/><path d="M60,40.383a.347.347,0,0,1-.323-.219L51.548,19.639a.347.347,0,0,1,.31-.474l1.442-.051a.347.347,0,0,1,.342.24l6.684,20.576a.347.347,0,0,1-.33.454ZM52.375,19.84l3.885,9.812-3.2-9.836Z" fill="#fff"/><path d="M60,40.036l-.056-.088.061.085Zm-.056-.088L45.266,19.75l1.818-.066Z" fill="#e1cc85"/><path d="M60,40.383a.347.347,0,0,1-.293-.161l-.05-.079L44.985,19.954a.347.347,0,0,1,.268-.551l1.818-.066a.347.347,0,0,1,.306.161L60.229,39.754l.055.077a.347.347,0,0,1-.1.5l-.005,0A.346.346,0,0,1,60,40.383ZM45.93,20.073l7.815,10.756L46.9,20.038Z" fill="#fff"/><path d="M60,40.036,48.779,19.627l1.588-.061Z" fill="#e1cc85"/><path d="M60,40.383a.347.347,0,0,1-.3-.18L48.475,19.794a.347.347,0,0,1,.291-.514l1.588-.061a.347.347,0,0,1,.327.2l9.63,20.47a.347.347,0,0,1-.314.495ZM49.354,19.952,54.985,30.2,50.151,19.921Z" fill="#fff"/><path d="M60,40.025,38.929,49.94l-.094-1.534L60,40.026" fill="#e1cc85"/><path d="M38.929,50.287a.347.347,0,0,1-.346-.326l-.094-1.534a.347.347,0,0,1,.219-.344l21.145-8.372a.348.348,0,1,1,.276.637l-.009,0-21.043,9.9A.347.347,0,0,1,38.929,50.287Zm.268-1.651.047.772,10.6-4.988Z" fill="#fff"/><path d="M60,40.024,41.363,51.851l-.479-1.317L60,40.025" fill="#e1cc85"/><path d="M41.363,52.2a.347.347,0,0,1-.326-.228l-.479-1.317a.347.347,0,0,1,.159-.423l19.1-10.5a.347.347,0,1,1,.353.6h0L41.549,52.144A.347.347,0,0,1,41.363,52.2Zm-.051-1.5.23.632,8.938-5.672Z" fill="#fff"/><path d="M60,40.022,41.363,51.851l1.137.889Z" fill="#e1cc85"/><path d="M60,39.675a.347.347,0,0,1,.2.628L42.7,53.021a.347.347,0,0,1-.418-.007l-1.137-.889a.347.347,0,0,1,.028-.566L59.816,39.729A.345.345,0,0,1,60,39.675ZM42.508,52.306l8.369-6.081-8.913,5.656Z" fill="#fff"/><path d="M60,40.022l-.1.039.1-.032Zm-.1.039L36.16,47.776,37.592,48.9Z" fill="#e1cc85"/><path d="M60,39.675a.347.347,0,0,1,.334.252l0,.007a.347.347,0,0,1-.227.425l-.088.029L37.72,49.22a.347.347,0,0,1-.342-.049l-1.432-1.121a.347.347,0,0,1,.107-.6l23.734-7.711.086-.035A.347.347,0,0,1,60,39.675ZM37.649,48.5l11.876-4.7L36.887,47.9Z" fill="#fff"/><path d="M60,40.022,38.929,49.94l1.25.983Z" fill="#e1cc85"/><path d="M60,39.675a.347.347,0,0,1,.167.651l-19.823,10.9a.347.347,0,0,1-.382-.031l-1.25-.983a.347.347,0,0,1,.067-.587l21.073-9.918A.346.346,0,0,1,60,39.675ZM40.213,50.508l9.957-5.475L39.585,50.015Z" fill="#fff"/><path d="M60,40.033,37.128,44.4l.826,1.3L60,40.032" fill="#e1cc85"/><path d="M37.954,46.041a.347.347,0,0,1-.293-.161l-.826-1.3a.347.347,0,0,1,.228-.527L59.917,39.7a.347.347,0,1,1,.151.678h0L38.04,46.03A.347.347,0,0,1,37.954,46.041Zm-.259-1.4.416.653,11.1-2.851Z" fill="#fff"/><path d="M60,40.034,37.974,41.421l.387,1.347L60,40.034" fill="#e1cc85"/><path d="M38.361,43.115a.347.347,0,0,1-.333-.251l-.387-1.347a.347.347,0,0,1,.312-.442l22.029-1.387a.347.347,0,0,1,.065.69L38.4,43.112Zm.066-1.375.186.646L49,41.074Z" fill="#fff"/><path d="M60.006,40.035,37.974,41.421l.4-1.388Z" fill="#e1cc85"/><path d="M38.371,39.686h0l21.635,0a.347.347,0,0,1,.022.693L38,41.767a.347.347,0,0,1-.355-.442l.4-1.388A.347.347,0,0,1,38.371,39.686Zm10.611.695H38.633l-.19.664Z" fill="#fff"/><path d="M60.006,40.035l-.1.026.1-.032Zm-.1.026L36.16,47.776l.5-1.749Z" fill="#e1cc85"/><path d="M60,39.682a.347.347,0,0,1,.329.237l0,.006a.347.347,0,0,1-.243.446L60,40.394,36.267,48.106a.347.347,0,0,1-.441-.425l.5-1.749a.347.347,0,0,1,.247-.241l23.236-5.963L59.9,39.7A.347.347,0,0,1,60,39.682ZM36.672,47.245l12.642-4.108L36.938,46.314Z" fill="#fff"/><path d="M60.006,40.035,37.128,44.4l.433-1.529Z" fill="#e1cc85"/><path d="M60.006,39.688a.347.347,0,0,1,.065.688L37.193,44.738a.347.347,0,0,1-.4-.435l.433-1.529a.347.347,0,0,1,.29-.25l22.445-2.833ZM37.615,43.951,49.1,41.761,37.832,43.183Z" fill="#fff"/><path d="M60,25.685a14.461,14.461,0,0,0-1.873.131l.136,1.027a13.237,13.237,0,0,0-3.369.9l-.4-.963a14.391,14.391,0,0,0-3.246,1.88l.631.826a13.439,13.439,0,0,0-2.459,2.459l-.826-.631a14.349,14.349,0,0,0-1.873,3.246l.962.4a13.232,13.232,0,0,0-.9,3.356l-1.028-.136a14.357,14.357,0,0,0-.124,1.866,14.562,14.562,0,0,0,.124,1.88l1.028-.136a13.242,13.242,0,0,0,.9,3.363l-.963.4A14.343,14.343,0,0,0,48.6,48.791l.826-.631a13.376,13.376,0,0,0,2.459,2.459l-.631.826a14.294,14.294,0,0,0,3.246,1.88l.4-.956a13.276,13.276,0,0,0,3.363.891l-.136,1.028a14.33,14.33,0,0,0,3.747,0l-.137-1.028a13.272,13.272,0,0,0,3.357-.891l.4.956a14.337,14.337,0,0,0,3.246-1.88l-.631-.826a13.4,13.4,0,0,0,2.458-2.459l.827.631a14.324,14.324,0,0,0,1.879-3.239l-.962-.4a13.232,13.232,0,0,0,.9-3.363l1.028.136a14.559,14.559,0,0,0,.13-1.88,14.355,14.355,0,0,0-.13-1.866l-1.028.136a13.234,13.234,0,0,0-.891-3.363l.956-.4a14.349,14.349,0,0,0-1.873-3.246l-.826.631A13.44,13.44,0,0,0,68.1,29.484l.637-.826a14.391,14.391,0,0,0-3.246-1.88l-.4.963a13.275,13.275,0,0,0-3.363-.9l.137-1.027A14.3,14.3,0,0,0,60,25.685Z" fill="#d69e00" fill-rule="evenodd"/><path d="M72.279,40.048A12.281,12.281,0,1,1,60,27.767,12.282,12.282,0,0,1,72.279,40.048Z" fill="#00a4e3" fill-rule="evenodd"/><path d="M67.8,40.048A7.806,7.806,0,1,1,60,32.242,7.806,7.806,0,0,1,67.8,40.048Z" fill="#021da5" fill-rule="evenodd"/><path d="M60,32.658a3.7,3.7,0,0,0-3.52,2.557A3.692,3.692,0,0,0,54.313,41.9,3.7,3.7,0,0,0,60,46.026,3.689,3.689,0,0,0,65.678,41.9l.006-.006a3.695,3.695,0,0,0-2.173-6.681A3.692,3.692,0,0,0,60,32.658Z" fill="rgba(255,250,0,0.94)" fill-rule="evenodd"/><path d="M59.9,34.328a5.689,5.689,0,0,0-1.353.182v3.46h-.208v-3.4a5.726,5.726,0,0,0-1.353.612l-.007,2.79h-.618l.417-.52V35.323a5.714,5.714,0,0,0-2.453,4h1.308l-.332.527H54.282c0,.066-.006.13-.006.195a5.706,5.706,0,0,0,.865,3.032h3.122l-1.9,1.392a5.751,5.751,0,0,0,1.229.774l1.789-1.295v1.789a5.8,5.8,0,0,0,1.236,0V43.948L62.4,45.243a5.733,5.733,0,0,0,1.23-.774l-1.893-1.392h3.116a5.71,5.71,0,0,0,.871-3.032c0-.065,0-.129-.006-.195H64.7l-.332-.527h1.3a5.7,5.7,0,0,0-2.446-4V37.45l.417.52h-.618l-.007-2.784a5.723,5.723,0,0,0-1.353-.611v3.4h-.208V34.51a5.638,5.638,0,0,0-1.353-.182v5h.976l-.332.527h-1.5l-.332-.527H59.9Zm-2.914,5h.585l.332.527H56.65Zm5.451,0h.585l.332.527H62.1ZM55.726,41.2h3.656v.521H56.695v1.145Zm4.892,0h3.656l-.969,1.666V41.724H60.618Z" fill="rgba(255,38,0,0.94)" fill-rule="evenodd"/><path d="M56.325,28.811c-.766.122-1.689.565-1.47,2.55-.15.089-.3.184-.443.28a1.57,1.57,0,0,0-.345-1.815c-.724.279-1.54.9-.91,2.8-.126.116-.245.236-.365.358a1.579,1.579,0,0,0-.722-1.7c-.65.423-1.318,1.2-.305,2.934q-.148.207-.287.422c-.051-.63-.4-1.412-1.053-1.515-.548.549-1.04,1.448.305,2.927-.068.158-.134.32-.195.481-.181-.606-.683-1.3-1.346-1.268-.422.651-.715,1.636.91,2.8-.033.166-.066.331-.091.5-.3-.554-.934-1.122-1.574-.949-.277.724-.363,1.746,1.47,2.55,0,.176.009.352.02.527-.411-.484-1.148-.923-1.744-.618-.12.766.007,1.78,1.965,2.185q.055.25.124.495a1.572,1.572,0,0,0-1.828-.228c.041.775.38,1.748,2.38,1.737.073.157.148.309.228.462a1.575,1.575,0,0,0-1.841.149c.2.75.733,1.624,2.687,1.2.1.139.209.277.319.41a1.568,1.568,0,0,0-1.763.533c.353.692,1.056,1.438,2.881.612.131.115.261.23.4.338-.633-.016-1.454.241-1.626.885.488.6,1.33,1.182,2.94,0,.151.085.306.163.462.241-.622.117-1.365.547-1.4,1.209.6.488,1.546.882,2.876-.611a10.051,10.051,0,0,0,1.886.39l-1.333.761c-.016.328.125.4.318.4l1.841-1.1c.1,0,.2.006.306.006s.2,0,.3-.006l1.841,1.1c.194.008.335-.069.319-.4l-1.334-.761a10.045,10.045,0,0,0,1.887-.39c1.33,1.493,2.272,1.1,2.875.611-.034-.665-.775-1.094-1.4-1.209.156-.078.311-.156.462-.241,1.61,1.182,2.452.6,2.941,0-.172-.645-.993-.9-1.627-.885.138-.109.272-.222.4-.338,1.823.824,2.529.08,2.881-.612a1.577,1.577,0,0,0-1.769-.533c.11-.133.216-.271.319-.41,1.954.427,2.485-.447,2.686-1.2a1.571,1.571,0,0,0-1.841-.149c.08-.153.162-.305.235-.462,2,.009,2.333-.963,2.374-1.737a1.567,1.567,0,0,0-1.828.234c.046-.165.086-.332.124-.5,1.957-.4,2.085-1.419,1.964-2.185a1.563,1.563,0,0,0-1.737.6c.011-.17.018-.342.02-.514,1.83-.8,1.741-1.826,1.463-2.55-.639-.173-1.269.4-1.574.949-.025-.169-.058-.334-.091-.5,1.626-1.168,1.333-2.153.911-2.8-.664-.036-1.166.661-1.347,1.268-.06-.161-.12-.323-.188-.481,1.344-1.478.847-2.378.3-2.927-.656.1-1,.885-1.047,1.515-.092-.144-.194-.283-.293-.422,1.013-1.731.345-2.511-.306-2.934-.62.237-.8,1.076-.722,1.7-.12-.122-.239-.242-.364-.358.629-1.9-.187-2.518-.911-2.8a1.573,1.573,0,0,0-.345,1.815c-.144-.1-.292-.191-.442-.28.218-1.985-.7-2.428-1.47-2.55a1.573,1.573,0,0,0,.039,1.848c-.154-.061-.311-.116-.469-.169-.5-.881-2.392-1.552-3.076-.534-.055,0-.108-.006-.163-.006s-.113,0-.169.006c-.685-1.018-2.579-.347-3.077.534-.157.053-.315.108-.468.169a1.573,1.573,0,0,0,.039-1.848Zm3.656,1.555h.032c.279.89,2.312.783,3.044.5.255.085.51.175.755.28-.526.312-1.233.679-1.334,1.288.513.7,2.086-.021,2.537-.664.191.116.378.243.56.371-.579.2-1.344.4-1.568.976.355.8,2.039.41,2.615-.124q.246.232.475.482c-.607.07-1.4.117-1.737.631.181.85,1.9.823,2.583.422.128.184.255.373.37.566-.609-.056-1.4-.18-1.834.254,0,.872,1.7,1.205,2.446.95.086.205.162.418.234.631-.584-.182-1.328-.463-1.847-.13-.181.851,1.411,1.529,2.192,1.437.041.22.077.439.1.664-.533-.3-1.206-.725-1.782-.508-.354.8,1.064,1.788,1.847,1.861,0,.226-.019.454-.039.676-.459-.4-1.023-.971-1.633-.878-.512.706.668,1.982,1.418,2.212-.051.219-.109.437-.175.65-.366-.49-.8-1.16-1.418-1.2-.649.585.243,2.079.93,2.459-.095.2-.2.4-.306.592-.255-.555-.552-1.294-1.145-1.457-.754.436-.194,2.078.4,2.6-.136.178-.275.352-.423.52-.134-.6-.259-1.382-.807-1.665-.827.269-.626,1.984-.156,2.615-.17.147-.339.294-.52.429-.007-.612.029-1.41-.449-1.8-.869.092-1.022,1.821-.689,2.531-.2.107-.395.211-.6.305.12-.6.321-1.371-.065-1.854-.87-.091-1.383,1.573-1.2,2.336-.169.051-.342.1-.514.136.262-.348.307-.755-.02-.91a1.141,1.141,0,0,0-.364-.052,2.224,2.224,0,0,0-1.9,1.19A2.221,2.221,0,0,0,58.1,48.5a1.143,1.143,0,0,0-.365.052c-.327.155-.276.561-.013.91-.174-.042-.35-.085-.52-.136.18-.763-.334-2.427-1.2-2.336-.386.483-.185,1.254-.065,1.854-.2-.094-.4-.2-.6-.305.333-.71.179-2.439-.69-2.531-.478.392-.441,1.19-.448,1.8-.181-.135-.35-.282-.521-.429.47-.631.679-2.346-.149-2.615-.548.283-.68,1.069-.814,1.665-.147-.168-.287-.342-.422-.52.591-.518,1.151-2.16.4-2.6-.594.163-.883.908-1.138,1.464-.11-.2-.216-.394-.312-.6.686-.38,1.579-1.874.93-2.459-.616.037-1.053.707-1.418,1.2-.066-.213-.124-.431-.176-.65.751-.23,1.931-1.506,1.418-2.212-.609-.093-1.173.474-1.632.878-.02-.222-.028-.45-.033-.676.784-.078,2.194-1.067,1.841-1.861-.576-.217-1.25.208-1.782.508.026-.225.062-.444.1-.664.781.092,2.373-.586,2.192-1.437-.519-.333-1.264-.052-1.848.13.073-.213.155-.425.241-.631.744.253,2.439-.079,2.44-.95-.44-.434-1.226-.31-1.835-.254.115-.193.243-.382.371-.566.678.4,2.4.428,2.582-.422-.338-.514-1.13-.561-1.736-.631.153-.166.31-.327.474-.482.577.534,2.261.92,2.615.124-.224-.573-.988-.781-1.567-.976.182-.129.368-.254.559-.371.452.643,2.024,1.369,2.537.664-.1-.61-.807-.976-1.333-1.288.245-.1.5-.195.754-.28.732.282,2.764.388,3.045-.5Zm-1.9,18.448a.676.676,0,0,1,.078,0c.5.033,1.475.525,1.347.82-.013.053-.114.071-.254.065-.043,0-.087-.009-.13-.013-.551-.069-1.473-.415-1.217-.813A.262.262,0,0,1,58.081,48.814Zm3.753,0a.324.324,0,0,1,.254.059c.257.4-.665.744-1.216.813-.043,0-.087.01-.13.013-.141.006-.242-.012-.254-.065C60.359,49.339,61.333,48.847,61.834,48.814Z" fill="#d69e00"/><path d="M96.26,28.353a.965.965,0,0,1,.328.178.925.925,0,0,1,.274.328q1.5-.355,3.185-.643,1.778-.2,3.336-.314,1.026-.041,1.887-.041a1.581,1.581,0,0,1,.424-.233.732.732,0,0,1,.519.342A1.973,1.973,0,0,1,106.719,29q0,.409-.656.41a4.607,4.607,0,0,1-.82-.151,1.64,1.64,0,0,0-.616.3,1.693,1.693,0,0,1-.423.178.124.124,0,0,1-.137-.123,5.259,5.259,0,0,0,1.025-1.094c-.255,0-.555,0-.9.014q-1.791.15-3.582.369a18.688,18.688,0,0,0-2.283.437,2.973,2.973,0,0,1-1.313.452.688.688,0,0,1-.314-.069.24.24,0,0,0-.014.069,5.649,5.649,0,0,0-.068.82.57.57,0,0,1-.164.4c-.219.265-.378.4-.479.4-.2,0-.3-.3-.3-.9a6.311,6.311,0,0,1,.151-1.272Q96.069,28.354,96.26,28.353Zm5.742,2a1.572,1.572,0,0,1,.889.356,1.257,1.257,0,0,1,.424.888.417.417,0,0,1-.1.287.421.421,0,0,1-.287.151.444.444,0,0,1-.205-.069.554.554,0,0,1-.191-.218c-.019-.055-.033-.1-.041-.123a8.161,8.161,0,0,1-1.245.273.48.48,0,0,1,.055.219c-.036.173-.063.314-.082.424a4.2,4.2,0,0,0,.52-.055c.51-.064.834-.1.97-.109.3.036.452.164.452.382a.389.389,0,0,1-.151.356.737.737,0,0,1-.41.219q-.423.027-1.367.054a.287.287,0,0,0,.013.082,2.263,2.263,0,0,1,.055.4V33.9q.628-.013,1.217-.041.684,0,1.189-.028a2.971,2.971,0,0,1,.3-.027.845.845,0,0,1,.492.219.571.571,0,0,1,.164.424c0,.246-.177.369-.533.369a2.635,2.635,0,0,1-.451-.041l-.4-.028q-1.792.029-3.678.082-1.341.042-1.873.083a.408.408,0,0,1-.356-.137.664.664,0,0,1-.136-.315c.008-.182.2-.323.574-.423q.492-.029,2.584-.11a2.937,2.937,0,0,1-.041-.519c-.237.008-.465.018-.684.027-.346.019-.61.027-.793.027a.379.379,0,0,1-.273-.123.427.427,0,0,1-.164-.314.29.29,0,0,1,.273-.3c.41-.018.771-.036,1.08-.055.173-.018.347-.031.52-.041v-.259q.014-.192.027-.315a11.25,11.25,0,0,1-1.34.192c-.082,0-.169-.064-.259-.192a.564.564,0,0,1-.1-.246.605.605,0,0,1,.1-.355.574.574,0,0,1,.287-.178,2.179,2.179,0,0,0,.478-.561,2.282,2.282,0,0,1,.246-.328,3.632,3.632,0,0,1-.41.027q-.561,0-.725-.724a.234.234,0,0,1,.233-.233,16.564,16.564,0,0,0,2.338-.232c.337-.063.62-.118.847-.164a3.6,3.6,0,0,1,.629-.1.612.612,0,0,1,.383.2.53.53,0,0,1,.164.356c0,.128-.091.214-.273.26q-.834.219-1.518.355a1.064,1.064,0,0,1-.232.178q-1.312.574-1.354.875Q100.4,31.17,102,31c-.182-.164-.273-.277-.273-.341a.411.411,0,0,1,.082-.233C101.838,30.376,101.9,30.349,102,30.349Zm-.027-7.629q.972-.123,1.463-.137a.543.543,0,0,1,.355.124.429.429,0,0,1,.178.328.4.4,0,0,1-.287.369q-1.23.219-2.269.342a2.22,2.22,0,0,0-.082.492q.381-.054.779-.137.89-.177,1.135-.219c.3.037.451.174.451.41a.41.41,0,0,1-.137.342.633.633,0,0,1-.437.233q-.575.1-1.928.232-.807.069-1.586.151a7.8,7.8,0,0,1-.916.082.418.418,0,0,1-.3-.137.441.441,0,0,1-.15-.315.307.307,0,0,1,.287-.3q.709-.056,1.271-.11c.164-.018.328-.041.492-.068v-.533q-.984.1-1.777.123a.914.914,0,0,1-.342-.055.307.307,0,0,1-.191-.137.585.585,0,0,1-.233-.437c.009-.091.074-.159.192-.2q.615-.069,1.6-.137.4-.054.751-.082v-.027a1.94,1.94,0,0,1,.219-.725.589.589,0,0,1,.369-.232,1.142,1.142,0,0,1,.534.341.713.713,0,0,1,.177.452v.027C101.738,22.757,101.866,22.739,101.975,22.72Zm-3.1,2.817a.642.642,0,0,1,.478.273c.265-.055.533-.118.807-.191a22.7,22.7,0,0,1,3.049-.342c.464.009.7.164.7.465a1.24,1.24,0,0,1-.643,1.025,5.284,5.284,0,0,1-1.093.684q-.424.013-1.149.095a7.937,7.937,0,0,0-.875.178c-.018.292-.137.438-.355.438q-.369,0-.971-.807a2.522,2.522,0,0,1-.424-1.148,1.224,1.224,0,0,1,.191-.493Q98.776,25.537,98.872,25.537Zm1.162,1.627c.227-.055.46-.114.7-.178q.409-.069.971-.123.7-.356.7-.684a15.448,15.448,0,0,0-2.119.2,2.314,2.314,0,0,0-.465.246A3.305,3.305,0,0,1,100.034,27.164Z" fill="#606060"/><path d="M112.426,22.843a1.088,1.088,0,0,1,.711.246,1.075,1.075,0,0,1,.424.7,7.952,7.952,0,0,1-.3,1.49,15.966,15.966,0,0,0-.232,2.051q-.014.588-.041,1.2a3.115,3.115,0,0,1,.971-.465c.063.018.1.046.1.082a3.082,3.082,0,0,1-.232.82,2.365,2.365,0,0,1-.533.889c-.128.155-.246.292-.356.41q-.027.711-.055,1.422a1.466,1.466,0,0,1-1.093,1.641q-.424-.165-.424-1.135c.036-.2.068-.4.1-.588l-.274.219a2.1,2.1,0,0,1-1.3.7.517.517,0,0,1-.465-.2c-.172-.146-.259-.274-.259-.383a1.111,1.111,0,0,1,.314-.684,14.618,14.618,0,0,1,2.3-1.927c.019-.2.032-.387.041-.561q.083-.821.109-1.6a5.216,5.216,0,0,0-.683.164,3.109,3.109,0,0,1-1.053.287.945.945,0,0,1-.615-.178.671.671,0,0,1-.178-.533q.014-.888,1.422-.889c.483.027.861.046,1.135.055v-.137a15.387,15.387,0,0,0-.219-2.666C111.738,22.985,111.97,22.843,112.426,22.843Zm4.252-.369q.875.082.875.793a10.352,10.352,0,0,0-.205,1.449c-.036.484-.055.8-.055.957v.1q.357-.136.739-.26a4.342,4.342,0,0,1,1.121-.328.409.409,0,0,1,.342.246,1.3,1.3,0,0,1,.218.67.994.994,0,0,1-.629.861,3.063,3.063,0,0,1-.957.438,3.681,3.681,0,0,1-.834.137v3.7c.009.255.11.383.3.383h1.5a1.735,1.735,0,0,1,.711.191c.146.091.219.187.219.287q0,.972-3.022.971-1.107,0-1.175-1.545-.151-4.867-.164-6.549a8.1,8.1,0,0,1,.287-1.805C116.208,22.707,116.451,22.474,116.678,22.474Z" fill="#606060"/><path d="M123.683,27.15a1.256,1.256,0,0,1,.369.191,1.382,1.382,0,0,1,.233.26q1.366-.218,2.912-.383,1.613-.136,3.021-.218,1.039-.042,1.942-.042a1.094,1.094,0,0,1,.437-.164.7.7,0,0,1,.52.342,2.017,2.017,0,0,1,.519,1.039q0,.425-.656.424a5.108,5.108,0,0,1-.861-.137,2.126,2.126,0,0,0-.684.26,2.693,2.693,0,0,1-.478.164c-.082,0-.128-.045-.137-.136a5.161,5.161,0,0,0,1.148-1.053q-.4.013-.916.027-1.641.109-3.295.26a17.986,17.986,0,0,0-2.091.328,3.351,3.351,0,0,1-1.217.314.522.522,0,0,1-.192-.027,2.01,2.01,0,0,0-.013.219c-.019.365-.028.688-.028.971a.648.648,0,0,1-.164.437c-.227.274-.391.41-.492.41-.227,0-.342-.309-.342-.929a11.8,11.8,0,0,1,.123-1.532Q123.546,27.151,123.683,27.15Zm.492-3.568q.205,0,.575.642a2.208,2.208,0,0,1,.314.82.781.781,0,0,1-.109.356c-.046.082-.1.123-.151.123a.713.713,0,0,1-.615-.438q-.083-.273-.205-.669a.766.766,0,0,1-.178-.383.608.608,0,0,1,.123-.3A.471.471,0,0,1,124.175,23.582Zm2.174,1.695a2.594,2.594,0,0,1,1.135.437.924.924,0,0,1,.383.725c0,.319-.118.478-.356.478a.868.868,0,0,1-.574-.218,2.071,2.071,0,0,0-.656-.561c-.082-.063-.146-.114-.192-.15q-.479.984-.875,1.012c-.082.018-.159.032-.232.041-.082.045-.183.095-.3.15a.567.567,0,0,1-.314.137.13.13,0,0,1-.028-.1A3.871,3.871,0,0,1,125,25.81a3.753,3.753,0,0,0,.656-2c-.009-.228-.014-.51-.014-.848.082-.364.241-.547.479-.547a.493.493,0,0,1,.314.151.6.6,0,0,1,.192.437,8.009,8.009,0,0,1-.288,2.27Zm-1.408,6.4a.553.553,0,0,1,.4.2,1.492,1.492,0,0,0,.547-.095q.069.014.069.054a2.09,2.09,0,0,0-.452.93q0,.342.028.684-.014.287-.533.287-.548-.014-.547-1.108a2.132,2.132,0,0,1,.136-.588Q124.8,31.675,124.941,31.675Zm2.926-3.65a.83.83,0,0,1,.724.4,1.916,1.916,0,0,1,.164.862c.21-.028.415-.059.616-.1q.971-.123,1.093-.123a.8.8,0,0,1,.52.232,1.291,1.291,0,0,1,.314.7q0,.286-.423.287c-.539,0-1.171.018-1.9.054-.055.01-.1.019-.137.028.009.191.019.447.028.765s.013.662.013,1.026a3.554,3.554,0,0,1-.218,1.449.737.737,0,0,1-.6.479,1.881,1.881,0,0,0-.424.423.64.64,0,0,1-.424.233q-.369,0-.451-.561c0-.182-.145-.355-.437-.519a.754.754,0,0,1-.205-.274c.018-.054.05-.082.1-.082.173.019.351.032.534.041a.134.134,0,0,0,.054-.013q.78-.123.78-1.409.012-.6.013-1.285v-.013l-.465.123a5.037,5.037,0,0,1-1.5.437.944.944,0,0,1-.944-.752c.009-.273.192-.455.547-.547q1.08-.233,2.338-.424v-.2c-.009-.2-.023-.4-.041-.6-.019-.082-.05-.2-.1-.342A.4.4,0,0,1,127.867,28.025Zm2.556-2.967a2.523,2.523,0,0,1,1.162.424.84.84,0,0,1,.4.7c0,.338-.114.506-.342.506a.8.8,0,0,1-.588-.246,2.433,2.433,0,0,0-.711-.52,1.8,1.8,0,0,1-.3-.287q-.506.876-.958.9c-.082.018-.159.036-.232.054-.091.037-.205.087-.342.151a.572.572,0,0,1-.328.136.131.131,0,0,1-.027-.095,3.318,3.318,0,0,1,.724-1.34,3.048,3.048,0,0,0,.26-.4.289.289,0,0,1-.232.1c-.164,0-.364-.132-.6-.4a.959.959,0,0,1-.246-.561.281.281,0,0,1,.014-.109,7,7,0,0,0-.643.424c-.237.392-.419.587-.547.587-.082,0-.128-.031-.136-.095a2.519,2.519,0,0,1,.191-.6q.287-.6.52-1.012.369-.546.546-.546a.489.489,0,0,1,.547.56.854.854,0,0,1-.068.4,1.071,1.071,0,0,1,.752.9.754.754,0,0,1-.027.246,2.744,2.744,0,0,0,.41-1.367q-.014-.315-.014-.793.123-.615.506-.615a.476.476,0,0,1,.328.164.7.7,0,0,1,.219.478,6.5,6.5,0,0,1-.356,2.27A.652.652,0,0,1,130.423,25.058Zm.069,5.906a2,2,0,0,1,1.189.52,2.029,2.029,0,0,1,.574,1.34.619.619,0,0,1-.191.478.645.645,0,0,1-.492.287.744.744,0,0,1-.356-.136.77.77,0,0,1-.314-.37,2.334,2.334,0,0,0-.3-.847,2.025,2.025,0,0,1-.478-.848.608.608,0,0,1,.109-.314C130.268,31,130.355,30.964,130.492,30.964Zm1.463-8.052a.489.489,0,0,1,.546.56.467.467,0,0,1-.123.383.422.422,0,0,1-.3.137,3.74,3.74,0,0,0-.684.369q-.382.465-.561.465-.109,0-.123-.123a1.415,1.415,0,0,1,.178-.493c.192-.328.364-.606.52-.834Q131.777,22.912,131.955,22.912Z" fill="#606060"/><path d="M144.347,27.123q.684.081.684.615a.644.644,0,0,1-.205.533,1.011,1.011,0,0,1-.643.328,7.975,7.975,0,0,1-1.121.561,9.358,9.358,0,0,0,.547,1.3,8.363,8.363,0,0,0,1.367,1.764,3.434,3.434,0,0,0,1.2.738c.128,0,.255-.141.383-.423.155-.456.241-.7.26-.725a1,1,0,0,1,.15.055,3.74,3.74,0,0,0,.233,1.408c.254.173.382.35.382.533a.464.464,0,0,1-.15.383,3.572,3.572,0,0,0-.52.273.667.667,0,0,1-.423.164,3.353,3.353,0,0,1-1.873-.793,7.537,7.537,0,0,1-1.846-2.214,11.451,11.451,0,0,1-.82-1.928c-.009-.036-.019-.068-.028-.1a13.326,13.326,0,0,0-1.722.588,3.436,3.436,0,0,1-.848.26q0,1.12-.014,1.805.9-.315,1.682-.629a3.6,3.6,0,0,1,.807-.2c.136.009.205.05.205.123q0,.669-1.039,1.38a6.692,6.692,0,0,1-1.573.793,8.355,8.355,0,0,1-2.1.643q-.206,0-.52-.369a1.25,1.25,0,0,1-.246-.588c.009-.155.151-.282.424-.383a5.365,5.365,0,0,0,1.107-.273,1.228,1.228,0,0,1-.013-.178q0-1.831.027-3.951.028-.957.109-1.928.125-1.161.342-2.447.328-1.286.588-1.285a.7.7,0,0,1,.451.273,1.716,1.716,0,0,1,.547-.082q1.71-.013,3.678-.014a4.291,4.291,0,0,1,.547-.56,1.068,1.068,0,0,1,.574.164.475.475,0,0,1,.178.437,3.215,3.215,0,0,1-.533,1.7,5.618,5.618,0,0,1-.329.465.5.5,0,0,1,.233.451c0,.255-.151.383-.451.383-.583.1-1.154.218-1.709.355a1.1,1.1,0,0,1,.369.574,5.323,5.323,0,0,0,.055.766c.1-.036.191-.073.273-.11Q144.059,27.232,144.347,27.123Zm-2.953-.356a8.394,8.394,0,0,1-1.859.547.637.637,0,0,1-.137-.014c-.019.256-.027.488-.027.7v.97a7.4,7.4,0,0,0,.943-.232,12.406,12.406,0,0,0,1.244-.424c-.027-.127-.05-.241-.068-.342a6.5,6.5,0,0,1-.164-.861A1.393,1.393,0,0,1,141.394,26.767Zm-1.887-.656q1.013-.233,2.352-.52c.364-.082.67-.145.916-.191l.342-.369a2.916,2.916,0,0,0,.629-1.094c0-.063-.019-.1-.055-.1a20.132,20.132,0,0,1-2.037.356,15.5,15.5,0,0,1-1.928.314c-.036.21-.077.451-.123.725Q139.549,25.688,139.507,26.111Z" fill="#606060"/><path d="M152.76,27.833a1.3,1.3,0,0,1,.862.465,1.983,1.983,0,0,1,.423,1.19.328.328,0,0,1-.109.26.335.335,0,0,1-.246.15.468.468,0,0,1-.219-.068.511.511,0,0,1-.164-.2.686.686,0,0,0-.041-.165c-.063.028-.132.06-.205.1q-.355.192-.916.533a2.209,2.209,0,0,1-1.244.547.585.585,0,0,1-.451-.246.442.442,0,0,1-.192-.355.974.974,0,0,1,.123-.356q.165-.233.246-.369.438-.628.862-1.312a9.118,9.118,0,0,1-1.19-.233c-.282-.063-.424-.282-.424-.656a.463.463,0,0,1,.178-.41,1.273,1.273,0,0,1,.52-.123h.027q.411-.97.766-1.764a8.1,8.1,0,0,1,.806-1.367c.238-.292.433-.438.588-.438s.274.1.383.287a.865.865,0,0,1,.123.452,1.374,1.374,0,0,1-.369.888q-.506.738-1.107,1.532a5.8,5.8,0,0,0-.288.656,3.4,3.4,0,0,1,.506.355q.369-.629.739-1.271.642-1.135,1.121-1.135a.419.419,0,0,1,.341.219.853.853,0,0,1,.137.424,1.454,1.454,0,0,1-.355.779q-.767.984-1.244,1.64Zm-2.242,3.733a.64.64,0,0,1,.465.273,5.226,5.226,0,0,0,.465.7,1.1,1.1,0,0,1,.369.738c0,.282-.128.424-.383.424q-.341,0-1-.875a1.67,1.67,0,0,1-.342-.9A.373.373,0,0,1,150.518,31.566Zm1.313-.684a1.091,1.091,0,0,1,.929,1.149q0,.329-.3.328A.841.841,0,0,1,151.79,32a1.859,1.859,0,0,1-.315-.888C151.475,30.96,151.593,30.882,151.831,30.882Zm.7-2.748a4.065,4.065,0,0,0-.588,1,3.353,3.353,0,0,0,.957-.382A1.623,1.623,0,0,1,152.528,28.134Zm.574,1.86a1.02,1.02,0,0,1,.916,1.066q0,.328-.287.328a.867.867,0,0,1-.684-.342,1.689,1.689,0,0,1-.314-.82Q152.733,29.993,153.1,29.994Zm1.531.929c.21.01.315.1.315.274a5.063,5.063,0,0,0-.082.984,9.29,9.29,0,0,0-.055.985c0,.418-.087.628-.26.628-.082,0-.232-.172-.451-.519a.912.912,0,0,1-.137-.465,5.372,5.372,0,0,1,.178-1.025Q154.5,30.922,154.633,30.923Zm2.352-8.654a.434.434,0,0,1,.342.273,1.07,1.07,0,0,1,.1.452.417.417,0,0,1-.232.437,9.188,9.188,0,0,0-.875.52c.1-.018.205-.041.314-.069a9.133,9.133,0,0,1,1.614-.177,3.231,3.231,0,0,1,.424.054,1.29,1.29,0,0,1,.615-.232.893.893,0,0,1,.711.342,1.488,1.488,0,0,1,.259.943q.123,1.545.123,3.432a3.047,3.047,0,0,1-.4,1.435,1.019,1.019,0,0,1-.82.574c-.246,0-.388-.168-.424-.505a.422.422,0,0,0-.233-.219,2.787,2.787,0,0,0-.533-.151,10.265,10.265,0,0,0-2.092.274.951.951,0,0,1-.109.26.623.623,0,0,1-.451.3q-.26,0-.451-.478a5.106,5.106,0,0,1-.205-1.395q-.014-1.544-.014-2.925a5.122,5.122,0,0,1,.178-1.163q.218-.4.506-.4a.69.69,0,0,1,.232.068.608.608,0,0,1,.055-.109,6.841,6.841,0,0,1,.437-.725Q156.67,22.268,156.985,22.269Zm-1.176,8.313a.34.34,0,0,1,.315.273,3.74,3.74,0,0,0,.738,1.572,2.025,2.025,0,0,0,1.517.52,5.407,5.407,0,0,0,.807-.041c.173-.036.26-.091.26-.164a2.217,2.217,0,0,0-.3-.7,1.276,1.276,0,0,1-.164-.464c.009-.046.032-.069.068-.069q.083.069.4.424a1.909,1.909,0,0,0,1.066.4c.238.009.356.095.356.259a1.465,1.465,0,0,1-.1.369.991.991,0,0,1,.055.233.628.628,0,0,1-.233.41,1.6,1.6,0,0,1-.478.314,2.662,2.662,0,0,1-1.367.3,3.565,3.565,0,0,1-2.27-.793,2.552,2.552,0,0,1-.82-1.148,3.592,3.592,0,0,1-.26-1.176Q155.508,30.582,155.809,30.582Zm-.109-3.008c-.009.264-.014.506-.014.724a.5.5,0,0,1,.027.164c.156-.127.383-.305.684-.533l.711-.656c-.073-.082-.146-.159-.219-.232a1.648,1.648,0,0,0-.178-.137,3.434,3.434,0,0,1-.765.533A1.223,1.223,0,0,1,155.7,27.574Zm.054-1.627a3.3,3.3,0,0,0-.027.342c-.009.328-.019.633-.027.916.063-.073.132-.155.205-.247q.177-.2.342-.437a.235.235,0,0,0-.069-.068A1.663,1.663,0,0,1,155.754,25.947Zm-.013,2.734a1.016,1.016,0,0,1,.013.164q.548-.094,1.08-.191a8.667,8.667,0,0,1,1.381-.137,1.238,1.238,0,0,1,.657.164q.232,0,.232-.588,0-.928-.014-1.654a6.846,6.846,0,0,1-.574.533,1.546,1.546,0,0,1-.232.192,1.041,1.041,0,0,1,.287.574q0,.505-.4.506a.7.7,0,0,1-.492-.315c-.046-.054-.091-.109-.137-.164l-.109.082a5.653,5.653,0,0,1-1.135.6A2.879,2.879,0,0,1,155.741,28.681Zm1.7-3.8q.521,0,.52.561c0,.1-.173.337-.52.711a.159.159,0,0,1-.055.055l.411.41a3.134,3.134,0,0,0,.6-.862.345.345,0,0,1,.356-.191.6.6,0,0,1,.314.068,10.937,10.937,0,0,0-.109-1.271c-.028-.173-.091-.26-.192-.26a.62.62,0,0,1-.506.26c-.255.055-.569.109-.943.164a3.041,3.041,0,0,0-1.053.3,3.436,3.436,0,0,0-.383.3c-.008.082-.018.156-.027.219a.311.311,0,0,1,.233-.123,1.462,1.462,0,0,1,.724.465,2.34,2.34,0,0,0,.274-.615A.342.342,0,0,1,157.436,24.88Zm-.342,5.127a.494.494,0,0,1,.438.287c.182.329.342.493.478.493q.1,0,.3-.52a.06.06,0,0,1,.068.068,4.9,4.9,0,0,0-.109.739V31.5q0,.4-.369.4a1.021,1.021,0,0,1-.793-.4,1.723,1.723,0,0,1-.424-.971.878.878,0,0,1,.109-.383A.455.455,0,0,1,157.094,30.007Zm3.035.123a2.5,2.5,0,0,1,1.19.383c.391.246.588.5.588.766q0,.547-.438.547a1.7,1.7,0,0,1-.888-.328,5.878,5.878,0,0,1-.52-.4c-.392-.291-.588-.465-.588-.519a1.2,1.2,0,0,1,.274-.329A.8.8,0,0,1,160.129,30.13Z" fill="#606060"/><path d="M171.579,27.888q.888-.041,1.531-.109.861-.123,1.066-.178a.9.9,0,0,1,.643.246.8.8,0,0,1,.287.533c-.019.256-.123.383-.314.383a10.812,10.812,0,0,1-1.532-.109q-.709-.042-2.064-.069l-.52.055a.979.979,0,0,1,.069.356c0,.073,0,.173-.014.3q.492-.054.984-.068.26-.342.493-.342a.977.977,0,0,1,.7.4,1.733,1.733,0,0,1,.3,1,13.624,13.624,0,0,0-.178,2.543q-.1.889-.246.97a.928.928,0,0,1-.3.438.571.571,0,0,1-.52.232,1.047,1.047,0,0,1-.246.137.529.529,0,0,1-.451.219c-.155-.019-.241-.132-.26-.342a.445.445,0,0,0-.054-.178c-.074-.008-.164-.022-.274-.041s-.232-.032-.342-.041a21.772,21.772,0,0,0-2.966.178c-.046.091-.1.187-.164.287q-.165.246-.342.246c-.155,0-.306-.186-.451-.56a5.569,5.569,0,0,1-.178-1.272q.014-1.791.055-2.078a5.75,5.75,0,0,1,.191-.971.777.777,0,0,1,.533-.437.415.415,0,0,1,.424.342c.265-.073.524-.137.779-.192a2.2,2.2,0,0,1,.041-.287,4.185,4.185,0,0,1,.11-.41l-.52.137q-.532.233-1.326.492a7.165,7.165,0,0,1-1.777.246.805.805,0,0,1-.451-.191.517.517,0,0,1-.206-.329.541.541,0,0,1,.219-.4,2.855,2.855,0,0,1,.67-.191q1.08-.233,3.158-.52Q169.72,28.079,171.579,27.888Zm-5.346-5.537a.389.389,0,0,1,.26.137.462.462,0,0,1,.15.287h.027a6.6,6.6,0,0,0,1.313-.164q1.12-.233,1.271-.233.383.028.383.247,0,.26-.369.4-.521.123-.943.219a.443.443,0,0,1,.054.191,1.191,1.191,0,0,1-.205.533c.055-.018.105-.036.151-.054a2.839,2.839,0,0,1,.711-.219.217.217,0,0,1,.164.1.543.543,0,0,1,.1.287c0,.182-.145.337-.437.465a1.694,1.694,0,0,1-.342.136,1.481,1.481,0,0,1-.123.492c.128-.054.237-.1.328-.136a1.368,1.368,0,0,1,.438-.137.464.464,0,0,1,.287.15.454.454,0,0,1,.123.274c0,.109-.069.178-.205.2q-.328.151-.561.246a1.377,1.377,0,0,1,.369.848.479.479,0,0,1-.082.273h.151a.476.476,0,0,1,.218.068.186.186,0,0,1,.083.165c0,.228-.083.351-.247.369q-.765.163-1.558.355a7.335,7.335,0,0,1-1.518.465c-.145,0-.287-.127-.424-.383a3.164,3.164,0,0,1-.232-1.107q.028-1.613.068-3.2a4.051,4.051,0,0,1,.233-.944Q166,22.35,166.233,22.351Zm2.434,4.594-.11-.164q-.177-.315-.328-.574a.792.792,0,0,1-.109-.151,1.148,1.148,0,0,1-.151.055,7.616,7.616,0,0,1-.519.834.8.8,0,0,1-.369.314.466.466,0,0,1-.26.11c-.028,0-.041-.028-.041-.082a3.207,3.207,0,0,1,.15-.629q.042-.15.1-.315a.528.528,0,0,1-.109.014.5.5,0,0,1-.465-.274q-.014.643-.014,1.135.014.246.1.246a7.613,7.613,0,0,0,1.422-.355Q168.366,27,168.667,26.945ZM167.354,25.5a.132.132,0,0,0,.027-.055,3.044,3.044,0,0,0,.178-.588.274.274,0,0,1-.178-.055c-.046.028-.087.055-.123.082a3.74,3.74,0,0,1-.56.411,2.224,2.224,0,0,1,.15-.575,5.233,5.233,0,0,1,.3-.683c.063-.118.159-.292.287-.52a.417.417,0,0,0,.027-.068c-.319.1-.61.2-.875.287-.008.073-.018.137-.027.191q-.083.93-.1,1.518v.191a.263.263,0,0,1,.069-.013C166.843,25.583,167.117,25.542,167.354,25.5Zm3.1,7.779a1.282,1.282,0,0,1,.628.15,2.42,2.42,0,0,1,.26.219q.561-.315.561-2.775a1.71,1.71,0,0,0-.1-.739c-.036-.127-.091-.195-.164-.2a5.091,5.091,0,0,1-1.012.287c-.009.082-.018.16-.027.233a2.683,2.683,0,0,1-.041.314,4.075,4.075,0,0,1,.451-.041.4.4,0,0,1,.205.082c.091.082.137.146.137.192,0,.2-.224.36-.67.478q-.534.151-1.285.287a8.2,8.2,0,0,1-1.217.082.367.367,0,0,1-.273-.1.375.375,0,0,1-.137-.233c0-.1.068-.182.205-.246a2.016,2.016,0,0,1,.273-.068,4.1,4.1,0,0,1-.082-.574c-.145.036-.287.073-.424.109a1.09,1.09,0,0,0-.369.26c-.018.146-.041.287-.068.424-.009.218-.019.4-.027.546.008.338.013.58.013.725s.033.451.069.889a.335.335,0,0,1,.013.1c.32-.046.657-.09,1.012-.136Q170.184,33.289,170.458,33.275Zm.628-1.367a.336.336,0,0,1,.192.082c.109.082.164.146.164.191q0,.3-.684.479-.546.123-1.326.218a8.588,8.588,0,0,1-1.244.082.342.342,0,0,1-.273-.109.331.331,0,0,1-.137-.219c0-.1.068-.182.205-.246a17.544,17.544,0,0,1,1.887-.342A10.215,10.215,0,0,1,171.086,31.908Zm-2.2-.862q.423-.081.944-.164c.008-.264.013-.451.013-.56a.451.451,0,0,1-.109.013q-.451.056-.82.123a5.323,5.323,0,0,0-.028.575Zm.985-1.627V28.75c-.173.027-.337.059-.493.095a1.234,1.234,0,0,1-.123.342c-.063.155-.114.278-.15.369l.15-.027C169.455,29.483,169.66,29.447,169.87,29.419Zm1.941-4.552a.758.758,0,0,1,.232-.2.666.666,0,0,1-.259-.082.545.545,0,0,1-.123-.315,1.667,1.667,0,0,1,.164-.41,1.457,1.457,0,0,0,.15-.479.148.148,0,0,0-.15-.164,1.161,1.161,0,0,0-.588.233l-.233.232a3.2,3.2,0,0,1-.082.547,1,1,0,0,1-.259.574c-.146.183-.279.274-.4.274s-.191-.123-.191-.369c0-.228-.019-.583-.055-1.067a2.179,2.179,0,0,1,.178-.779q.287-.383.506-.383a.575.575,0,0,1,.246.109.248.248,0,0,1,.068.069h.014a2.794,2.794,0,0,0,.451-.082c.173-.028.323-.046.451-.055a1,1,0,0,0,.26-.055.7.7,0,0,0,.232-.218.432.432,0,0,1,.192-.082.816.816,0,0,1,.437.15.781.781,0,0,1,.3.506.442.442,0,0,1-.123.26,2.681,2.681,0,0,1-.383.328.993.993,0,0,0-.232.451.686.686,0,0,0,.492-.137.532.532,0,0,1,.314-.109.258.258,0,0,1,.205.1.336.336,0,0,1,.164.259q0,.165-.546.4a3.7,3.7,0,0,1-.807.26.689.689,0,0,1,.26.218.677.677,0,0,1,.109.383,2.362,2.362,0,0,1-.123.684,1.281,1.281,0,0,1-.205.67,1.264,1.264,0,0,0,.164.068q.315.123.793.273.655.275.656.37c0,.054-.036.082-.109.082h-.219c-.118-.009-.224-.018-.314-.028a.428.428,0,0,0-.233.082.8.8,0,0,1-.26.041,2.822,2.822,0,0,1-1.08-.246.282.282,0,0,1-.1-.054,2.474,2.474,0,0,1-.438.164,4.588,4.588,0,0,1-1.176.246,4.589,4.589,0,0,0-.505.054.1.1,0,0,1-.1-.068.974.974,0,0,1,.287-.219c.145-.054.306-.1.478-.15a2.143,2.143,0,0,0,.821-.369,2.1,2.1,0,0,0-.424-.328,2.052,2.052,0,0,0-.465-.2c-.173-.028-.265-.082-.273-.164a.4.4,0,0,1,.068-.26.642.642,0,0,1-.055-.26.526.526,0,0,1,.219-.383,6.259,6.259,0,0,1,.93-.26A2.942,2.942,0,0,1,171.811,24.867Zm-.861.943a4.045,4.045,0,0,1,.519.2,2.332,2.332,0,0,1,.274.164,2.9,2.9,0,0,0,.123-.929,5.322,5.322,0,0,0-.684.369A2.762,2.762,0,0,1,170.95,25.81Z" fill="#606060"/><path d="M178.434,23.185a.871.871,0,0,1,.615.6,8.186,8.186,0,0,1,1.518-.2c.183-.173.309-.26.383-.26a.654.654,0,0,1,.355.095.447.447,0,0,1,.178.288,4.506,4.506,0,0,1-.875,2.009,3.854,3.854,0,0,1-.383.534,2.257,2.257,0,0,1,1.217,1.8,3.954,3.954,0,0,1-.26,1.49,1.479,1.479,0,0,1-.848.889.417.417,0,0,1-.287.11q-.463-.014-.464-.452c0-.264-.156-.442-.465-.533a1.361,1.361,0,0,1-.205-.109v2.338q.054.847.082,1.722a1.247,1.247,0,0,1-.123.588q-.205.342-.383.342-.137,0-.356-.328a2.1,2.1,0,0,1-.259-.848q-.055-.833-.055-2.351V27.861q0-.588.1-2.065.081-.861.164-1.449Q178.229,23.186,178.434,23.185Zm.479,6.029a2.388,2.388,0,0,0,.984.164q.532,0,.533-1.709a1.294,1.294,0,0,0-.506-1.052,1.084,1.084,0,0,1-.683.4,5.925,5.925,0,0,1,.492-1.545,4,4,0,0,0,.451-1.011,1.565,1.565,0,0,0-.711.3,2.174,2.174,0,0,1-.437.137c-.019.146-.036.31-.055.492q-.083,1.026-.082,1.75Q178.9,28.271,178.913,29.214Zm4.552.629a3.015,3.015,0,0,1-.916.233.873.873,0,0,1-.861-.7q.014-.369.506-.492,1.066-.246,2.324-.465.807-.108,1.477-.246.9-.123,1-.123a.8.8,0,0,1,.519.233,1.2,1.2,0,0,1,.3.67q0,.26-.4.259-.767.015-1.764.069a5.862,5.862,0,0,0-.82.164.742.742,0,0,1-.233.492,7.511,7.511,0,0,0-.642.9q-.342.521-.78,1.162a5.445,5.445,0,0,1-1.381,1.45,1.287,1.287,0,0,1-.437.273,1.034,1.034,0,0,1-.369.191.06.06,0,0,1-.069-.068,6.317,6.317,0,0,1,.356-.752,16.649,16.649,0,0,1,1.039-1.668q.4-.546.957-1.326A2.524,2.524,0,0,0,183.465,29.843Zm.3-7.1a2,2,0,0,1,1.08.341,1.363,1.363,0,0,1,.629.985,1.676,1.676,0,0,1-.014.232c.539-.018,1.039-.027,1.5-.027a.863.863,0,0,1,.369-.219.622.622,0,0,1,.465.315,1.785,1.785,0,0,1,.479.943q0,.369-.588.369a4.953,4.953,0,0,1-.766-.123,2.31,2.31,0,0,0-.6.164,2.928,2.928,0,0,1-.4.109.111.111,0,0,1-.123-.109,4.38,4.38,0,0,0,.985-.848c-.238.01-.515.014-.834.014-.228.019-.447.041-.657.068-.046.082-.09.16-.136.233a.825.825,0,0,1-.657.465c-.292,0-.437-.137-.437-.41a.593.593,0,0,0,.055-.165,5.052,5.052,0,0,0-.875.178,1.731,1.731,0,0,1-.493.192c-.036.136-.063.259-.082.369a5.93,5.93,0,0,0-.068.834.694.694,0,0,1-.178.465q-.369.423-.533.423-.355,0-.355-.984a7.973,7.973,0,0,1,.164-1.354q.26-.9.465-.9a1.164,1.164,0,0,1,.382.192l.082.082q.575-.109,1.19-.178l.4-.027v-.083a.668.668,0,0,0-.369-.519.986.986,0,0,1-.383-.629A.406.406,0,0,1,183.766,22.748Zm2.01,3.445q.369,0,.369.3a.6.6,0,0,1-.287.588A3.258,3.258,0,0,1,185,27.4a6.788,6.788,0,0,1-.739.164c-.292.027-.555.041-.793.041a.821.821,0,0,1-.519-.15.465.465,0,0,1-.164-.356.47.47,0,0,1,.355-.465c.246-.054.525-.109.834-.164q.4-.068,1.026-.191Q185.6,26.206,185.776,26.193Zm-.383,3.5a.554.554,0,0,1,.52.588,1.914,1.914,0,0,1-.151.533,7.143,7.143,0,0,0-.095.861,1.64,1.64,0,0,0,.123.862.611.611,0,0,0,.464.191,4.768,4.768,0,0,0,1.012-.123c.274-.055.433-.123.479-.2a.972.972,0,0,0,.218-.561,5.319,5.319,0,0,0,.192-.847c.036-.091.087-.137.15-.137.019.082.041.214.069.4a2.23,2.23,0,0,0,.205.766.961.961,0,0,1,.218.178.793.793,0,0,1,.178.56c0,.11-.1.26-.287.452a.738.738,0,0,1-.479.533,2.033,2.033,0,0,1-.779.218,4.122,4.122,0,0,1-1.107.11,1.558,1.558,0,0,1-.752-.164,1.423,1.423,0,0,1-.506-.465,2.639,2.639,0,0,1-.424-1.668q.054-.615.123-1.094Q184.916,29.693,185.393,29.693Z" fill="#606060"/><path d="M99.129,44.775a1.585,1.585,0,0,1,1.149.562,2.938,2.938,0,0,1,.422.75,4.157,4.157,0,0,1,.117.961q.421-.117.867-.234a8.729,8.729,0,0,1,.4-.914c.171-.3.367-.617.585-.961q.915-1.266,1.454-1.289a.781.781,0,0,1,.515.281,1.172,1.172,0,0,1,.211.633q0,.609-1.289,1.711a.91.91,0,0,1-.141.117l.493-.07q1.313.141,1.312.89a.856.856,0,0,1-.8.891q-1.1.211-1.851.4-.328.071-.633.165l.094.14a4.452,4.452,0,0,1,.234,1.1,13.705,13.705,0,0,1,1.711-.352q1.313.117,1.312.891a.856.856,0,0,1-.8.89q-1.2.235-2.063.469.071.8.094,1.43a.955.955,0,0,1,.961-.492,3.111,3.111,0,0,1,1.429.609,1.242,1.242,0,0,1,.469.984q0,1.1-.8,1.1a.978.978,0,0,1-.726-.352,3.34,3.34,0,0,0-.891-.8,4.369,4.369,0,0,1-.422-.469q.024.726.024,1.265a8.313,8.313,0,0,1-.211,2.063,1.5,1.5,0,0,1-.656,1.125,1.57,1.57,0,0,0-.446.211q-.234.141-.515.351a2.984,2.984,0,0,1-.539.446.958.958,0,0,1-.516.164q-.516-.094-.539-.867a1.969,1.969,0,0,0-.7-.938,3.191,3.191,0,0,1-.563-.516q-.117.258-.726.258-.937-.022-.938-2.039a3.192,3.192,0,0,1,.188-.844q.327-.539.515-.539a.737.737,0,0,1,.563.3,5.037,5.037,0,0,0,1.594-.234c.078.015.117.047.117.093a3.487,3.487,0,0,0-1.36,1.641,6,6,0,0,0,.071.938h.023a5.827,5.827,0,0,0,1.594.586q.726,0,.8-1.008.117-1.125.14-3.938-.75.234-1.5.516a4.931,4.931,0,0,1-1.9.422,1.081,1.081,0,0,1-.891-.375,1.056,1.056,0,0,1-.351-.75q0-.679.914-.891.8-.211,2.062-.445a10.038,10.038,0,0,0,1.641-.352,6,6,0,0,0-.047-.82c-.031-.188-.062-.352-.094-.492l-.211.07a4.36,4.36,0,0,1-1.5.281,1.086,1.086,0,0,1-.867-.351,1.047,1.047,0,0,1-.375-.774q.024-.656.914-.867.657-.141,1.641-.3-.353-.281-.75-.632a1.717,1.717,0,0,1-.492-1.032,1.328,1.328,0,0,1,.14-.468C98.926,44.876,99.036,44.775,99.129,44.775Zm1.172-5.484a2.688,2.688,0,0,1,1.477.492,2.13,2.13,0,0,1,.867,1.523,1.014,1.014,0,0,1-.07.4q.914-.187,1.289-.235,1.313.141,1.312.891a.829.829,0,0,1-.773.89q-1.1.211-1.852.4a19.653,19.653,0,0,0-2.461.75,3.976,3.976,0,0,1-1.453.305,1.135,1.135,0,0,1-.937-.375,1.114,1.114,0,0,1-.4-.821q.024-.679.961-.914.657-.141,1.617-.281a8.025,8.025,0,0,0,.821-.141,1.576,1.576,0,0,0,.117-.562,1.091,1.091,0,0,0-.469-.8,1.525,1.525,0,0,1-.469-.961A.586.586,0,0,1,100.3,39.291Zm14.063,6.914a2.5,2.5,0,0,1,1.359.421,1.441,1.441,0,0,1,.516.961q0,.61-.8.8a5.7,5.7,0,0,1-1.359.375q-.562.094-1.125.211v1.383q.069,2.226.07,4.734a9.851,9.851,0,0,1-.375,2.954q-.728,1.335-1.149,2.25-.444-.071-.726-2.25-.024-5.649-.07-8.485a7.859,7.859,0,0,1-1.641.4,1.41,1.41,0,0,1-.914-.375v.211q-.046,1.992-.141,2.765a5.076,5.076,0,0,1-.562,1.828,5.467,5.467,0,0,1-1.125,2.227q-.657,1.266-1.125,1.312,0-.327.351-2.343.211-1.244.492-3,.329-1.946.516-3.868.188-1.944.188-3.89a13.882,13.882,0,0,1-.071-1.547,2.285,2.285,0,0,1,.211-.867.8.8,0,0,1,.563-.258,1.6,1.6,0,0,1,.82.351.78.78,0,0,1,.258.469q.563-.4,1.5-1.031.891-.538,1.547-.914a7.66,7.66,0,0,1,1.054-.563q.8,0,1.125,1.36a.909.909,0,0,1-.89,1.031q-1.079-.024-2.156-.07a5.3,5.3,0,0,0-1.571.515,1.554,1.554,0,0,1-.539.258q-.093,1.266-.211,1.945-.071.586-.164,2.11v.375q.984-.353,2.461-.82c-.016-.25-.023-.422-.023-.516a1.422,1.422,0,0,1,.4-.609,1.71,1.71,0,0,1,.938-.305,1.571,1.571,0,0,1,.8.375.849.849,0,0,1,.188.351A7.233,7.233,0,0,1,114.364,46.205Z"/><path d="M125.731,39.689q.328.024.773.773a1.98,1.98,0,0,1,.352,1.032,3.952,3.952,0,0,1-.516,1.734,22.876,22.876,0,0,1-1.289,2.273q-.351.586-.679,1.149l.89-.328a9.487,9.487,0,0,1,1.946-.516,2,2,0,0,1,1.171.4,1.156,1.156,0,0,1,.493.843q0,.516-.7.68a3.842,3.842,0,0,1-.96.4q-.681.165-1.383.4-.024.82-.094,1.711-.095,1.289-.094,2.2.024,1.476.047,2.531.141,1.665.141,2.578a2.043,2.043,0,0,1-.4,1.125,1.223,1.223,0,0,1-.961.586q-.445-.21-.656-1.64-.046-1.2-.047-2.7-.022-1.1-.023-2.062.022-1.032.094-2.485.046-.656.07-1.148a.756.756,0,0,1-.211.047,1.289,1.289,0,0,1-.539-.117,2.622,2.622,0,0,1-.4.633,1.315,1.315,0,0,1-.843.679,2.829,2.829,0,0,1-.938.352q-.164-.046-.164-.446L121,49.111q.093-.562.515-2.086.329-.937.844-2.32.633-1.361,1.43-2.719a15.927,15.927,0,0,1,1.031-1.594Q125.45,39.712,125.731,39.689Zm8.133-.516q.28.024.7.68a1.786,1.786,0,0,1,.328.938,3.491,3.491,0,0,1-.516,1.617,21.952,21.952,0,0,1-1.242,2.109q-.234.375-.469.774h.024q.655-.141,2.836-.75a5.1,5.1,0,0,0,1.406-.563,5.815,5.815,0,0,1,1.242-.469,1.672,1.672,0,0,1,.914.352,1.5,1.5,0,0,1,.657,1.008,1.447,1.447,0,0,1-1.243,1.336q-1.055.3-2.836.843a1.626,1.626,0,0,1-.21.071.95.95,0,0,1,.117.211,6.254,6.254,0,0,1,.445,2.015,35.1,35.1,0,0,1,.211,4.711q0,3.375-.445,3.938a.818.818,0,0,1-.375.468l-.493.188a2.974,2.974,0,0,0-.656.4,2.941,2.941,0,0,1-.539.469.95.95,0,0,1-.515.188q-.82,0-.915-.914a1.391,1.391,0,0,0-.375-.868,7.478,7.478,0,0,1-.96-.843c.015-.141.07-.211.164-.211a4.851,4.851,0,0,0,1.921.492q.47-.046.54-1.57a47.848,47.848,0,0,0,.281-5.93q0-1.242-.094-2.2a5.567,5.567,0,0,1-1.125.211,1.222,1.222,0,0,1-.961-.469.261.261,0,0,0-.094-.094,5.02,5.02,0,0,1-.679,1.195,1.327,1.327,0,0,1-.844.657,2.823,2.823,0,0,1-.938.351c-.109-.031-.164-.179-.164-.445q.095-.633.188-1.289.093-.492.539-1.922.28-.821.82-2.109a23.009,23.009,0,0,1,1.406-2.461,14.314,14.314,0,0,1,1.032-1.477A2.068,2.068,0,0,1,133.864,39.173Z"/><path d="M150.083,42.619a1.066,1.066,0,0,1,.89.468,1.114,1.114,0,0,1,.3.844q0,.563-.914,1.031-.657.7-1.8,2.133a18.734,18.734,0,0,1-1.992,2.414,7.236,7.236,0,0,1-1.336,1.453q-.633.586-.984.868a1.477,1.477,0,0,1-.891.539c-.047-.032-.07-.157-.07-.375a6.954,6.954,0,0,1,.515-1.2q.375-.772.75-1.429.54-.915,1.172-1.875,1.242-1.665,2.32-2.883Q149.708,42.619,150.083,42.619Zm.328,8.812a3.523,3.523,0,0,1-1.149-.328.993.993,0,0,1-.211-1.664,4.321,4.321,0,0,1,.867-.281,15.1,15.1,0,0,1,2.649-.328,13.179,13.179,0,0,1,3.234.492q.4-.679.8-.68a1.325,1.325,0,0,1,1.1.609,3.517,3.517,0,0,1,.351,1.829q0,.327-.023.914a6.3,6.3,0,0,1-.375,1.945,10.768,10.768,0,0,1-.867,2.227,7.441,7.441,0,0,1-1.243,1.921,1.2,1.2,0,0,1-.914.633,3.438,3.438,0,0,1-1.218.61,1.666,1.666,0,0,1-.868.187q-.984,0-.984-.726a3.186,3.186,0,0,1,.164-.586,1.381,1.381,0,0,0-.445-.821q-.774-.609-.774-.773a.165.165,0,0,1,.188-.141,2.661,2.661,0,0,0,1.687.727q.868,0,1.875-1.641a7.717,7.717,0,0,0,.891-1.805,5.465,5.465,0,0,0,.492-1.851q.047-.633.047-1.149c0-.343-.086-.531-.258-.562a5.921,5.921,0,0,0-1.218.422,4.628,4.628,0,0,1-.938.281,1.76,1.76,0,0,1-.68.539Q152,52.064,151,53.306a21.432,21.432,0,0,1-1.758,2.156,6.911,6.911,0,0,1-1.2,1.289q-.538.516-.867.774a1.169,1.169,0,0,1-.726.4c-.032-.015-.047-.109-.047-.281a5.732,5.732,0,0,1,.445-1.031q.352-.7.68-1.266.468-.8,1.008-1.64Q149.544,52.393,150.411,51.431Zm3.515-12.8a2.33,2.33,0,0,1,1.407.727,3.953,3.953,0,0,1,1.171,1.664,25.8,25.8,0,0,0,1.289,2.812,10.232,10.232,0,0,0,2.6,2.836q1.2.938,2.344,1.782a10.574,10.574,0,0,1,2.156,2.156c-.016.109-.094.18-.234.211a4.158,4.158,0,0,1-.7.047q-.235,0-.727-.047a1.8,1.8,0,0,1-.469-.071,1.14,1.14,0,0,1-.539.188,2.929,2.929,0,0,1-.562.047,2.567,2.567,0,0,1-1.266-.492,15.514,15.514,0,0,1-1.852-1.43,26.109,26.109,0,0,1-2.2-2.438,10.5,10.5,0,0,1-1.781-3.328,3.705,3.705,0,0,0-.8-2.086,1.875,1.875,0,0,1-1.008-1.5,1.246,1.246,0,0,1,.305-.656A1.294,1.294,0,0,1,153.926,38.634Z"/><path d="M170.262,40.369a1.493,1.493,0,0,1,1.055,1.031,14.138,14.138,0,0,1,2.6-.352q.47-.446.657-.445a1.114,1.114,0,0,1,.609.164.76.76,0,0,1,.3.492,7.722,7.722,0,0,1-1.5,3.446,6.712,6.712,0,0,1-.656.914q2.085,1.406,2.085,3.093a6.779,6.779,0,0,1-.445,2.555,2.54,2.54,0,0,1-1.453,1.524.718.718,0,0,1-.492.187q-.8-.024-.8-.773,0-.681-.8-.914a2.321,2.321,0,0,1-.351-.188v4.008q.093,1.454.14,2.953a2.139,2.139,0,0,1-.211,1.008q-.351.585-.656.586-.234,0-.609-.563a3.62,3.62,0,0,1-.446-1.453q-.093-1.429-.093-4.031V48.384q0-1.008.164-3.539.14-1.476.281-2.484Q169.911,40.369,170.262,40.369Zm.821,10.336a4.117,4.117,0,0,0,1.687.281q.913,0,.914-2.93a2.222,2.222,0,0,0-.867-1.805,1.857,1.857,0,0,1-1.172.68,10.178,10.178,0,0,1,.844-2.648,6.872,6.872,0,0,0,.773-1.735,2.7,2.7,0,0,0-1.219.516,3.831,3.831,0,0,1-.75.234c-.031.25-.062.532-.093.844q-.141,1.758-.141,3Q171.059,49.087,171.083,50.705Zm7.8,1.078a5.241,5.241,0,0,1-1.57.4,1.5,1.5,0,0,1-1.477-1.195q.024-.633.868-.844,1.827-.421,3.984-.8,1.383-.187,2.531-.422,1.546-.21,1.711-.211a1.373,1.373,0,0,1,.891.4,2.065,2.065,0,0,1,.515,1.148q0,.446-.679.446-1.312.022-3.024.117a10.111,10.111,0,0,0-1.406.281,1.269,1.269,0,0,1-.4.844,12.77,12.77,0,0,0-1.1,1.547q-.587.89-1.336,1.992a9.327,9.327,0,0,1-2.367,2.484,2.2,2.2,0,0,1-.75.469,1.767,1.767,0,0,1-.633.328.1.1,0,0,1-.117-.117,10.832,10.832,0,0,1,.609-1.289,28.982,28.982,0,0,1,1.781-2.86q.681-.937,1.641-2.273A4.42,4.42,0,0,0,178.887,51.783Zm.516-12.164a3.415,3.415,0,0,1,1.851.586,2.331,2.331,0,0,1,1.079,1.687,2.828,2.828,0,0,1-.024.4q1.383-.048,2.578-.047a1.469,1.469,0,0,1,.633-.375,1.068,1.068,0,0,1,.8.539,3.059,3.059,0,0,1,.82,1.617q0,.633-1.008.633a8.553,8.553,0,0,1-1.312-.211,3.938,3.938,0,0,0-1.031.281,5.363,5.363,0,0,1-.68.188.192.192,0,0,1-.211-.188,7.508,7.508,0,0,0,1.688-1.453q-.61.024-1.43.023-.587.048-1.125.118-.117.21-.235.4a1.413,1.413,0,0,1-1.125.8q-.75,0-.75-.7a.975.975,0,0,0,.094-.282,8.752,8.752,0,0,0-1.5.305,2.964,2.964,0,0,1-.844.328q-.093.353-.14.633a10.31,10.31,0,0,0-.117,1.43,1.186,1.186,0,0,1-.3.8q-.633.726-.914.726-.609,0-.609-1.687a13.671,13.671,0,0,1,.281-2.321q.445-1.547.8-1.546a2.009,2.009,0,0,1,.656.328l.141.14q.984-.187,2.039-.3l.679-.047v-.141a1.147,1.147,0,0,0-.633-.891,1.682,1.682,0,0,1-.656-1.078A.7.7,0,0,1,179.4,39.619Zm3.445,5.906q.633,0,.633.516a1.029,1.029,0,0,1-.492,1.007,5.585,5.585,0,0,1-1.477.539,11.948,11.948,0,0,1-1.265.282q-.75.071-1.36.07a1.4,1.4,0,0,1-.89-.258.815.815,0,0,1,.328-1.406q.633-.141,1.429-.281.681-.117,1.758-.328C182.2,45.587,182.645,45.541,182.848,45.525Zm-.656,6a.948.948,0,0,1,.891,1.008,3.317,3.317,0,0,1-.258.914,12.262,12.262,0,0,0-.164,1.476,2.8,2.8,0,0,0,.211,1.477,1.049,1.049,0,0,0,.8.328,8.147,8.147,0,0,0,1.735-.211q.7-.141.82-.351a1.666,1.666,0,0,0,.375-.961,9.241,9.241,0,0,0,.328-1.454q.095-.234.258-.234c.031.141.07.367.117.68a3.858,3.858,0,0,0,.352,1.312,1.642,1.642,0,0,1,.375.305,1.365,1.365,0,0,1,.3.961q0,.281-.493.773a1.261,1.261,0,0,1-.82.914,3.471,3.471,0,0,1-1.336.375,7.156,7.156,0,0,1-1.9.188,2.67,2.67,0,0,1-1.289-.281,2.453,2.453,0,0,1-.868-.8,4.522,4.522,0,0,1-.726-2.86q.093-1.055.211-1.875Q181.372,51.525,182.192,51.525Z"/></g></svg>