<svg xmlns="http://www.w3.org/2000/svg" xmlns:xlink="http://www.w3.org/1999/xlink" width="420.478" height="92.5" viewBox="0 0 420.478 92.5"><defs><clipPath id="a"><rect width="92.478" height="92.5" fill="none"/></clipPath></defs><g transform="translate(-100.522 -3793)"><g transform="translate(100.522 3793)"><g clip-path="url(#a)"><path d="M92.478,46.25A46.239,46.239,0,1,1,46.25,0,46.233,46.233,0,0,1,92.478,46.25" fill="#16932d"/><path d="M126.579,69.215l-.85.38a4.7,4.7,0,0,1-1.052.38c-.067.045-.291-.112-.448-.269-.269-.224-.671-.582-1.164-.38a16.508,16.508,0,0,0-3.177,2.707,2.877,2.877,0,0,1-1.007.537v.761a3.943,3.943,0,0,0,1.544-.828,15.825,15.825,0,0,1,2.909-2.484c.067-.045.269.112.47.269a1.229,1.229,0,0,0,1.029.425A3.942,3.942,0,0,0,126,70.221l.738-.313h.045c0,.045.112.157.112.157a.949.949,0,0,0,.492.492,5.958,5.958,0,0,1,1.835,2.1c.022,0,.022.045.022.045a9.513,9.513,0,0,1-1.3,2.73.333.333,0,0,0-.09.2c0,.045.045.045.045.067,0,0,.9,3.423.962,3.692-.112.179-.38.649-.38.649,0,.045-.045.089-.045.112a4.028,4.028,0,0,0-.045.47,1.981,1.981,0,0,0,.2.9c.045.045.045.112.045.224a6.291,6.291,0,0,1-.425,1.633,7.835,7.835,0,0,0-.2,1.343,7.967,7.967,0,0,1-.336,1.79,10.944,10.944,0,0,0-.291,2.8l-.067,1.186c-.112.85-.224,2.64-.224,3.4a29.629,29.629,0,0,1-.559,3.535.1.1,0,0,1-.022.067c0,.045,0,.045.022.045,0,0,.2,1.656.2,1.812a9.614,9.614,0,0,1-1.007,2.17,6.126,6.126,0,0,0-.738,2.238c-.962.47-1.029,1.857-1.029,2.327a8.8,8.8,0,0,0-1.9,3.379l-.09.38a11.711,11.711,0,0,0-.269,2.126,1.745,1.745,0,0,0,.157.85,23.449,23.449,0,0,1,.425,4.028l.09,1.589a3.036,3.036,0,0,1-1.141-.47.3.3,0,0,0-.336,0,.379.379,0,0,0-.2.313c0,.09-.045.09-.045.112a.339.339,0,0,1-.269.09c-.112-.358-.537-1.544-.6-1.745a3.568,3.568,0,0,0,.224-1.1,2.228,2.228,0,0,0-.2-.873,4.682,4.682,0,0,0-.917-1.544v1.253a4.4,4.4,0,0,1,.269.559,2.176,2.176,0,0,1,.112.6,2.125,2.125,0,0,1-.179.873.441.441,0,0,0-.09.179c0,.045.045.09.045.112l.761,2.17a.454.454,0,0,0,.313.246,1.538,1.538,0,0,0,1.007-.291c.045-.022.089-.112.112-.134.47.269,1.164.537,1.566.269a.688.688,0,0,0,.291-.582v-.112l-.112-1.566c-.157-2.618-.224-3.893-.492-4.318a1.158,1.158,0,0,1-.09-.47,14.714,14.714,0,0,1,.269-2.014l.09-.425a8.74,8.74,0,0,1,1.745-3.021.346.346,0,0,0,.157-.269v-.157c0-.358.067-1.544.761-1.745.112-.067.246-.157.246-.313a7.446,7.446,0,0,1,.582-2.036,11.681,11.681,0,0,0,1.231-2.484V99.4s-.2-1.79-.224-1.857a32.729,32.729,0,0,0,.559-3.647c0-.716.134-2.506.2-3.289l.089-1.275a8.719,8.719,0,0,1,.269-2.6,9.838,9.838,0,0,0,.336-1.924c.09-.47.112-.962.2-1.208a6.772,6.772,0,0,0,.425-1.857,1.274,1.274,0,0,0-.089-.582.867.867,0,0,1-.112-.537v-.313a5.311,5.311,0,0,0,.425-.694.241.241,0,0,0,.045-.179v-.09s-.9-3.4-.962-3.67a9.493,9.493,0,0,0,1.32-3.021v-.112a6.523,6.523,0,0,0-2.215-2.64.622.622,0,0,1-.269-.269.819.819,0,0,0-.9-.425m-7.7,3.356a14.068,14.068,0,0,1-2.059.559.369.369,0,0,0-.224.179,4.285,4.285,0,0,0-.85,1.947.241.241,0,0,0,.045.157v.022a4.427,4.427,0,0,1-.2.828l-.157.649a15.87,15.87,0,0,1-1.387,2.752,3.78,3.78,0,0,0-.515,1.656c-.112.157-1.32,2.1-1.32,2.1a.168.168,0,0,0-.022.112s-.2,1.007-.246,1.164c-.067.112-.962,1.275-.962,1.275a.3.3,0,0,0-.067.179c0,.045,0,.089.022.089,0,0,.157.9.2,1.052a9.313,9.313,0,0,0-.425,2.148,14.213,14.213,0,0,1-1.857,3.155c0,.022-.045.067-.045.112l-1.007,3.714a.173.173,0,0,0-.022.067v.045l.224,2.126s.112,3.759.112,3.916a2.362,2.362,0,0,0-.336,1.119c0,.649.806,1.074,1.343,1.32l.582.224a2.766,2.766,0,0,1,.9.358,8.256,8.256,0,0,0,.47,2.752,23.409,23.409,0,0,0,1.969,2.976c.022.067.112.112.224.157a5.4,5.4,0,0,1,2.394.761,2.274,2.274,0,0,0,1.007.515,3.128,3.128,0,0,1,2.215,1.723v-1.253a3.949,3.949,0,0,0-1.969-1.164,1.964,1.964,0,0,1-.783-.358,6.092,6.092,0,0,0-2.618-.962,24.5,24.5,0,0,1-1.79-2.707,8.217,8.217,0,0,1-.38-2.439c0-.671-.828-.9-1.432-1.052l-.47-.157c-.224-.157-.94-.47-.94-.694a1.869,1.869,0,0,1,.269-.806.689.689,0,0,0,.09-.2l-.112-4.072s-.2-1.969-.246-2.081c.045-.112.985-3.446.985-3.6.492-.694,1.924-2.775,1.924-3.491a8.216,8.216,0,0,1,.47-2.036v-.157s-.157-.738-.2-.962c.157-.246.9-1.253.9-1.253.045-.022.067-.067.067-.157,0,0,.2-1.029.246-1.164.045-.112,1.275-2.036,1.275-2.036a.711.711,0,0,0,.067-.2,3.319,3.319,0,0,1,.4-1.387,13.124,13.124,0,0,0,1.5-3.021l.157-.627a3.414,3.414,0,0,0,.224-1.007.774.774,0,0,0-.067-.269v.045a12.491,12.491,0,0,1,.694-1.387c.336-.09,1.052-.246,1.745-.492Z" transform="translate(-74.288 -47.689)" fill="#fff"/><path d="M118.866,123.216a7.087,7.087,0,0,1-4.251,1.275,7.6,7.6,0,0,1-5.1-1.7V128a17.925,17.925,0,0,0,5.169.716,15.727,15.727,0,0,0,8.145-1.947,9.246,9.246,0,0,0,4.43-7.384l-5.84-.067a7.03,7.03,0,0,1-2.551,3.893m-9.353-6.377a1.428,1.428,0,0,1,.157-.045,11.96,11.96,0,0,0,4.3-1.969,11.226,11.226,0,0,0,3.938-6.668,7.824,7.824,0,0,1,1.052.559,5.237,5.237,0,0,1,2.282,3.021h6.041a8.59,8.59,0,0,0-3.11-5.706,13.482,13.482,0,0,0-6.108-2.439,13.327,13.327,0,0,0-.9-4.095,10.681,10.681,0,0,0-2.931-3.983,10.537,10.537,0,0,0-4.565-2.238.569.569,0,0,0-.157-.045V98.4a5.775,5.775,0,0,1,1.656,2.3,9.672,9.672,0,0,1,.582,2.931,17.2,17.2,0,0,0-2.238.537v5.146a6.528,6.528,0,0,1,2.036-1.164,8.437,8.437,0,0,1-.38,1.365,5.048,5.048,0,0,1-1.589,2.349l-.067.067Zm0,5.952a1.8,1.8,0,0,1-.313-.269c-1.208-1.119-1.857-2.909-2.059-5.348a13.741,13.741,0,0,0,2.372-.336v-4.9a5.9,5.9,0,0,1-2.059.873,6.47,6.47,0,0,1,1.79-3.244.954.954,0,0,1,.269-.246v-5.146a13.333,13.333,0,0,0-4.811,2.6,10.785,10.785,0,0,0-3.625,6.4h-2.26V96.992h2.752a34.643,34.643,0,0,1,5.034.224,6.6,6.6,0,0,1,2.819,1.119.309.309,0,0,0,.09.067V93.233a27.86,27.86,0,0,0-5.616-.425H92.664v24.5h8.122a11.255,11.255,0,0,0,3.871,8.078A13.606,13.606,0,0,0,109.513,128Z" transform="translate(-63.867 -63.966)" fill="#fff"/><path d="M104.952,68.771,92.758,47.716,80.406,69.778l4.676-.179a26.253,26.253,0,1,1-5.3-26.873H96.114A39.791,39.791,0,1,0,99.4,69.017Z" transform="translate(-14.242 -14.242)" fill="#fff"/><path d="M252.216,107.347l.022.134,12.172,21.055.246-.134-12.195-21.055h0l-.022-.022-.022-.022H252.4v-.022h-.09v.022h-.045v.022h-.022v.022h-.022v.134h.022Z" transform="translate(-173.835 -73.941)" fill="#fff"/><path d="M212.606,129.76l.112-.067,12.351-22.062-.246-.134-12.329,22.062.112.2-.112-.2-.022.022v.112h.022v.022l.022.022h.022v.022h.134l.022-.022.022-.022v-.022Z" transform="translate(-146.442 -74.09)" fill="#fff"/><path d="M148.526,195.253h0l1.074-.022,1.052-.067,1.029-.089,1.029-.157,1.007-.179,1.007-.224.985-.246.962-.291.94-.336.94-.358.917-.4.9-.425.9-.47.85-.492.828-.515.828-.559.806-.582.738-.627.738-.649.738-.671.694-.694.671-.716.649-.761.6-.761.6-.783.559-.828.515-.828.492-.873.47-.873.448-.9.4-.917.358-.94-.246-.112-.38.94-.38.9-.448.9-.448.873-.492.85-.537.828-.537.806-.582.806-.627.761-.627.738-.671.716-.694.671-.716.671-.716.649-.761.6-.783.582-.806.537-.828.537-.85.492-.873.448-.9.425-.917.4-.917.358-.94.313-.962.291-.962.269-.985.2-1.007.179-1.029.134-1.007.112-1.052.067-1.052.022h-.067v.022h-.022v.022h-.022v.045h-.022v.089h.022v.045h.022l.022.022h.022v.022h.045Z" transform="translate(-102.276 -122.622)" fill="#fff"/><path d="M63.936,148.526h0l.045,1.365.112,1.32.157,1.32.224,1.3.313,1.275.358,1.253.4,1.231.47,1.208.537,1.164.582,1.141.627,1.1.694,1.074.738,1.029.783,1.007.828.94.873.917.917.873.962.85.985.783,1.052.716,1.052.694,1.119.649,1.141.582,1.164.515,1.186.47,1.231.425,1.253.358,1.275.291,1.3.224,1.32.179,1.343.09,1.343.045v-.269l-1.343-.045-1.32-.09-1.3-.179-1.3-.224-1.253-.291-1.231-.358-1.208-.4-1.186-.47-1.164-.515-1.119-.582-1.1-.627-1.074-.694-1.007-.716-.985-.783-.962-.828-.9-.85-.873-.917-.828-.94-.761-.985-.738-1.029-.671-1.052-.627-1.1-.582-1.119-.515-1.164-.47-1.186-.425-1.208-.358-1.253-.291-1.253-.224-1.275-.157-1.32-.112-1.32-.022-1.343V148.5l-.022-.022v-.045h-.022l-.022-.022h-.022v-.022h-.112v.022H64l-.022.022-.022.022v.045h-.022Z" transform="translate(-44.067 -102.276)" fill="#fff"/><path d="M90.317,63.936h0l-1.343.045-1.343.09-1.32.179-1.3.224-1.275.291-1.253.358-1.231.425-1.186.47-1.164.537-1.141.582-1.119.627-1.052.694-1.052.738-.985.783-.962.828-.917.873-.873.917-.828.962-.783.985-.738,1.029-.694,1.074-.627,1.119-.582,1.119-.537,1.186-.47,1.186-.4,1.231-.358,1.253-.313,1.275-.224,1.3-.157,1.32-.112,1.343-.045,1.343h.291l.022-1.343.112-1.32.157-1.3.224-1.3.291-1.253.358-1.231.425-1.231.47-1.186.515-1.141.582-1.141.627-1.074.671-1.074.738-1.029.761-.985.828-.94.873-.9.9-.873.962-.828.985-.761,1.007-.738,1.074-.671,1.1-.649,1.119-.559,1.164-.537,1.186-.47,1.208-.4,1.231-.358,1.253-.291,1.3-.224,1.3-.157,1.32-.112,1.343-.022h.022l.022-.022h.045v-.022h.022V64.16h.022V64h-.022v-.022h-.022v-.022h-.045v-.022h-.045Z" transform="translate(-44.067 -44.067)" fill="#fff"/><path d="M168.112,72.416l.112.045-.47-.492-.47-.47-.47-.47-.492-.448-.515-.425-.492-.425-.515-.425-.537-.38-.559-.4-.559-.358-.559-.358L162,67.449l-.582-.313-.6-.313-.6-.313-.6-.269-.627-.269-.627-.269-.649-.224-.649-.224-.649-.2-.649-.2-.671-.157-.671-.157-.671-.134-.694-.134-.694-.09-.694-.09-.694-.067-.716-.045-.716-.022-.716-.022v.291h.716l.694.022.716.045.694.067.694.09.671.09.671.134.671.134.671.157.671.157.649.179.649.224.627.2.627.246.627.246.627.269.6.269.6.313.582.313.582.313.559.336.559.358.559.358.537.38.537.4.515.4.492.425.515.425.47.448.492.47.47.47.448.47.089.045-.089-.045v.022h.022l.022.022h.112l.022-.022h.022V72.64l.022-.022V72.6l.022-.022v-.022l-.022-.022v-.045h-.022v-.022Z" transform="translate(-102.574 -44.067)" fill="#fff"/><path d="M227.356,91.291l-.134-.067H210.888v.269h16.334l.134-.2-.134.2h.089V91.47l.022-.022h.022v-.157l-.022-.022h-.022v-.022h-.022l-.022-.022h-.045Z" transform="translate(-145.35 -62.874)" fill="#fff"/><path d="M148.526,20.5h0l1.454.045,1.454.067,1.41.134,1.432.179,1.387.224,1.365.269,1.365.336,1.343.358,1.32.4,1.3.47,1.3.492,1.253.559,1.208.582,1.208.627,1.186.671,1.164.694,1.141.738,1.1.783,1.074.828,1.052.85,1.029.9.985.917.962.962.917.985.9,1.007.85,1.052.806,1.074.806,1.1.738,1.141.716,1.164.671,1.186.627,1.208.246-.134-.649-1.208-.671-1.186-.716-1.164-.738-1.141-.806-1.119-.828-1.1-.85-1.052-.9-1.029-.94-.985-.962-.962-.985-.917-1.029-.9-1.052-.873-1.1-.828-1.1-.783-1.164-.738-1.164-.716L167.456,25l-1.231-.627-1.208-.582-1.275-.559-1.275-.515-1.32-.448-1.32-.425-1.365-.358-1.365-.336-1.387-.268-1.41-.224-1.41-.179-1.432-.134L150,20.254l-1.477-.022h-.045v.022h-.022l-.022.022-.022.022v.022l-.022.022v.067l.022.022v.022l.022.022h.022V20.5h.067Z" transform="translate(-102.276 -13.945)" fill="#fff"/><path d="M20.523,60.195h0l.045-2.036.157-2.014.246-1.991.358-1.969.425-1.924.537-1.88.627-1.835.716-1.812.806-1.745.873-1.723.962-1.656L27.3,38l1.1-1.566,1.186-1.5L30.838,33.5l1.3-1.387,1.387-1.3,1.432-1.253,1.5-1.186,1.566-1.1,1.611-1.029,1.656-.962,1.723-.873,1.745-.783,1.812-.716,1.835-.627,1.88-.537,1.924-.448,1.947-.336,1.991-.246,2.014-.157,2.036-.067v-.269l-2.059.067-2.014.134-2.014.269-1.947.336-1.947.448-1.9.537-1.857.627-1.812.716-1.768.806-1.723.873L39.475,26l-1.611,1.052L36.3,28.175l-1.5,1.186-1.454,1.253-1.387,1.32-1.32,1.387-1.275,1.454-1.186,1.5-1.1,1.566-1.052,1.633-.962,1.656-.873,1.723-.806,1.768-.716,1.835-.627,1.857-.537,1.88-.448,1.947L20.7,54.108,20.456,56.1,20.3,58.136l-.067,2.059v.045h.022v.045h.022v.022H20.3l.022.022h.112l.022-.022h.022v-.022H20.5v-.045l.022-.022Z" transform="translate(-13.945 -13.945)" fill="#fff"/><path d="M60.195,188.518h0l-2.036-.067-2.014-.134-1.991-.269-1.947-.336-1.924-.447-1.88-.537-1.835-.627-1.812-.694L43.01,184.6l-1.723-.873-1.656-.962-1.611-1.029-1.566-1.1-1.5-1.186L33.523,178.2l-1.387-1.3-1.3-1.387-1.253-1.432-1.186-1.5-1.1-1.566-1.029-1.611-.962-1.656-.873-1.7-.806-1.768-.716-1.812-.627-1.835-.537-1.88-.425-1.924-.358-1.947-.246-1.991-.157-2.014-.045-2.059h-.291l.067,2.059.157,2.036.246,1.991.358,1.969.448,1.947.537,1.9.627,1.857.716,1.812.806,1.768.873,1.723.962,1.678,1.052,1.611,1.1,1.566,1.186,1.522,1.275,1.432,1.32,1.387,1.387,1.343L34.8,179.68l1.5,1.186,1.566,1.1,1.611,1.052,1.678.962,1.723.873,1.768.806,1.812.716,1.857.627,1.9.537,1.947.448,1.947.358,2.014.246,2.014.157,2.059.045h.067l.022-.022.022-.022.022-.022v-.134l-.022-.022-.022-.022-.022-.022h-.067Z" transform="translate(-13.945 -102.574)" fill="#fff"/><path d="M187.735,175.824l-.134.09-.4,1.678-.448,1.633-.537,1.589-.6,1.566-.671,1.544-.738,1.5-.783,1.477-.85,1.432-.9,1.387-.962,1.343-1.007,1.32-1.074,1.253-1.119,1.231-1.164,1.164-1.208,1.119-1.253,1.074-1.32,1.007-1.343.962-1.387.917-1.432.85-1.454.783-1.477.738-1.544.671-1.566.6-1.589.537-1.633.47-1.656.425-1.678.336-1.723.246-1.723.2-1.745.112-1.79.045v.268l1.79-.045,1.768-.112,1.745-.179,1.723-.268,1.7-.336,1.656-.425,1.633-.47,1.611-.537,1.589-.626,1.544-.671,1.5-.738,1.477-.783,1.432-.873,1.387-.9,1.365-.985,1.3-1.029,1.275-1.074,1.231-1.119,1.164-1.186,1.119-1.231,1.074-1.253,1.029-1.32.962-1.365.917-1.41.85-1.432.783-1.477.738-1.522.671-1.544.6-1.589.537-1.611.47-1.633.4-1.678-.112.112.112-.112v-.09l-.022-.022v-.022h-.022v-.022h-.157v.022h-.022l-.022.022v.045H187.6Z" transform="translate(-102.574 -121.183)" fill="#fff"/><path d="M217.715,177.825l-.134-.2-4.676.2v.268l4.7-.179.112-.089-.112.089h.022l.022-.022h.022v-.022h.022v-.022h.022v-.134l-.022-.022v-.022h-.022v-.022h-.045l-.022-.022h-.022Z" transform="translate(-146.74 -122.424)" fill="#fff"/><path d="M279.693,175.1l-.134-.067-5.527.246.022.269,5.527-.246.112-.2-.112.2h.067v-.022h.022v-.022h.022v-.045h.022v-.067l-.022-.022V175.1l-.022-.022v-.022h-.045v-.022h-.067Z" transform="translate(-188.871 -120.637)" fill="#fff"/><path d="M39.852,168.666l-.022.806a2.411,2.411,0,0,1-2.506-1.947,2.73,2.73,0,0,1,0-1.589,2.456,2.456,0,0,1,.917-1.186,3.861,3.861,0,0,1,1.477-.649,3.564,3.564,0,0,1,1.678-.045,2.436,2.436,0,0,1,1.231.716,3.09,3.09,0,0,1,.694,1.343,2.319,2.319,0,0,1-.09,1.566,2.51,2.51,0,0,1-1.029,1.141l-.38-.716a1.827,1.827,0,0,0,.783-.828,1.412,1.412,0,0,0,.045-1.007,1.751,1.751,0,0,0-.582-1.074,1.849,1.849,0,0,0-1.007-.425,3.817,3.817,0,0,0-1.141.09,3.715,3.715,0,0,0-1.275.537,1.683,1.683,0,0,0-.649.85,2.121,2.121,0,0,0-.067,1.052,1.9,1.9,0,0,0,.671,1.029,1.85,1.85,0,0,0,1.253.336" transform="translate(-25.644 -113.018)" fill="#1a1311"/><path d="M45.316,182.843a.8.8,0,0,1,.246.09,1.908,1.908,0,0,1,1.1,1.141,1.988,1.988,0,0,1-.045,1.522,2.06,2.06,0,0,1-1.3,1.074v-.828a1.342,1.342,0,0,0,.716-.537A1.317,1.317,0,0,0,46.1,184.3a1.141,1.141,0,0,0-.627-.694,1.091,1.091,0,0,1-.157-.067Zm-1.074,3.4.157.783a1.939,1.939,0,0,1-1.991-1.275,1.937,1.937,0,0,1,.045-1.656,2.273,2.273,0,0,1,1.343-1.1,2.611,2.611,0,0,1,1.522-.157v.694a1.255,1.255,0,0,0-.85.067l.85,2.215v.85c-.022.022-.045.022-.09.022-.022.045-.09.045-.179.089l-1.141-3.043a1.559,1.559,0,0,0-.873.806,1.165,1.165,0,0,0-.045.985,1.249,1.249,0,0,0,.448.559,1.275,1.275,0,0,0,.806.157" transform="translate(-29.116 -125.987)" fill="#1a1311"/><path d="M46.872,196.774l3.849-2.014.291.559-.537.313a1.4,1.4,0,0,1,1.253.873,1.73,1.73,0,0,1,.246.694,1.217,1.217,0,0,1-.112.6,1.264,1.264,0,0,1-.38.47c-.112.09-.313.2-.6.38l-2.372,1.208-.336-.649L50.5,198a1.324,1.324,0,0,0,.559-.38.583.583,0,0,0,.157-.448.751.751,0,0,0-.112-.515,1.069,1.069,0,0,0-.627-.582,1.431,1.431,0,0,0-1.164.224l-2.081,1.119Z" transform="translate(-32.306 -134.234)" fill="#1a1311"/><path d="M56.392,209.22l-.492.425a2.666,2.666,0,0,1-.336-.4,1.6,1.6,0,0,1-.269-.582.97.97,0,0,1,.134-.47,3.923,3.923,0,0,1,.671-.515l2.081-1.387-.291-.448.47-.291L58.7,206l.9-.582.761.358-1.275.828.4.6-.492.336-.38-.649L56.46,208.28a1.406,1.406,0,0,0-.313.268.3.3,0,0,0-.045.2.756.756,0,0,0,.09.224.976.976,0,0,0,.2.246" transform="translate(-38.112 -141.579)" fill="#1a1311"/><path d="M63.2,214.21a1.884,1.884,0,0,1,1.208.738,1.965,1.965,0,0,1,.448,1.5,2.8,2.8,0,0,1-.94,1.477.326.326,0,0,0-.179.112l-.537-.649V216.4l.537.626a1.488,1.488,0,0,0,.47-.738,1.189,1.189,0,0,0-.246-.94,1.087,1.087,0,0,0-.761-.448Zm-.425,3.558.425.671a1.941,1.941,0,0,1-1.208.134,2.278,2.278,0,0,1-1.074-.738,1.96,1.96,0,0,1-.47-1.544,2.331,2.331,0,0,1,.9-1.477,2.43,2.43,0,0,1,1.678-.627.492.492,0,0,1,.179.022v.694a.082.082,0,0,0-.067-.022,1.331,1.331,0,0,0-.94.291L63.2,216.4v.985l-1.5-1.88a1.681,1.681,0,0,0-.6,1.007,1.219,1.219,0,0,0,.291.94.933.933,0,0,0,.582.4,1.456,1.456,0,0,0,.806-.089" transform="translate(-41.648 -147.621)" fill="#1a1311"/><path d="M68.616,226.094l3.021-3.11.47.492-.448.425a2,2,0,0,1,.738-.09.653.653,0,0,1,.47.246,1.2,1.2,0,0,1,.336.671l-.649.313a1.227,1.227,0,0,0-.246-.515,1.019,1.019,0,0,0-.425-.179,1.243,1.243,0,0,0-.47.09,3.721,3.721,0,0,0-.671.537l-1.611,1.633Z" transform="translate(-47.292 -153.687)" fill="#1a1311"/><path d="M76.823,231.592l.649.358a1.08,1.08,0,0,0-.134.716,1.329,1.329,0,0,0,.448.694,1.115,1.115,0,0,0,.738.268.576.576,0,0,0,.492-.224.374.374,0,0,0,.045-.448c0-.112-.157-.313-.4-.671a3.578,3.578,0,0,1-.671-.962.7.7,0,0,1-.112-.582.792.792,0,0,1,.224-.582.676.676,0,0,1,.425-.313.832.832,0,0,1,.515-.112.775.775,0,0,1,.515.112,1.407,1.407,0,0,1,.537.291,1.851,1.851,0,0,1,.6.671,1.308,1.308,0,0,1,.246.694,1.866,1.866,0,0,1-.224.649l-.6-.38a.818.818,0,0,0,.067-.559.968.968,0,0,0-.425-.559.811.811,0,0,0-.649-.291.416.416,0,0,0-.492.447c-.022.067.022.179.112.313a4.973,4.973,0,0,0,.4.537c.291.425.537.738.627.917a1.09,1.09,0,0,1,.157.627,1.174,1.174,0,0,1-.269.6,1.094,1.094,0,0,1-.559.38,1.674,1.674,0,0,1-.828.067,3.537,3.537,0,0,1-.806-.425,1.926,1.926,0,0,1-.806-1.074,1.591,1.591,0,0,1,.179-1.164" transform="translate(-52.792 -158.335)" fill="#1a1311"/><path d="M93.888,240.605l1.7-3.356-.627-.291.269-.515.582.291.224-.425a2.039,2.039,0,0,1,.336-.537,1.1,1.1,0,0,1,.582-.224.948.948,0,0,1,.716.179,2.05,2.05,0,0,1,.582.358l-.358.515c-.157-.112-.291-.179-.4-.246a.655.655,0,0,0-.492-.067.627.627,0,0,0-.336.425l-.2.358.761.358-.246.492-.783-.358-1.656,3.356Z" transform="translate(-64.71 -162.336)" fill="#1a1311"/><path d="M103.6,243.216a2.035,2.035,0,0,1,.783.157,1.758,1.758,0,0,1,1.141,1.029,2.288,2.288,0,0,1,0,1.723,2.639,2.639,0,0,1-.694,1.164,2.323,2.323,0,0,1-.94.47H103.6v-.627a.8.8,0,0,0,.425-.179,1.669,1.669,0,0,0,.783-1.052,1.7,1.7,0,0,0,.067-1.275,1.283,1.283,0,0,0-.716-.694,1.241,1.241,0,0,0-.559-.067Zm-1.924,1.611a2.417,2.417,0,0,1,1.253-1.477,1.8,1.8,0,0,1,.671-.134v.649a1.7,1.7,0,0,0-.448.134,1.838,1.838,0,0,0-.738,1.074,1.787,1.787,0,0,0-.09,1.3,1.106,1.106,0,0,0,.716.694,1.207,1.207,0,0,0,.559.067v.627a2.371,2.371,0,0,1-.783-.112,1.979,1.979,0,0,1-1.164-1.074,2.245,2.245,0,0,1,.022-1.745" transform="translate(-69.952 -167.632)" fill="#1a1311"/><path d="M115.272,250.735l1.007-4.207.649.134-.134.649a1.5,1.5,0,0,1,.559-.492,1,1,0,0,1,.515-.022,1.311,1.311,0,0,1,.649.38l-.4.6a2.106,2.106,0,0,0-.492-.269.62.62,0,0,0-.448.067.682.682,0,0,0-.358.313,4.307,4.307,0,0,0-.313.806l-.515,2.193Z" transform="translate(-79.449 -169.915)" fill="#1a1311"/><path d="M134.936,244.286a2.225,2.225,0,0,1,.873.134,1.943,1.943,0,0,1,.873.47,2.323,2.323,0,0,1,.627,1.074,3.8,3.8,0,0,1,.179,1.387,4.612,4.612,0,0,1-.246,1.208,2.733,2.733,0,0,1-.425.85,2.223,2.223,0,0,1-.6.537,2.074,2.074,0,0,1-.716.224,2.014,2.014,0,0,1-.559.067v-.694c.2-.022.336-.045.47-.067a1.757,1.757,0,0,0,.582-.269,3.233,3.233,0,0,0,.47-.738,5.207,5.207,0,0,0,.2-1.164,2.332,2.332,0,0,0-.246-1.432,1.46,1.46,0,0,0-.671-.738,2.441,2.441,0,0,0-.806-.157Zm-2.528,5.84.291-5.974,2.036.112c.09,0,.157.022.2.022v.694h-.224l-1.253-.09-.246,4.587,1.275.067h.448v.694h-.4Z" transform="translate(-91.26 -168.277)" fill="#1a1311"/><path d="M151.257,250.653l-.157-4.341.738-.022.157,4.318Zm-.179-5.169-.022-.806.716-.022.022.828Z" transform="translate(-104.112 -168.624)" fill="#1a1311"/><path d="M156.208,252.341l.694-.179a1.078,1.078,0,0,0,.4.6,1.272,1.272,0,0,0,.806.179,1.334,1.334,0,0,0,.716-.313.619.619,0,0,0,.179-.492.363.363,0,0,0-.246-.358,3.145,3.145,0,0,0-.738-.179c-.582-.067-.962-.157-1.186-.2a1.081,1.081,0,0,1-.492-.38,1.127,1.127,0,0,1-.246-.582,1.387,1.387,0,0,1,.09-.515,1.04,1.04,0,0,1,.291-.47,1.738,1.738,0,0,1,.47-.269,1.607,1.607,0,0,1,.627-.157,2.97,2.97,0,0,1,.9.067,1.041,1.041,0,0,1,.582.313,1.616,1.616,0,0,1,.336.649l-.694.157a.861.861,0,0,0-.358-.492,1.242,1.242,0,0,0-.694-.09.979.979,0,0,0-.671.269.512.512,0,0,0-.179.38.442.442,0,0,0,.134.246.626.626,0,0,0,.269.179c.089.022.313.045.694.134a7.805,7.805,0,0,1,1.1.179,1.575,1.575,0,0,1,.537.336,1.306,1.306,0,0,1,.224.627.93.93,0,0,1-.134.716,1.229,1.229,0,0,1-.559.559,2.107,2.107,0,0,1-.873.268,2.145,2.145,0,0,1-1.32-.2,1.443,1.443,0,0,1-.649-.985" transform="translate(-107.586 -171.633)" fill="#1a1311"/><path d="M172.738,249.062l.783-.09a1.814,1.814,0,0,1-.4,1.141,1.922,1.922,0,0,1-1.119.716,2.118,2.118,0,0,1-.738.067v-.649a1.276,1.276,0,0,0,.582,0,1.988,1.988,0,0,0,.649-.38,1.633,1.633,0,0,0,.246-.806m-1.477-2.685a2,2,0,0,1,1.074.246,2.52,2.52,0,0,1,.962,1.5.447.447,0,0,0,.067.179l-2.1.582v-.626l1.164-.336a1.288,1.288,0,0,0-.448-.694,1.114,1.114,0,0,0-.716-.246Zm0,4.52a1.811,1.811,0,0,1-.828-.268,2.39,2.39,0,0,1-1.007-1.454,2.631,2.631,0,0,1,.112-1.745,1.911,1.911,0,0,1,1.275-.985,1.442,1.442,0,0,1,.448-.067v.6a1.51,1.51,0,0,0-.313.045,1.284,1.284,0,0,0-.738.537,1.852,1.852,0,0,0-.112,1.007l1.164-.313v.626l-1.052.291a1.859,1.859,0,0,0,.671.917,1.14,1.14,0,0,0,.38.157Z" transform="translate(-116.71 -169.808)" fill="#1a1311"/><path d="M187.049,244.291a2.936,2.936,0,0,1-.492.783,3.441,3.441,0,0,1-.671.492,1.091,1.091,0,0,1-.246.089v-.649c.045-.022.112-.045.157-.067a1.02,1.02,0,0,0,.6-.492,1.355,1.355,0,0,0,.246-.649,1.948,1.948,0,0,0-.2-.716l-.112-.224a5.418,5.418,0,0,1-.694.537v-.738c.179-.112.336-.246.47-.336-.045-.112-.089-.157-.089-.179a1.291,1.291,0,0,0-.38-.448v-.783a.66.66,0,0,1,.336.112.866.866,0,0,1,.425.336,3.943,3.943,0,0,1,.313.627l.425.9c.269.6.492.962.559,1.141a1.6,1.6,0,0,0,.4.38l-.671.313a1.008,1.008,0,0,1-.38-.425m-1.41,1.365a1.948,1.948,0,0,1-.94.045,1.3,1.3,0,0,1-.716-.627,2.055,2.055,0,0,1-.112-.627,1.522,1.522,0,0,1,.179-.537,2.34,2.34,0,0,1,.38-.425,3.708,3.708,0,0,1,.582-.38c.224-.157.448-.313.627-.448v.738c-.09.067-.2.134-.313.2a3.153,3.153,0,0,0-.515.4.775.775,0,0,0-.179.358.376.376,0,0,0,.067.336.576.576,0,0,0,.4.38.783.783,0,0,0,.537-.067Zm0-3.96v-.783h-.269a2.623,2.623,0,0,0-.873.291,2.786,2.786,0,0,0-.828.537,1.281,1.281,0,0,0-.38.671,1.947,1.947,0,0,0,0,.806l.694-.2a1.289,1.289,0,0,1,.067-.738,1.645,1.645,0,0,1,1.477-.627c.045.022.067.022.112.045" transform="translate(-126.3 -166.044)" fill="#1a1311"/><path d="M196.743,238.28l.559-.492a.994.994,0,0,0,.649.38,1.262,1.262,0,0,0,.761-.246,1.08,1.08,0,0,0,.515-.6.532.532,0,0,0-.067-.515.567.567,0,0,0-.4-.224,3.129,3.129,0,0,0-.761.2,4.56,4.56,0,0,1-1.1.336.7.7,0,0,1-.6-.067,1.035,1.035,0,0,1-.47-.4,1.454,1.454,0,0,1-.2-.515,1.426,1.426,0,0,1,.09-.537,1.392,1.392,0,0,1,.268-.448,1.877,1.877,0,0,1,.492-.425,1.851,1.851,0,0,1,.828-.38,1.05,1.05,0,0,1,.649.022,1.711,1.711,0,0,1,.582.4l-.559.492a.615.615,0,0,0-.492-.269.909.909,0,0,0-.649.2,1.176,1.176,0,0,0-.515.559.379.379,0,0,0,.067.448.357.357,0,0,0,.2.157.439.439,0,0,0,.336-.022,2.554,2.554,0,0,0,.649-.179,7.478,7.478,0,0,1,1.074-.313,1.1,1.1,0,0,1,.6.045,1.535,1.535,0,0,1,.515.448,1.329,1.329,0,0,1,.179.694,1.38,1.38,0,0,1-.246.761,1.941,1.941,0,0,1-.649.626,1.916,1.916,0,0,1-1.253.425,1.638,1.638,0,0,1-1.052-.559" transform="translate(-134.83 -161.488)" fill="#1a1311"/><path d="M210.292,227.724l.649-.4a1.659,1.659,0,0,1,.179,1.164,2.142,2.142,0,0,1-.649,1.119,2.029,2.029,0,0,1-1.522.559,1.219,1.219,0,0,1-.492-.112v-.828a1.744,1.744,0,0,0,.649.268,1.446,1.446,0,0,0,.962-.336,1.276,1.276,0,0,0,.358-.627,1.211,1.211,0,0,0-.134-.806m-1.835-1.969v.627a1.728,1.728,0,0,1,.336.045,1.347,1.347,0,0,1,.738.425l-1.074.962v.783l2.036-1.812a.38.38,0,0,0-.134-.134,2.17,2.17,0,0,0-1.5-.9,1.217,1.217,0,0,0-.4,0m0,4.3a2.959,2.959,0,0,1-1.029-.738,2.484,2.484,0,0,1-.716-1.633,1.879,1.879,0,0,1,.694-1.432,1.834,1.834,0,0,1,1.052-.492v.627a1.135,1.135,0,0,0-.649.291,1.156,1.156,0,0,0-.38.85,1.129,1.129,0,0,0,.313.94l.716-.649v.783l-.358.336a3.427,3.427,0,0,0,.358.291Z" transform="translate(-142.472 -155.585)" fill="#1a1311"/><path d="M223.113,205.814l.649-.492a2.554,2.554,0,0,1,.627,1.589,2.2,2.2,0,0,1-.537,1.566,2.523,2.523,0,0,1-1.253,1.007,2.143,2.143,0,0,1-1.454.067,4.192,4.192,0,0,1-2.551-1.969,2.751,2.751,0,0,1-.246-1.454,2.863,2.863,0,0,1,.6-1.365,2.36,2.36,0,0,1,1.275-.917,2.329,2.329,0,0,1,1.544.09l-.336.716a2.142,2.142,0,0,0-1.164-.089,1.791,1.791,0,0,0-.806.649,2.087,2.087,0,0,0-.448,1.1,2.163,2.163,0,0,0,.336,1.052,3.515,3.515,0,0,0,1.991,1.432,1.39,1.39,0,0,0,1.119-.045,1.833,1.833,0,0,0,.806-.6,1.606,1.606,0,0,0,.38-1.141,1.8,1.8,0,0,0-.537-1.186" transform="translate(-150.482 -140.433)" fill="#1a1311"/><path d="M234.2,194.132a2.392,2.392,0,0,1,.962.38,2.827,2.827,0,0,1,1.007.85,1.838,1.838,0,0,1,.291,1.029,2.128,2.128,0,0,1-.313,1.029,1.8,1.8,0,0,1-1.253.962,1.456,1.456,0,0,1-.694.022v-.738a1.379,1.379,0,0,0,.6.022,1.1,1.1,0,0,0,.806-.582,1.063,1.063,0,0,0,.112-.962,1.9,1.9,0,0,0-.917-.985,3.123,3.123,0,0,0-.6-.246Zm-1.052,3.893a2.27,2.27,0,0,1-1.186-1.477,1.923,1.923,0,0,1,.269-1.432,2,2,0,0,1,1.253-.94,1.538,1.538,0,0,1,.716-.045v.783a1.622,1.622,0,0,0-.649-.045,1.106,1.106,0,0,0-.761.582,1.043,1.043,0,0,0-.134.985,1.791,1.791,0,0,0,.9.94,2.329,2.329,0,0,0,.649.291v.738a2.739,2.739,0,0,1-1.052-.38" transform="translate(-159.844 -133.786)" fill="#1a1311"/><path d="M241.255,186.041l-3.871-1.835.291-.627.537.291a1.525,1.525,0,0,1-.067-1.544,2.007,2.007,0,0,1,.448-.582,1.126,1.126,0,0,1,.537-.313,1.708,1.708,0,0,1,.582.045,2.172,2.172,0,0,1,.694.291l2.394,1.119-.336.671-2.372-1.141a2.226,2.226,0,0,0-.649-.224.684.684,0,0,0-.448.157.813.813,0,0,0-.336.38,1.3,1.3,0,0,0-.09.873c.09.291.358.537.873.783l2.148,1.007Z" transform="translate(-163.612 -125.046)" fill="#1a1311"/><path d="M244.839,174.331l.649.157a2.9,2.9,0,0,1-.157.515,1.181,1.181,0,0,1-.38.559.584.584,0,0,1-.4.134,2.941,2.941,0,0,1-.828-.246l-2.3-.94-.224.492-.537-.224.224-.492-.985-.425-.134-.806,1.387.582.291-.694.537.224-.291.694,2.327.94a2.64,2.64,0,0,0,.425.134.67.67,0,0,0,.179-.09.274.274,0,0,0,.134-.2c.022-.089.067-.2.089-.313" transform="translate(-165.25 -119.198)" fill="#1a1311"/><path d="M249.736,168.311l-4.072-1.5.246-.6.6.2a1.6,1.6,0,0,1-.4-.627.738.738,0,0,1,.022-.492,1.192,1.192,0,0,1,.492-.627l.559.47a1.1,1.1,0,0,0-.358.448.618.618,0,0,0,0,.448.679.679,0,0,0,.291.38,2.656,2.656,0,0,0,.738.425l2.126.783Z" transform="translate(-169.319 -113.491)" fill="#1a1311"/><path d="M251.752,154.023a3.793,3.793,0,0,1,.492.089,4.264,4.264,0,0,1,1.208.627,2.579,2.579,0,0,1,.515.94,1.9,1.9,0,0,1-.089,1.052,1.78,1.78,0,0,1-.94,1.253,1.939,1.939,0,0,1-1.186.179V157.4a2,2,0,0,0,.917-.067,1.276,1.276,0,0,0,.649-.761,1.1,1.1,0,0,0-.112-.985,1.817,1.817,0,0,0-1.119-.716c-.134-.045-.246-.067-.336-.089Zm-.6,4.005a2.174,2.174,0,0,1-1.5-1.164,1.98,1.98,0,0,1-.089-1.432,2.036,2.036,0,0,1,.985-1.231,2.01,2.01,0,0,1,1.208-.179v.761a1.822,1.822,0,0,0-.94.067,1.276,1.276,0,0,0-.649.761,1.1,1.1,0,0,0,.112.985,1.759,1.759,0,0,0,1.1.716,1.9,1.9,0,0,0,.38.089v.761a2.929,2.929,0,0,1-.6-.134" transform="translate(-171.939 -106.14)" fill="#1a1311"/><path d="M253.016,149.3l-5.84-1.343.179-.716,5.8,1.343Z" transform="translate(-170.361 -101.482)" fill="#1a1311"/><path d="M96.352,43.667v-.806l.291.246c0,.022.022.022.045,0l.4-.4V42.66l-.738-.671v-.806l1.611,1.477a.084.084,0,0,1,0,.134l-1.141,1.164a.084.084,0,0,1-.134,0Zm0-2.484v.806l-.269-.269-.448.47.716.671v.806l-1.566-1.454v-.806l.336.313.448-.47-.783-.716v-.806ZM94.786,45.39v-.9l.985.9-.47.47Zm0-1.164c.425.09.9.2,1.387.291l.112-.671c-.425-.067-.85-.134-1.253-.224l.246-.269-.492-.448Zm0-4.5v.806l-.336-.291L94,40.691l.783.716v.806l-.537-.492-.358.358.9.828v1.32a2.341,2.341,0,0,1-.38-.09l.38.358v.9l-1.007-.94V43.309c.224.067.448.134.694.2l-.694-.649V39.953l.179-.179-.179-.179v-.806Zm-1.007,6.757.537-.537a.2.2,0,0,0-.022-.336l-.515-.47Zm0-7.7v.806l-.47-.425v-.806Zm0,1.164v2.909l-.336-.313-.134.134V41.519l.045.067.358-.358-.4-.4v-.783l.2.179Zm0,3.356V44.45L93.309,44v-.9l.09.09c.112.045.246.067.38.112m0,1.835v1.343l-.47.492v-.985l.179-.2a.084.084,0,0,0,0-.134l-.179-.157V44.7Zm-.47-6.78v.806l-.4-.358c0-.022-.022-.022-.022,0l-.4.4c-.022.022-.022.022-.022.045l.85.783v.783l-1.723-1.566c-.045-.045-.022-.09.022-.134l1.141-1.164c.045-.045.09-.045.112,0Zm0,3.155L91.631,40l-.448.47,1.723,1.589-.358.358-1.454-1.343v.9l.627.582c-.2-.09-.4-.2-.627-.291v1.208L93.309,45.5V44.7l-1.522-1.387a.2.2,0,0,1,.112.022,10.663,10.663,0,0,0,1.119.425l.291.246v-.9l-.224-.2.224-.224Zm0,4.475v.985l-.962.962-.492-.47.246-.246-1.007-.9v-.806L92.5,46.8l.313-.313L91.094,44.92v-.806l2.126,1.969Zm-2.215-9.308V36.4l.157.067Zm0-.291v.291l-2.752,4.363V39.707l2.282-3.6Zm0,4.676-.9-.828-.47.47,1.365,1.253Zm0,1.186v1.208l-.582-.537a.084.084,0,0,0-.134,0l-.269.269.985.917v.806l-1.387-1.3-.313.313,1.7,1.589v.806l-2.1-1.969-.246.246-.4-.38v-.2l1.589-1.611a11.209,11.209,0,0,1-1.074-.694l.291-.627a20.279,20.279,0,0,0,1.947,1.164m-2.752-4.072,1.365-2.17-.627-.38-.738,1.186Zm0-2.439v-.224l.09.067Zm0-.224v.224l-.291.448-.738-.448v-.828Zm0,1.3v1.365L87.312,39.8V38.431Zm0,2.886-1.029,1.611v1.208a1.519,1.519,0,0,0,.269-.269l.761-1.208Zm0,4.318v.2l-.112-.09Zm-1.029-6.31h0l.4-.6-.4-.224Zm0-2.8v.828l-.85-.492-.515.806,1.365.828v.828l-1.745-1.029-.38.582,1.477.873a.173.173,0,0,1,.067.269l-1.365,2.17a.8.8,0,0,1-.649.38,1.828,1.828,0,0,1-1.074-.559l.38-.694c.269.291.448.425.537.425a.435.435,0,0,0,.358-.179l.873-1.432c.022-.022,0-.045-.022-.067l-.94-.582L83.15,40.534l-.627-.38,1.678-2.64-.962-.582a.055.055,0,0,0-.09.022l-1.275,2.014V37.6l.985-1.522c.067-.112.134-.134.246-.067l1.477.873.38-.582-1.812-1.1.38-.6,1.79,1.1.515-.828-.962-.582a6.908,6.908,0,0,1-.873.38l-.358-.649a4.3,4.3,0,0,0,1.768-1.029l.492.515-.4.336.738.425.448-.716.627.38-.448.716Zm0,3.513L86.193,40.2l.627.38.492-.783Zm0,2.886v1.208a1.072,1.072,0,0,1-.448.157c-.313,0-.738-.269-1.253-.806l.4-.627c.157.179.291.313.38.4a.687.687,0,0,0,.47.246.28.28,0,0,0,.179-.179Zm-5.437-6.735a3.73,3.73,0,0,0,.4-.783l-.4-.336Zm0-2.238v-.627l.761.2-.179.582Zm0-.627v.627l-.828-.224a5.051,5.051,0,0,1,.09.649l-.694.067a7.911,7.911,0,0,0-.112-.917l-.6-.157v.022a5.307,5.307,0,0,1-.671.515,1.329,1.329,0,0,0-.089-.179l-.134.448,2.954.806.09.09v1.119a3.361,3.361,0,0,1-.336.515L81,34.739a7.379,7.379,0,0,0,.4-.694.094.094,0,0,0-.067-.134L76.8,32.681v-.671l1.343.358.157-.582.559.157a.813.813,0,0,0-.179-.2A3.3,3.3,0,0,0,79.749,30.6l.6.4c-.045.067-.112.157-.179.246Zm0,5.885v1.365l-.112.179-.627-.358ZM76.8,37.76v-.738l2.506.694a.123.123,0,0,0,.112-.067l.134-.537c.022-.045,0-.067-.045-.09L76.8,36.306v-.671l3.446.917c.157.045.224.134.179.291l-.448,1.522c-.045.157-.134.2-.313.157Zm0-2.663,3.312.9c.134.045.224,0,.246-.134l.448-1.5c.022-.134-.022-.2-.157-.246L76.8,33.061v.671l3.088.85c.067.022.089.045.089.112l-.134.47a.135.135,0,0,1-.134.067L76.8,34.426ZM76.8,31c.022.224.045.47.067.783l.671-.045a4.4,4.4,0,0,0-.045-.582l1.1.291.179-.582L76.8,30.331Zm0-.806V30.13l.022.022c0,.022-.022.022-.022.045m0-.067V30.2a.27.27,0,0,0-.112.112l.112.022V31a.069.069,0,0,0-.022-.045l-.649-.179a6.526,6.526,0,0,1-1.029.649A2.054,2.054,0,0,0,74.8,30.8a4.254,4.254,0,0,0,1.5-1.141Zm0,1.88v.671l-1.477-.4c-.045,0-.089.022-.089.045l-.269.94-.649-.179.425-1.5c.045-.067.09-.09.157-.067Zm0,1.052-1.074-.291a.193.193,0,0,0-.246.134l-1.141,3.938a.212.212,0,0,0,.157.291l2.3.627v-.738L75.207,36.6c-.045,0-.067-.045-.045-.09l.179-.6,1.454.4v-.671l-1.275-.358.134-.47L76.8,35.1v-.671l-.962-.246.157-.559a.1.1,0,0,1,.112-.067l.694.179Zm-6.6.828V30.756l2.573-.067.022.671-2.349.067.022.627,2.17-.045c.179,0,.268.067.268.224l.09,3.558a.793.793,0,0,1-.313.694,2.677,2.677,0,0,1-1.835.09l-.045-.761a5.02,5.02,0,0,0,1.007.179.56.56,0,0,0,.291-.09.332.332,0,0,0,.179-.336l-.067-2.819c0-.045-.022-.045-.045-.045l-1.723.045c-.022.112-.045.269-.067.448.582.559,1.164,1.141,1.7,1.768l-.537.47c-.38-.47-.828-.962-1.343-1.544m0-3.67v-.671l2.73-.067.022.671Zm0-.671v.671l-3.088.067c-.067.022-.09.045-.09.112l.067,2.685a5.462,5.462,0,0,1-1.208,3.67l-.627-.313a5.451,5.451,0,0,0,.94-1.7,5.391,5.391,0,0,0,.157-1.1c-.291.224-.559.425-.806.582l-.336-.537V33.6c.2-.134.582-.425,1.164-.9L66.3,29.817c0-.112.067-.179.2-.179l2.819-.067-.022-.6.738-.022.022.6Zm0,1.208-2.685.067.022.671,2.215-.045.022.627-2.081.045a.224.224,0,0,0-.246.246l.112,4.341h.694l-.09-3.871a.048.048,0,0,1,.045-.045l1.544-.045a2.927,2.927,0,0,1-1.387,2.327l.537.47a3.494,3.494,0,0,0,1.3-1.656Zm-4.99,5.661.067-.112h-.067Zm0-5.885a10.258,10.258,0,0,1,.291,1.522l.671-.112a10.44,10.44,0,0,0-.448-2.081L65.205,30Zm0-.537v.537a.653.653,0,0,0-.045-.2V30Zm0,3.6v.09l-.045-.067a.078.078,0,0,0,.045-.022m0,2.707v.112l-.045.112v-.224ZM65.16,30v.336a1.753,1.753,0,0,0-.112-.313Zm0,6.31v.224l-.224.47a4.812,4.812,0,0,1-2.909-1.723h0c-.045.157-.157.448-.313.85a4.726,4.726,0,0,1-.47.694v-1.5a2.452,2.452,0,0,0,.134-.582l-.134.022v-.694l.067-.022V34l-.067-.291V31.965l2.551-.559.157.671-2.215.47.291,1.3c0,.022.022.022,0,.067l2.417-.537.157.671-2.327.492a3.99,3.99,0,0,0,2.886,1.768m-3.916-5.169v-.694l2.349-.492.134.649Zm0-.694v.694l-3.043.671a.082.082,0,0,0-.09.09l.649,2.8a4.716,4.716,0,0,1-.649,3.714l-.671-.224a4.883,4.883,0,0,0,.716-1.79,5.321,5.321,0,0,0-.045-1.32l-.738.783-.515-.358v-.157L57.933,34.2l-.627-2.707c-.022-.134.022-.2.157-.246l2.618-.559-.134-.6.716-.157.134.6Zm0,1.522-1.387.291a4.711,4.711,0,0,0-.045-.559l-.694.09a4.763,4.763,0,0,1,0,1.141,3.5,3.5,0,0,1-.358.985l.671.246a3.56,3.56,0,0,0,.38-1.164c.022,0,.022-.022,0-.045l1.208-.246.224,1.007Zm0,2.1-2.17.47.157.671,2.014-.448Zm0,1.253a2.866,2.866,0,0,1-.761,1.275,6.312,6.312,0,0,1-1.186.917l.559.537a6.315,6.315,0,0,0,1.387-1.231Zm-4.386,2.618a1.108,1.108,0,0,0,.09-.291,2.021,2.021,0,0,0-.09-.627Zm0-4.095.6-.224a8.615,8.615,0,0,0-.6-1.432Zm0-1.656v1.656l-.022.022c-.112-.336-.246-.649-.358-.917V31.83l.134-.067a2.637,2.637,0,0,1,.246.425m0,3.155V35.5l-.067-.067Zm0,1.678v.917a.878.878,0,0,1-.179.313c-.067.045-.134.112-.2.157V36.283a2.326,2.326,0,0,1,.38.738m-.38-5.191v1.119a6.524,6.524,0,0,0-.47-.9Zm0,4.453a4.085,4.085,0,0,0-.291-.358,6.6,6.6,0,0,0-1.343-.9.237.237,0,0,1-.134-.157l-.425-2.551-.582-.134L51.556,33.24v.425l3.267,6.4.649-.313L52.384,33.71c-.022-.067-.022-.112.045-.134l1.253-.6a.353.353,0,0,0,.022.09l.38,2.238q0,.067.134.134a5.154,5.154,0,0,1,1.723,1.231c.336.537.38.917.134,1.119a1.727,1.727,0,0,1-1.1.224l.269.738a2.521,2.521,0,0,0,1.231-.336Zm-4.923,4.878v-.738l1.633-.783-.649-1.275c-.045-.067-.067-.067-.134-.045l-.85.425v-.738l1.141-.537c.09-.045.157-.022.179.045l1.41,2.73-.627.313-.179-.336Zm0-3.849V36.6l.94-.47.291.582Zm0-4.072v.425l-.134-.224v-.134c.022,0,.045-.022.067-.045Zm0,3.356v.716l-.134.067v-1.5a6.951,6.951,0,0,1,.09.716Zm0,1.41v.738l-.134.045v-.716Zm0,2.417v.738l-.134.045V40.49Zm-.134,1.208v-.045l.022.022Zm0-7.183V34.4l.022.022Zm0-1.141v.112a.1.1,0,0,1,0-.112m0,1.1v.045l-1.678.806v-.716l1.41-.694Zm0,1.477c-.045-.336-.112-.627-.157-.873l-.671.067a8.966,8.966,0,0,1,.291,1.835l-1.141.559v.716l1.678-.806Zm0,2.193v.716L50.37,39.3c-.067.045-.09.067-.045.134l.649,1.275.448-.224v.716l-.157.09.157.291v.045l-.6.291-1.074-2.1V38.9Zm-1.678,4.945a1.345,1.345,0,0,0,.313-.537.811.811,0,0,0-.224-.783l-.09-.09Zm0-5.885V36.82A1.279,1.279,0,0,0,49.9,37Zm0-2.6v.716l-.6.291v-1.41l.246-.112.269.537Zm0,2.282v.313l-.358.269a2.681,2.681,0,0,0-.246-.269v-.917c.246.246.448.425.6.6m0,.649v.716l-.6.291v-.738Zm0,1.432v.917l-.336-.649c-.045-.067-.022-.112.045-.134Zm0,2.707v1.41a3.547,3.547,0,0,1-.6.47v-.962a.389.389,0,0,0,.134-.246.3.3,0,0,0-.112-.224l-.022-.022V41Zm-.6-7.473v1.41l-1.3.627-.291-.582,1.454-.694-.269-.559Zm0,2.081a3.189,3.189,0,0,0-.269-.246l-.47.425q.336.3.738.738Zm0,1.522v.738l-.246.112-.313-.582Zm0,3.267v1.029L45.2,37.984V36.954Zm0,1.522v.962a5.9,5.9,0,0,1-.671.4l-.515-.559a4.006,4.006,0,0,0,1.186-.806M45.2,44.9V43.868l1.723,1.768-.537.492Zm0-1.947V42.28l1.007.134-.112.716c-.269-.067-.582-.112-.9-.179m0-2.439,2.148,2.215.537-.492L45.2,39.483Zm0-3.558v1.029l-.671-.671.537-.492Zm0,2.528v1.029l-1.723-1.768.515-.492Zm0,2.8c-.559-.067-1.119-.112-1.7-.157l-.022-.022,1.231-1.164-.492-.515-1.052.962v2.484a10.144,10.144,0,0,1,.269,2.036l.738-.224a10.3,10.3,0,0,0-.448-2.282L45.2,44.9V43.868l-1.029-1.052c.358.045.694.09,1.029.134Zm-2.036,8.794v-.179l.09.045Zm0-.738V48.769l.045.022.582-1.119-.627-.291v-.761l1.857.9-.313.6-.313-.157Zm0-8.95v2.484a7,7,0,0,0-.358-1.164l-.783.716v-.985l.4-.358-.4-.425V39.639c.179-.2.336-.425.47-.6l.582.4a14.067,14.067,0,0,1-.94,1.231.022.022,0,0,0-.022.022l.85.9Zm0,5.236v.761l-.045-.022-.582,1.119.627.291v1.566l-.224.448.224.112v.179l-.224.47-.917-.425v-.761l.313.134.559-1.1-.671-.313-.2.38V48.03l.515-.962-.515-.246v-.761Zm-1.141,6.69V52.55l.358.179-.313.6Zm0-13.671v2.014l-.4-.4c-.224.246-.448.492-.649.694V40.87a15.577,15.577,0,0,0,1.052-1.231m0,2.8v.985l-.425.4-.515-.537Zm0,3.625v.761l-.2-.112a.1.1,0,0,0-.134.045l-.537,1.052.806.38.067-.157v1.432l-.358.716.358.179v.761L40.973,50.6v-.761l.112.045.559-1.1-.671-.313V46.71l.38-.716a.214.214,0,0,1,.313-.112Zm0,6.489v.761L40.973,52.8v-.761Zm-1.052,4.229V54.206l.559.134Zm0-5.258.067.045.246-.537-.313-.134Zm0-10.651v1.074c-.157.157-.291.313-.425.425V41.318a4.021,4.021,0,0,0,.425-.448m0,5.84v1.768l-.134-.067-.291.559V47.516Zm0,3.133V50.6l-.425-.2v-.761Zm0,1.052v.627l-.425-.157v-.627Zm0,1.141V52.8l-.425-.2v-.761Zm0,2.17v2.573l-.425,1.79V55.3l.269-1.119Zm-.425-.515v-.559c.112.067.2.134.291.179Zm0-7.294v-.671l.2.09c.067.045.067.09.045.134Zm0-5.079v1.052a.078.078,0,0,1-.022.045l-.559-.4v-.067c.2-.2.4-.425.582-.627m0,4.408V46.4l-.582,1.164v-1.3l.022-.045c0-.022,0-.045-.022-.045v-.738Zm0,1.79-.582,1.164v1.432l.582.291v-.761l-.179-.09c-.067-.045-.067-.067-.045-.134l.224-.448Zm0,3.222v.627l-.582-.246v-.627Zm0,1.1v.761l-.582-.291v-.761Zm0,1.3v.559l-.112.157-.47-.336v-.761c.2.134.4.269.582.38m0,2.17v3.267l-.582,2.618V57.338l.112.022Zm-.582,13.537v-.671h.09l-.022.671Zm0-3.647h.045v.671h-.045Zm0-1.343V62.373c.022.045.067.09.09.134q.235.336-.067,1.343Zm0-21.906v.067l-.045-.022.045-.045m0,3.491v.716l-.179-.067v-.738Zm0,.828v1.3l-.179.336V46.6Zm0,2.417v1.432l-.179-.09V49.015Zm0,1.812v.627l-.179-.067v-.627Zm0,1.052V52.3l-.179-.09v-.761Zm0,1.208v.761c-.067-.045-.112-.067-.179-.112v-.738c.067.022.112.067.179.09m0,4.587v3.849l-.112.448h-.067V58.659l.134-.559-.134-.022v-.783Zm0,5.034V63.85h-.179V62.239c.067.045.112.09.179.134m0,3.491h-.179v-.671h.179Zm0,2.976h-.179v-.671h.179Zm-.179-23.494v.738l-.47-.224c0-.022-.022,0-.022,0l-.873,1.678v-1.32l.6-1.141a.082.082,0,0,1,.112-.045Zm0,1.253-.94,1.835H38.8l-.38-.179v.716l.559.269c.067.022.09.022.134-.022l.671-1.32Zm0,2.417v1.007l-.2-.112c-.134-.067-.179-.157-.112-.291Zm0,1.41-1.3-.537-.067.134v.47l1.365.559Zm0,1.029v.761l-1.365-.649V50.8Zm0,1.208c-.4-.246-.85-.492-1.365-.783v.716c.47.269.94.537,1.365.806Zm0,4.632v.783l-1.365-.313V57Zm0,1.365v2.976l-.649-.157Zm0,3.58V63.85l-.515-.022a2.306,2.306,0,0,1,.157-.448c.045-.269.045-.425-.022-.492a.36.36,0,0,0-.246-.067l-.738-.022v-.671h.94a1.185,1.185,0,0,1,.425.112m0,2.954-.761-.022.022-1.611h-.627v4.363H39l.022-2.059h.761Zm0,2.976v.671H38.422v-.694ZM38.422,55.213v-.985l.224.045Zm0-10.069.291-.559-.291-.134Zm0-.694v.694l-.38.783V44.405l.067-.134Zm0,1.768v1.32l-.269.537c-.022.022-.022.045,0,.045l.269.134v.716l-.38-.179V47Zm0,3.8v.47l-.134-.067Zm0,.783v.761l-.38-.2V50.6Zm0,1.074v.716c-.112-.067-.246-.134-.38-.2v-.716c.134.067.269.134.38.2m0,2.349v.985l-.38,1.7.38.09v.761l-.38-.067V54.161Zm0,8.57h-.38v-.671h.38Zm0,.761v4.363h-.09l.022-.492h-.313v-.694h.313v-.9h-.313V65.17h.336V63.559Zm0,5.281h-.38v-.694h.38Zm-.38-19.332v-.2l.067.045Zm0-5.1v1.522l-.627,1.208V45.614Zm0,2.6-.627,1.208v.269l.627.313Zm0,2.3v.2l-.47.873.47.224v.761l-.627-.291v-1.88l.067-.157Zm0,2.372v.716c-.2-.112-.425-.224-.627-.313l.358-.559a1.669,1.669,0,0,0,.269.157m0,2.484V57.7l-.179-.045-.448,2.014V56.4l.515-2.26Zm0,7.966V62.8h-.627V62.1Zm0,3.043v.671h-.336v.9h.336v.694l-.336-.022-.022.336h-.269V63.671h.313v1.5Zm0,2.976v.694l-.627-.022v-.671Zm-.627-22.532v1.522l-.671,1.3-.38-.179v-.6Zm0,2.6-.067.134c-.045.067-.022.09.022.112l.045.022Zm0,.985v1.88l-.157-.067-.47.917-.425-.2V51.23Zm0,7.2v3.267l-.134.582-.716-.157.582-2.6-.783-.179v-.761l.962.224Zm0,5.706V62.8l-1.052-.022V62.1Zm0,1.566v4.072h-.38l.022-1.9h-.448l-.022,1.7c0,.067-.045.09-.112.09h-.112V63.783h.157c.067,0,.112.022.112.09l-.022,1.275h.448l.022-1.477Zm0,4.475v.671h-.671c.045.045.09.067.134.112l-.38.6-.134-.134V68.146ZM36.363,49.239l.2-.4-.2-.09Zm0-1.589v.6l-.246-.134Zm0,1.1v.492l-.649,1.253v-1.5l.224-.448Zm0,2.484v.492l-.2-.09Zm0,5.325v.761l-.649-.134v-.761Zm0,6.22h-.649V62.1h.649Zm0,1.007v3.849h-.649v-.694l.179.022a.078.078,0,0,0,.022-.045l.022-2.439c0-.022,0-.022-.022-.022h-.2V63.76Zm0,4.363V69.4a5.907,5.907,0,0,0-.649-.47v-.806Zm-.649-7.541v-.582c.09.112.179.246.269.358Zm0-5.594V53.378l.358.09ZM33.253,68.929a5.046,5.046,0,0,1,.806.537l.336-.6a3.965,3.965,0,0,0-1.141-.694Zm2.461-19.937v1.5l-.269.537-.627-.313Zm0,4.386v1.633L35.4,56.354l.313.067v.761l-.47-.09-.47,2.014a6.1,6.1,0,0,1,.94.917v.582l-.336.269a5.529,5.529,0,0,0-1.1-1.186,4.152,4.152,0,0,0-1.029-.6v-.828a7.91,7.91,0,0,1,.873.425l.4-1.745-1.275-.291v-.761l1.432.313.671-2.886Zm0,8.726v.671h-.627v.85h-.649l-.067,4.318h-.649V66.669a3.578,3.578,0,0,0-.47-.112v-.694a4.63,4.63,0,0,0,.492.09V64.767l-.38-.022c-.067.022-.09.045-.09.09l-.022.783V64.073h.515V63.6h.627l.022-1.924h.694v.4Zm0,1.656h-.783a.1.1,0,0,0-.09.09l-.045,3.67c0,.067.022.09.09.112h.828v-.694h-.224c0,.022-.022,0-.022-.022l.022-2.439c0-.022.022-.022.045-.022h.179Zm0,4.363H35.67c-.291-.112-.6-.246-.962-.358l-.2.649a4.8,4.8,0,0,1,1.208.515Zm-2.864.627a3.17,3.17,0,0,1,.4.179v-.761c-.112-.045-.246-.09-.4-.157Zm.4-12.866v.761l-.157-.022Zm0,2.372v.828c-.112-.045-.246-.112-.4-.179v-.448l.134-.313a1.369,1.369,0,0,0,.269.112m0,5.818v2.484l-.022.917h-.38v-3.4Zm-.4-2.3h.358v1.812H32.85ZM32.112,68.5a2.608,2.608,0,0,1,.738.246v-.738c-.179-.045-.358-.112-.559-.179Zm.738-10.047V58.9a1.426,1.426,0,0,0-.157-.045Zm0,3.312v1.812l-.358-.022.022-1.812Zm0,2.3v3.4l-.269-.022V66.423a2.828,2.828,0,0,0-.47-.067l.157-.649a2.806,2.806,0,0,1,.336.045V64.23c0-.112.067-.157.179-.157Z" transform="translate(-22.133 -19.949)" fill="#1a1311"/></g></g><text transform="translate(201 3843)" font-size="40" font-family="NotoSansCJKtc-Bold, Noto Sans CJK TC" font-weight="700"><tspan x="0" y="0">衛生福利部管制署</tspan></text><text transform="translate(201 3874)" font-size="19" font-family="NotoSansCJKtc-Medium, Noto Sans CJK TC" font-weight="500"><tspan x="0" y="0">Taiwan Centers for Disease Control</tspan></text></g></svg>