<svg xmlns="http://www.w3.org/2000/svg" viewBox="0 0 248.57 248.57"><path d="M0,30V60H60V0H0V30Zm51.43,0V51.43H8.57V8.57H51.43V30Z"/><path d="M68.57,4.29V8.57H94.29V25.71H85.71V17.14H77.14v8.57h8.57V42.86H77.14v8.57H68.57V68.57h8.57v8.57H68.57v8.57H42.86V68.57H25.71v8.57H17.14V68.57H0v8.57H17.14v8.57H8.57v8.58H0V120H8.57v8.57h8.57v8.57H8.57v17.15H25.71v-8.57H17.14v-8.58H34.29v8.58h8.57v8.57h8.57v8.57H34.29v8.57H17.14V180H42.86v-8.57h8.57V180H68.57v8.57h8.57v8.57h8.57v-8.57h8.58v17.15H68.57v17.14h8.57v-8.57h8.57v8.57h8.58V240H85.71v-8.57H68.57v17.14H94.29V240h8.57v-8.57H120v-8.57h8.57v8.57h17.15v-8.57h8.57v8.57h8.57V214.29H180v8.57h-8.57v8.57H180V240H154.29v8.57h34.28V240h8.57v8.57h25.72V240h8.57v-8.57H240V240h8.57V205.72H240v-8.58h-8.57v17.15H240v8.57H222.86v8.57h-8.57v-8.57h-8.57v-8.57h17.14v-8.57h-8.57v-8.58h8.57V180H240v-8.57h-8.57v-8.57h-8.57v-8.57H240v8.57h8.57v-8.57H240v-8.57H222.86v-8.58h8.57V120H240v17.14h8.57V94.29H240v17.14H205.72v-8.57h17.14V94.29h8.57V85.71H240V77.14h8.57V68.57H240v8.57H222.86V94.29H197.14v8.57h-8.57v25.71H180v8.57h-8.57V120h-8.57v-8.57H180v-8.57h-8.57V94.29h-8.57v17.14h-8.57V120h-8.57v-8.57h-8.58V94.29h8.58v8.57h8.57V94.29h-8.57V85.71h25.71V77.14H154.29V68.57H128.57V42.86h8.57V34.29h17.15v8.57h-8.57v8.57h-8.58V60h8.58V51.43h8.57V60h8.57V51.43h-8.57V42.86h17.14V60H180V42.86h-8.57V34.29H180V17.14h-8.57V8.57H180V0h-8.57V8.57h-8.57V0h-8.57V8.57h-8.57v8.57h8.57V8.57h8.57V34.29h-8.57V25.71H128.57V17.14h8.57V0H111.43V8.57h-8.57V0H68.57V4.29Zm42.86,17.14v4.28H120v8.58h8.57v8.57H120V34.29H102.86V17.14h8.57v4.29ZM94.29,47.14v4.29h8.57V42.86h8.57v8.57H120V68.57h-8.57V51.43h-8.57V77.14H120v25.72h-8.57v8.57h17.14V120H120v8.57H102.86v8.57H94.29v17.15h8.57v-8.57h8.57v-8.58h17.14v-8.57h8.57V120h8.58v8.57h8.57v8.57h8.57v8.58h-8.57v8.57H102.86v8.57h8.57V180h-8.57v8.57h8.57v8.57h-8.57v-8.57H94.29V180H85.71V162.86H77.14v-8.57H68.57v-8.57H60v8.57H51.43v-8.57H60v-8.58H42.86v-8.57H17.14V111.43H8.57V94.29h8.57v17.14H34.29V85.71H25.71V77.14h8.58v8.57h8.57v8.58H68.57V85.71h8.57V77.14h8.57V60H77.14V51.43h8.57V42.86h8.58v4.28Zm51.43,34.29v4.28H128.57V77.14h17.15v4.29Zm77.14,47.14v8.57h-8.57v8.58h8.57v8.57h-8.57v8.57h-8.57v8.57H188.57v-8.57h17.15v-8.57h8.57v-8.57h-8.57V128.57h8.57V120h8.57v8.57Zm-25.72,17.15v8.57H171.43v-8.57H180v-8.58h17.14v8.58ZM60,167.14v4.29H51.43v-8.57H60v4.28Zm77.14,0v4.29h-8.57V180h17.15v8.57h17.14v25.72H137.14v-8.57h-8.57v8.57H120V162.86h17.14v4.28Zm34.29,0v4.29H145.72v-8.57h25.71v4.28Zm-94.29,8.58V180H68.57v-8.57h8.57v4.29Zm128.58,17.14v12.86H180V180h25.72v12.86Zm-94.29,25.71v4.29H94.29v-8.57h17.14v4.28Zm85.71,4.29v8.57H180v-8.57h8.57v-8.57h8.57v8.57Z"/><path d="M188.57,30V60h60V0h-60V30ZM240,30V51.43H197.14V8.57H240V30Z"/><polygon points="51.43 72.86 51.43 77.14 55.72 77.14 60 77.14 60 72.86 60 68.57 55.72 68.57 51.43 68.57 51.43 72.86 51.43 72.86"/><polygon points="188.57 72.86 188.57 77.14 184.29 77.14 180 77.14 180 85.72 180 94.29 184.29 94.29 188.57 94.29 188.57 85.72 188.57 77.14 192.86 77.14 197.14 77.14 197.14 81.43 197.14 85.72 205.72 85.72 214.29 85.72 214.29 81.43 214.29 77.14 205.72 77.14 197.14 77.14 197.14 72.86 197.14 68.57 192.86 68.57 188.57 68.57 188.57 72.86 188.57 72.86"/><path d="M0,218.57v30H60v-60H0v30Zm51.43,0V240H8.57V197.14H51.43v21.43Z"/><polygon points="120 244.29 120 248.57 132.86 248.57 145.72 248.57 145.72 244.29 145.72 240 132.86 240 120 240 120 244.29 120 244.29"/><polygon points="17.14 30 17.14 42.86 30 42.86 42.86 42.86 42.86 30 42.86 17.14 30 17.14 17.14 17.14 17.14 30 17.14 30"/><polygon points="85.72 55.72 85.72 60 90 60 94.29 60 94.29 55.72 94.29 51.43 90 51.43 85.72 51.43 85.72 55.72 85.72 55.72"/><polygon points="85.72 81.43 85.72 85.72 81.43 85.72 77.14 85.72 77.14 90 77.14 94.29 72.86 94.29 68.57 94.29 68.57 98.57 68.57 102.86 60 102.86 51.43 102.86 51.43 107.14 51.43 111.43 55.72 111.43 60 111.43 60 115.72 60 120 51.43 120 42.86 120 42.86 124.29 42.86 128.57 51.43 128.57 60 128.57 60 132.86 60 137.14 64.29 137.14 68.57 137.14 68.57 141.43 68.57 145.72 72.86 145.72 77.14 145.72 77.14 150 77.14 154.29 81.43 154.29 85.72 154.29 85.72 158.57 85.72 162.86 90 162.86 94.29 162.86 94.29 171.43 94.29 180 98.57 180 102.86 180 102.86 171.43 102.86 162.86 98.57 162.86 94.29 162.86 94.29 158.57 94.29 154.29 90 154.29 85.72 154.29 85.72 150 85.72 145.72 81.43 145.72 77.14 145.72 77.14 141.43 77.14 137.14 72.86 137.14 68.57 137.14 68.57 124.29 68.57 111.43 77.14 111.43 85.72 111.43 85.72 115.72 85.72 120 81.43 120 77.14 120 77.14 124.29 77.14 128.57 81.43 128.57 85.72 128.57 85.72 124.29 85.72 120 90 120 94.29 120 94.29 111.43 94.29 102.86 85.72 102.86 77.14 102.86 77.14 98.57 77.14 94.29 81.43 94.29 85.72 94.29 85.72 90 85.72 85.72 90 85.72 94.29 85.72 94.29 81.43 94.29 77.14 90 77.14 85.72 77.14 85.72 81.43 85.72 81.43"/><polygon points="102.86 90 102.86 94.29 107.14 94.29 111.43 94.29 111.43 90 111.43 85.72 107.14 85.72 102.86 85.72 102.86 90 102.86 90"/><polygon points="102.86 115.72 102.86 120 107.14 120 111.43 120 111.43 115.72 111.43 111.43 107.14 111.43 102.86 111.43 102.86 115.72 102.86 115.72"/><polygon points="137.14 132.86 137.14 137.14 132.86 137.14 128.57 137.14 128.57 141.43 128.57 145.72 132.86 145.72 137.14 145.72 137.14 141.43 137.14 137.14 141.43 137.14 145.72 137.14 145.72 132.86 145.72 128.57 141.43 128.57 137.14 128.57 137.14 132.86 137.14 132.86"/><polygon points="128.57 192.86 128.57 197.14 137.14 197.14 145.72 197.14 145.72 201.43 145.72 205.72 150 205.72 154.29 205.72 154.29 201.43 154.29 197.14 150 197.14 145.72 197.14 145.72 192.86 145.72 188.57 137.14 188.57 128.57 188.57 128.57 192.86 128.57 192.86"/><polygon points="188.57 192.86 188.57 197.14 192.86 197.14 197.14 197.14 197.14 192.86 197.14 188.57 192.86 188.57 188.57 188.57 188.57 192.86 188.57 192.86"/><polygon points="205.72 30 205.72 42.86 218.57 42.86 231.43 42.86 231.43 30 231.43 17.14 218.57 17.14 205.72 17.14 205.72 30 205.72 30"/><polygon points="17.14 218.57 17.14 231.43 30 231.43 42.86 231.43 42.86 218.57 42.86 205.72 30 205.72 17.14 205.72 17.14 218.57 17.14 218.57"/></svg>