<?xml version="1.0" encoding="utf-8"?>
<!-- Generator: Adobe Illustrator 22.0.0, SVG Export Plug-In . SVG Version: 6.00 Build 0)  -->
<svg version="1.1" id="Capa_1" xmlns="http://www.w3.org/2000/svg" xmlns:xlink="http://www.w3.org/1999/xlink" x="0px" y="0px"
	 viewBox="0 0 512 512" style="enable-background:new 0 0 512 512;" xml:space="preserve">
<style type="text/css">
	.st0{fill:#a9c6cc;}
	.st1{fill:#FFFFFF;}
</style>
<rect class="st0" width="512" height="512"/>
<g>
	<path class="st1" d="M256,252.5c35.4,0,64.1-34.8,64.1-77.8s-9.4-77.8-64.1-77.8s-64.1,34.8-64.1,77.8S220.6,252.5,256,252.5z"/>
	<path class="st1" d="M135,371.3C135,368.7,135,370.6,135,371.3L135,371.3z"/>
	<path class="st1" d="M377,373.4C377,372.6,377,368.4,377,373.4L377,373.4z"/>
	<path class="st1" d="M376.8,368.2c-1.2-74.9-11-96.2-85.8-109.7c0,0-10.5,13.4-35.1,13.4s-35.1-13.4-35.1-13.4
		c-74,13.4-84.4,34.4-85.7,107.3c-0.1,6-0.2,6.3-0.2,5.6c0,1.3,0,3.7,0,7.9c0,0,17.8,35.9,121,35.9s121-35.9,121-35.9
		c0-2.7,0-4.5,0-5.8C377,373.8,376.9,373,376.8,368.2z"/>
</g>
</svg>
